<?xml version="1.0" encoding="utf-8"?>
<!-- Generator: Adobe Illustrator 15.0.0, SVG Export Plug-In  -->
<!DOCTYPE svg PUBLIC "-//W3C//DTD SVG 1.1//EN" "http://www.w3.org/Graphics/SVG/1.1/DTD/svg11.dtd" [
	<!ENTITY ns_flows "http://ns.adobe.com/Flows/1.0/">
]>
<svg version="1.1"
	 xmlns="http://www.w3.org/2000/svg" xmlns:xlink="http://www.w3.org/1999/xlink" xmlns:a="http://ns.adobe.com/AdobeSVGViewerExtensions/3.0/"
	 x="0px" y="0px" width="1300px" height="320px" viewBox="-15.833 -14 1300 320" enable-background="new -15.833 -14 1300 320"
	 xml:space="preserve">
<defs>
</defs>
<path fill="#171717" d="M10.865,280.184C3.619,273.239,0,263.617,0,251.311V120.639c0-11.907,3.572-21.283,10.716-28.129
	c7.144-6.846,17.064-10.269,29.766-10.269h69.95c21.031,0,37.305,4.962,48.816,14.883c11.506,9.925,17.264,23.915,17.264,41.97
	c0,9.925-2.679,18.752-8.037,26.491c-5.358,7.739-12.502,13.595-21.432,17.563v0.297c10.121,3.772,18.157,9.726,24.11,17.859
	c5.953,8.14,8.93,17.465,8.93,27.98c0,19.05-5.907,34.035-17.71,44.946c-11.809,10.916-27.934,16.371-48.37,16.371H41.375
	C28.278,290.602,18.106,287.132,10.865,280.184z M111.919,172.729c11.311,0,20.189-2.977,26.641-8.93
	c6.446-5.954,9.674-14.186,9.674-24.706c0-11.311-3.228-19.892-9.674-25.748c-6.451-5.851-15.827-8.781-28.129-8.781H42.565
	c-4.367,0-7.888,1.488-10.567,4.465c-2.679,2.977-4.019,6.949-4.019,11.906v51.793H111.919z M111.919,267.979
	c13.097,0,23.018-3.223,29.766-9.674c6.744-6.446,10.121-16.022,10.121-28.725c0-10.91-3.572-19.394-10.716-25.449
	c-7.144-6.051-16.966-9.078-29.468-9.078H27.98v56.853c0,4.763,1.339,8.632,4.019,11.608c2.679,2.977,6.2,4.465,10.567,4.465
	H111.919z"/>
<path fill="#171717" d="M228.152,280.184c-7.246-6.944-10.865-16.566-10.865-28.873V93.254c0-4.362,1.237-7.786,3.721-10.269
	c2.479-2.479,5.902-3.721,10.269-3.721c4.363,0,7.837,1.242,10.418,3.721c2.577,2.483,3.87,5.907,3.87,10.269v158.354
	c0,4.963,1.289,8.93,3.87,11.906c2.577,2.977,6.148,4.465,10.716,4.465h97.929c9.325,0,13.99,3.771,13.99,11.312
	c0,3.571-1.242,6.353-3.721,8.334c-2.484,1.986-5.907,2.977-10.27,2.977h-99.12C245.662,290.602,235.393,287.132,228.152,280.184z"
	/>
<path fill="#171717" d="M407.042,289.857c-2.483-2.479-3.721-5.902-3.721-10.27V167.371c0-27.58,7.837-49.16,23.515-64.74
	c15.673-15.576,37.305-23.366,64.89-23.366c18.254,0,34.082,3.525,47.476,10.567c13.395,7.046,23.613,17.217,30.659,30.51
	c7.042,13.297,10.567,28.975,10.567,47.03v112.217c0,4.367-1.293,7.791-3.87,10.27c-2.581,2.479-6.055,3.721-10.418,3.721
	c-4.167,0-7.543-1.242-10.12-3.721c-2.582-2.479-3.87-5.902-3.87-10.27v-30.722H431.302v30.722c0,4.367-1.242,7.791-3.721,10.27
	c-2.483,2.479-5.907,3.721-10.269,3.721C412.945,293.578,409.521,292.336,407.042,289.857z M552.151,226.244v-59.766
	c0-20.636-5.163-36.463-15.478-47.477c-10.321-11.014-25.301-16.52-44.946-16.52c-19.646,0-34.631,5.409-44.947,16.222
	c-10.32,10.818-15.478,26.743-15.478,47.774v59.766H552.151z"/>
<path fill="#171717" d="M763.187,283.16c-5.558-23.018-14.437-42.268-26.641-57.745c-12.204-15.479-29.422-29.366-51.644-41.673
	l-34.826,28.575v67.271c0,4.367-1.293,7.791-3.869,10.27c-2.581,2.479-6.056,3.721-10.418,3.721c-4.167,0-7.493-1.242-9.972-3.721
	c-2.483-2.479-3.721-5.902-3.721-10.27V93.254c0-4.362,1.237-7.786,3.721-10.269c2.479-2.479,5.805-3.721,9.972-3.721
	c4.362,0,7.837,1.242,10.418,3.721c2.576,2.483,3.869,5.907,3.869,10.269v87.511l112.218-97.036
	c2.776-2.381,5.655-3.572,8.632-3.572c3.767,0,6.846,1.391,9.228,4.167c2.576,2.581,3.869,5.358,3.869,8.334
	c0,3.572-1.591,6.651-4.763,9.228l-75.902,66.08c25.003,13.497,44.695,29.519,59.085,48.071
	c14.385,18.557,23.366,39.439,26.938,62.657c0.596,3.972-0.148,7.344-2.232,10.12c-2.083,2.776-5.014,4.265-8.78,4.465
	C770.228,293.876,765.168,290.504,763.187,283.16z"/>
<path fill="#171717" d="M839.238,289.857c-2.484-2.479-3.721-5.902-3.721-10.27V93.254c0-4.362,1.236-7.786,3.721-10.269
	c2.479-2.479,5.804-3.721,9.971-3.721c4.363,0,7.837,1.242,10.418,3.721c2.577,2.483,3.87,5.907,3.87,10.269v186.333
	c0,4.367-1.293,7.791-3.87,10.27c-2.581,2.479-6.055,3.721-10.418,3.721C845.042,293.578,841.716,292.336,839.238,289.857z"/>
<path fill="#171717" d="M919.304,289.857c-2.483-2.479-3.721-5.902-3.721-10.27V120.639c0-11.907,3.571-21.283,10.716-28.129
	c7.144-6.846,17.063-10.269,29.766-10.269h92.273c9.325,0,13.99,3.87,13.99,11.608c0,3.377-1.242,6.056-3.721,8.037
	c-2.483,1.986-5.907,2.977-10.27,2.977h-89.893c-4.567,0-8.186,1.488-10.864,4.465s-4.019,6.948-4.019,11.906v54.472h82.153
	c9.325,0,13.99,3.869,13.99,11.608c0,3.571-1.242,6.353-3.721,8.335c-2.483,1.985-5.906,2.977-10.27,2.977h-82.153v80.962
	c0,4.367-1.242,7.791-3.721,10.27c-2.483,2.479-5.906,3.721-10.27,3.721C925.206,293.578,921.783,292.336,919.304,289.857z"/>
<path fill="#171717" d="M1263.692,82.985c2.479,2.483,3.721,5.907,3.721,10.269v35.124c0,17.264-3.079,32.594-9.228,45.988
	c-6.153,13.395-14.935,24.26-26.343,32.594c-11.413,8.334-24.757,13.496-40.035,15.479v57.149c0,4.367-1.293,7.791-3.869,10.27
	c-2.581,2.479-6.056,3.721-10.418,3.721c-4.167,0-7.493-1.242-9.972-3.721c-2.483-2.479-3.721-5.902-3.721-10.27v-57.149
	c-23.617-2.777-42.17-12.502-55.662-29.171c-13.497-16.669-20.241-38.295-20.241-64.89V93.254c0-4.362,1.237-7.786,3.722-10.269
	c2.479-2.479,5.804-3.721,9.971-3.721c4.363,0,7.837,1.242,10.418,3.721c2.577,2.483,3.87,5.907,3.87,10.269v36.017
	c0,22.427,5.404,39.839,16.223,52.239c10.813,12.404,25.942,18.604,45.393,18.604c19.445,0,34.626-6.252,45.541-18.753
	c10.911-12.502,16.371-29.864,16.371-52.09V93.254c0-4.362,1.289-7.786,3.87-10.269c2.576-2.479,5.953-3.721,10.12-3.721
	C1257.785,79.265,1261.208,80.506,1263.692,82.985z"/>
<path fill="#EC595A" d="M1217.042,125.261v10.254c0,21.472-17.405,38.877-38.876,38.877s-38.876-17.405-38.876-38.877v-10.254
	H1217.042z"/>
<path fill="#EC595A" d="M1178.167,0L1178.167,0c-21.471,0-38.877,17.405-38.877,38.876v73.384h77.753V38.876
	C1217.042,17.405,1199.637,0,1178.167,0 M1154.797,92.632c-2.113,0-3.826-1.713-3.826-3.826c0-2.114,1.713-3.827,3.826-3.827
	s3.826,1.713,3.826,3.827C1158.624,90.919,1156.911,92.632,1154.797,92.632 M1154.797,77.866c-2.113,0-3.826-1.713-3.826-3.826
	c0-2.114,1.713-3.827,3.826-3.827s3.826,1.713,3.826,3.827C1158.624,76.153,1156.911,77.866,1154.797,77.866 M1154.797,63.101
	c-2.113,0-3.826-1.714-3.826-3.827c0-2.113,1.713-3.827,3.826-3.827s3.826,1.714,3.826,3.827
	C1158.624,61.387,1156.911,63.101,1154.797,63.101 M1154.797,48.335c-2.113,0-3.826-1.713-3.826-3.827
	c0-2.113,1.713-3.827,3.826-3.827s3.826,1.714,3.826,3.827C1158.624,46.622,1156.911,48.335,1154.797,48.335 M1154.797,33.569
	c-2.113,0-3.826-1.713-3.826-3.827c0-2.113,1.713-3.826,3.826-3.826s3.826,1.713,3.826,3.826
	C1158.624,31.856,1156.911,33.569,1154.797,33.569 M1170.376,92.632c-2.112,0-3.825-1.713-3.825-3.826
	c0-2.114,1.713-3.827,3.825-3.827c2.114,0,3.827,1.713,3.827,3.827C1174.204,90.919,1172.491,92.632,1170.376,92.632
	 M1170.376,77.866c-2.112,0-3.825-1.713-3.825-3.826c0-2.114,1.713-3.827,3.825-3.827c2.114,0,3.827,1.713,3.827,3.827
	C1174.204,76.153,1172.491,77.866,1170.376,77.866 M1170.376,63.101c-2.112,0-3.825-1.714-3.825-3.827
	c0-2.113,1.713-3.827,3.825-3.827c2.114,0,3.827,1.714,3.827,3.827C1174.204,61.387,1172.491,63.101,1170.376,63.101
	 M1170.376,48.335c-2.112,0-3.825-1.713-3.825-3.827c0-2.113,1.713-3.827,3.825-3.827c2.114,0,3.827,1.714,3.827,3.827
	C1174.204,46.622,1172.491,48.335,1170.376,48.335 M1170.376,33.569c-2.112,0-3.825-1.713-3.825-3.827
	c0-2.113,1.713-3.826,3.825-3.826c2.114,0,3.827,1.713,3.827,3.826C1174.204,31.856,1172.491,33.569,1170.376,33.569
	 M1185.957,92.632c-2.113,0-3.827-1.713-3.827-3.826c0-2.114,1.714-3.827,3.827-3.827s3.826,1.713,3.826,3.827
	C1189.783,90.919,1188.07,92.632,1185.957,92.632 M1185.957,77.866c-2.113,0-3.827-1.713-3.827-3.826
	c0-2.114,1.714-3.827,3.827-3.827s3.826,1.713,3.826,3.827C1189.783,76.153,1188.07,77.866,1185.957,77.866 M1185.957,63.101
	c-2.113,0-3.827-1.714-3.827-3.827c0-2.113,1.714-3.827,3.827-3.827s3.826,1.714,3.826,3.827
	C1189.783,61.387,1188.07,63.101,1185.957,63.101 M1185.957,48.335c-2.113,0-3.827-1.713-3.827-3.827
	c0-2.113,1.714-3.827,3.827-3.827s3.826,1.714,3.826,3.827C1189.783,46.622,1188.07,48.335,1185.957,48.335 M1185.957,33.569
	c-2.113,0-3.827-1.713-3.827-3.827c0-2.113,1.714-3.826,3.827-3.826s3.826,1.713,3.826,3.826
	C1189.783,31.856,1188.07,33.569,1185.957,33.569 M1201.536,92.632c-2.113,0-3.827-1.713-3.827-3.826
	c0-2.114,1.714-3.827,3.827-3.827s3.826,1.713,3.826,3.827C1205.362,90.919,1203.649,92.632,1201.536,92.632 M1201.536,77.866
	c-2.113,0-3.827-1.713-3.827-3.826c0-2.114,1.714-3.827,3.827-3.827s3.826,1.713,3.826,3.827
	C1205.362,76.153,1203.649,77.866,1201.536,77.866 M1201.536,63.101c-2.113,0-3.827-1.714-3.827-3.827
	c0-2.113,1.714-3.827,3.827-3.827s3.826,1.714,3.826,3.827C1205.362,61.387,1203.649,63.101,1201.536,63.101 M1201.536,48.335
	c-2.113,0-3.827-1.713-3.827-3.827c0-2.113,1.714-3.827,3.827-3.827s3.826,1.714,3.826,3.827
	C1205.362,46.622,1203.649,48.335,1201.536,48.335 M1201.536,33.569c-2.113,0-3.827-1.713-3.827-3.827
	c0-2.113,1.714-3.826,3.827-3.826s3.826,1.713,3.826,3.826C1205.362,31.856,1203.649,33.569,1201.536,33.569"/>
</svg>
