<svg width="175" height="53" viewBox="0 0 175 53" fill="none" xmlns="http://www.w3.org/2000/svg">
<path d="M62.0938 13.3139C61.9607 13.1165 61.8139 12.9285 61.6546 12.7513C60.6406 11.6434 59.1282 11.0904 57.1175 11.0924C54.8024 11.0924 53.0661 11.6628 51.9085 12.8035C50.751 13.9443 50.1247 15.7288 50.0297 18.1573L55.0642 18.3719L55.1689 16.9566C55.1822 16.4613 55.3159 15.9766 55.5586 15.5442C55.6819 15.3724 55.8485 15.2361 56.0415 15.149C56.2345 15.0619 56.4472 15.0272 56.658 15.0483C56.8738 15.0283 57.0908 15.0711 57.2828 15.1714C57.4748 15.2718 57.6336 15.4254 57.7399 15.6138C57.9646 16.1378 58.0641 16.7067 58.0308 17.2756V19.184C56.538 19.7064 55.079 20.3205 53.6623 21.0227C52.5591 21.5944 51.5974 22.4038 50.847 23.3921C50.0714 24.4053 49.6836 25.7007 49.6836 27.2784C49.6831 28.105 49.87 28.921 50.2304 29.6653C50.5869 30.4196 51.1455 31.0609 51.8445 31.5185C52.581 31.9985 53.4458 32.2451 54.3254 32.2262C55.2601 32.2555 56.1692 31.9193 56.8587 31.2894C57.5411 30.6502 58.0366 29.8383 58.2925 28.9402C58.5077 30.2105 58.659 31.1908 58.755 31.8723H62.0996L62.0938 13.3139ZM58.0395 27.2755C57.8214 27.5888 57.552 27.8634 57.2426 28.0876C56.9547 28.3137 56.5998 28.4381 56.2334 28.4414C55.9976 28.4514 55.7633 28.4016 55.5521 28.2966C55.341 28.1916 55.1601 28.0349 55.0264 27.8411C54.7144 27.332 54.5662 26.74 54.6017 26.1444C54.5765 25.2277 54.8925 24.334 55.4888 23.6358C56.2229 22.8397 57.0849 22.1712 58.0395 21.6578V27.2755Z" fill="#1F252C"/>
<path d="M75.4015 31.8691V11.4517H72.2023V27.7421C71.4461 28.2612 70.8179 28.5223 70.3234 28.5223C70.1329 28.5412 69.9406 28.5121 69.7642 28.4376C69.5879 28.3631 69.4331 28.2456 69.3142 28.0959C69.0892 27.7122 68.9877 27.2688 69.0234 26.8256V11.4517H63.6719V27.5681C63.6719 28.9331 63.985 30.0516 64.6113 30.9236C64.9162 31.3516 65.3244 31.6958 65.7983 31.9245C66.2721 32.1531 66.7962 32.2588 67.3219 32.2316C68.9526 32.2316 70.5832 31.4776 72.2139 29.9695V31.8778L75.4015 31.8691Z" fill="#1F252C"/>
<path d="M88.4908 31.8692V3.24707H85.498V12.7162C84.2474 11.6316 82.9483 11.0902 81.6007 11.0921C79.9914 11.0921 78.7864 11.7157 77.9856 12.9628C77.1848 14.2098 76.7834 15.8833 76.7815 17.983V25.4742C76.7815 29.9734 78.3879 32.223 81.6007 32.223C82.9464 32.223 84.2455 31.5985 85.498 30.3495V31.8692H88.4908ZM83.785 28.679C82.6992 28.679 82.1562 27.7374 82.1562 25.8542V17.2029C82.1261 16.5388 82.2599 15.8775 82.546 15.2771C82.6592 15.0493 82.8369 14.8594 83.0571 14.7311C83.2772 14.6028 83.5303 14.5415 83.785 14.555C84.3885 14.5801 84.9751 14.762 85.4864 15.0828V28.0873C84.9936 28.447 84.4064 28.6556 83.7966 28.6877L83.785 28.679Z" fill="#1F252C"/>
<path d="M94.8014 5.00195H90.2227V8.99554H94.8014V5.00195Z" fill="#1F252C"/>
<path d="M94.8016 11.4429H90.2578V31.869H94.8016V11.4429Z" fill="#1F252C"/>
<path d="M107.797 12.4236C106.645 11.5361 105.106 11.0924 103.179 11.0924C100.957 11.0924 99.2493 11.6811 98.0568 12.8586C96.8644 14.0361 96.2672 15.7443 96.2653 17.9833V25.3324C96.2653 27.5713 96.8625 29.2796 98.0568 30.457C99.2512 31.6345 100.958 32.2233 103.179 32.2233C105.104 32.2233 106.643 31.7795 107.797 30.8921V12.4236ZM104.47 27.8933C104.362 28.1292 104.183 28.3257 103.958 28.4556C103.733 28.5855 103.472 28.6424 103.213 28.6183C102.945 28.6438 102.675 28.5862 102.44 28.4533C102.206 28.3205 102.018 28.1189 101.902 27.8759C101.631 27.1909 101.51 26.4563 101.547 25.721V17.6294C101.512 16.8877 101.633 16.1468 101.902 15.4543C102.015 15.208 102.202 15.0027 102.437 14.8667C102.671 14.7306 102.943 14.6704 103.213 14.6944C103.474 14.6718 103.736 14.7312 103.961 14.8643C104.187 14.9975 104.365 15.1977 104.47 15.4369C104.729 16.1377 104.844 16.8834 104.807 17.6294V25.721C104.846 26.4605 104.731 27.1999 104.47 27.8933Z" fill="#1F252C"/>
<path d="M118.664 21.4602C118.489 21.3036 118.312 21.1441 118.126 20.9846L116.212 19.2821C115.546 18.7307 114.918 18.1348 114.333 17.4985C113.983 17.1549 113.769 16.6965 113.731 16.2079C113.723 16.0277 113.754 15.8479 113.821 15.6804C113.888 15.5129 113.99 15.3615 114.121 15.2364C114.4 14.9819 114.769 14.8483 115.147 14.8651C115.477 14.873 115.8 14.9589 116.09 15.1157C116.379 15.2725 116.628 15.4958 116.814 15.7671C117.306 16.4108 117.656 17.1511 117.841 17.9394L118.664 17.571V12.1476C117.586 11.4203 116.305 11.0508 115.005 11.092C113.943 11.0812 112.894 11.3165 111.939 11.7793C111.037 12.2131 110.272 12.8851 109.726 13.7225C109.177 14.5817 108.893 15.5834 108.912 16.6024C108.88 17.6507 109.163 18.6845 109.723 19.5722C110.434 20.5781 111.281 21.4817 112.239 22.2578L114.153 23.8819C114.88 24.4765 115.561 25.1261 116.189 25.825C116.523 26.2341 116.705 26.747 116.7 27.2751C116.711 27.4489 116.683 27.6228 116.618 27.7846C116.554 27.9465 116.455 28.0923 116.328 28.2119C116.015 28.462 115.62 28.5871 115.22 28.5628C113.921 28.5628 112.917 27.5139 112.207 25.4161L108.449 26.9706C109.064 28.7629 109.95 30.0883 111.108 30.9468C112.265 31.8052 113.73 32.2354 115.502 32.2374C116.565 32.2472 117.618 32.0245 118.585 31.5848L118.664 31.5442V21.4602Z" fill="#1F252C"/>
<path d="M133.571 31.8692V13.0556C133.463 12.8257 133.336 12.6055 133.19 12.3972C132.895 11.9726 132.497 11.63 132.032 11.4016C131.567 11.1733 131.052 11.0668 130.535 11.0921C128.668 11.0921 126.989 11.8336 125.5 13.3166V3.24707H120.149V31.8692H125.5V15.8253C126.276 15.2452 126.961 14.9552 127.557 14.9552C127.737 14.937 127.92 14.9647 128.087 15.0357C128.255 15.1067 128.401 15.2186 128.513 15.3612C128.733 15.7409 128.834 16.177 128.804 16.6141V31.8692H133.571Z" fill="#1F252C"/>
<path d="M145.497 11.942C144.569 11.3794 143.394 11.0923 141.96 11.0923C139.645 11.0923 137.909 11.6627 136.751 12.8034C135.594 13.9442 134.968 15.7287 134.873 18.1572L139.904 18.3718L140.012 16.9565C140.025 16.4612 140.159 15.9765 140.401 15.5441C140.525 15.3723 140.691 15.236 140.884 15.1489C141.077 15.0618 141.29 15.0271 141.501 15.0482C141.718 15.0259 141.936 15.0676 142.13 15.1682C142.323 15.2687 142.483 15.4236 142.589 15.6137C142.815 16.1373 142.914 16.7065 142.879 17.2755V19.1839C141.389 19.7065 139.932 20.3206 138.517 21.0226C137.412 21.5934 136.449 22.4029 135.699 23.3921C134.923 24.4052 134.535 25.7006 134.535 27.2783C134.536 28.1051 134.724 28.9211 135.085 29.6652C135.441 30.4195 136 31.0608 136.699 31.5184C137.435 31.9984 138.3 32.2451 139.18 32.2261C140.115 32.2554 141.024 31.9192 141.713 31.2893C142.396 30.6501 142.891 29.8382 143.147 28.9402C143.359 30.2104 143.513 31.1907 143.609 31.8723H145.497V11.942ZM142.879 27.2754C142.66 27.5881 142.391 27.8625 142.082 28.0875C141.794 28.3136 141.438 28.438 141.07 28.4413C140.835 28.4511 140.601 28.4012 140.391 28.2962C140.18 28.1912 140 28.0345 139.866 27.841C139.554 27.332 139.406 26.7399 139.442 26.1444C139.415 25.2274 139.731 24.3334 140.329 23.6357C141.063 22.8396 141.925 22.1711 142.879 21.6577V27.2754Z" fill="#1F252C"/>
<path d="M160.989 26.4255L158.101 19.7492L160.989 15.2365V11.4431H157.464L152.325 19.3606V3.24707H147.008V31.8692H152.325V24.0937L153.919 21.9737L157.569 31.8692H160.989V26.4255Z" fill="#1F252C"/>
<path d="M174 24.1316H170.632V26.1095C170.632 27.6409 170.101 28.4065 169.038 28.4065C168.805 28.4181 168.573 28.3688 168.365 28.2635C168.157 28.1582 167.98 28.0006 167.852 27.8062C167.578 27.4059 167.445 26.7679 167.445 25.8978V21.9391H174V12.8817C172.936 11.6888 171.273 11.0923 169.012 11.0923C166.79 11.0923 165.089 11.7042 163.908 12.9281C162.727 14.152 162.137 15.9192 162.137 18.2297V25.0829C162.137 27.3914 162.718 29.1577 163.882 30.3815C165.045 31.6054 166.752 32.2183 169.004 32.2203C171.136 32.2203 172.766 31.6779 173.893 30.5933C173.927 30.5614 173.957 30.5237 173.991 30.4889L174 24.1316ZM167.445 17.8063C167.445 16.7216 167.567 15.9675 167.817 15.5441C167.935 15.3377 168.109 15.1685 168.319 15.0557C168.528 14.9429 168.766 14.8911 169.004 14.9061C169.243 14.8868 169.483 14.9302 169.7 15.0319C169.918 15.1337 170.105 15.2902 170.243 15.4861C170.504 15.8776 170.632 16.5186 170.632 17.4147V19.3927H167.433L167.445 17.8063Z" fill="#1F252C"/>
<path d="M41.0096 35.2128C42.5947 32.6027 43.0222 29.4501 42.9292 26.4049C42.5976 15.6742 35.7018 5.41324 25.8975 1.06293C23.9954 0.221871 21.8083 -0.413275 19.8625 0.326278C18.1844 0.964323 17.0181 2.51593 16.2154 4.12555C14.7263 7.10696 14.1795 10.4567 13.5076 13.7223C12.8358 16.988 11.9604 20.3203 9.96518 22.9798C7.97001 25.6393 4.5468 27.4896 1.2981 26.75C-0.17356 26.4194 -1.61032 32.4257 4.31704 36.1554C6.16679 37.3155 8.64185 37.1734 10.5992 36.2018C12.5566 35.2302 14.037 33.5133 15.1654 31.6311C16.4044 29.5487 17.2188 27.246 18.2164 25.036C19.2139 22.8261 20.4355 20.6509 22.2969 19.0993C24.1583 17.5477 26.7584 16.7066 29.0589 17.4636C31.3595 18.2205 33.0406 20.8568 32.2757 23.1567C31.4438 25.6509 28.4947 26.6369 26.7177 28.5917C24.6236 30.9118 24.4869 34.7372 26.4268 37.1879C30.3154 42.1414 38.139 39.9605 41.0242 35.2128" fill="#1F252C"/>
<path d="M147.196 47H145.9V38.12H147.196V47ZM154.778 47H153.53V43.388C153.53 42.004 152.978 41.312 151.874 41.312C151.29 41.312 150.85 41.508 150.554 41.9C150.266 42.284 150.122 42.776 150.122 43.376V47H148.874V40.352H150.038V41.06H150.062C150.51 40.468 151.158 40.172 152.006 40.172C153.07 40.172 153.854 40.568 154.358 41.36C154.638 41.792 154.778 42.36 154.778 43.064V47ZM163.01 47H161.858V46.052H161.834C161.298 46.796 160.514 47.168 159.482 47.168C158.49 47.168 157.666 46.84 157.01 46.184C156.354 45.52 156.026 44.692 156.026 43.7C156.026 42.7 156.35 41.864 156.998 41.192C157.654 40.512 158.482 40.172 159.482 40.172C159.922 40.172 160.342 40.26 160.742 40.436C161.15 40.604 161.482 40.848 161.738 41.168H161.762V38.12H163.01V47ZM161.858 43.688C161.858 43.016 161.642 42.452 161.21 41.996C160.778 41.54 160.226 41.312 159.554 41.312C158.906 41.312 158.362 41.544 157.922 42.008C157.49 42.472 157.274 43.032 157.274 43.688C157.274 44.32 157.494 44.868 157.934 45.332C158.374 45.796 158.91 46.028 159.542 46.028C160.19 46.028 160.738 45.8 161.186 45.344C161.634 44.888 161.858 44.336 161.858 43.688ZM165.861 39.584H164.613V38.12H165.861V39.584ZM165.861 47H164.613V40.352H165.861V47ZM173.928 43.592C173.928 43.8 173.916 44.008 173.892 44.216H168.384C168.512 44.744 168.772 45.18 169.164 45.524C169.564 45.86 170.032 46.028 170.568 46.028C170.96 46.028 171.328 45.928 171.672 45.728C172.024 45.528 172.288 45.256 172.464 44.912H173.712C173.456 45.592 173.04 46.14 172.464 46.556C171.888 46.964 171.24 47.168 170.52 47.168C169.584 47.168 168.784 46.82 168.12 46.124C167.464 45.428 167.136 44.608 167.136 43.664C167.136 42.696 167.464 41.872 168.12 41.192C168.776 40.512 169.584 40.172 170.544 40.172C171.48 40.172 172.276 40.508 172.932 41.18C173.596 41.852 173.928 42.656 173.928 43.592ZM172.68 43.256C172.648 42.712 172.416 42.252 171.984 41.876C171.56 41.5 171.076 41.312 170.532 41.312C169.988 41.312 169.5 41.5 169.068 41.876C168.644 42.252 168.416 42.712 168.384 43.256H172.68Z" fill="#1F252C"/>
</svg>
