<svg width="392" height="136" viewBox="0 0 392 136" fill="none" xmlns="http://www.w3.org/2000/svg">
<path d="M213.392 59.1875H200.949C200.722 57.5777 200.258 56.1477 199.557 54.8977C198.856 53.6288 197.956 52.5492 196.858 51.6591C195.759 50.7689 194.491 50.0871 193.051 49.6136C191.631 49.1402 190.087 48.9034 188.42 48.9034C185.409 48.9034 182.786 49.6515 180.551 51.1477C178.316 52.625 176.583 54.7841 175.352 57.625C174.121 60.447 173.506 63.875 173.506 67.9091C173.506 72.0568 174.121 75.5417 175.352 78.3636C176.602 81.1856 178.345 83.3163 180.58 84.7557C182.814 86.1951 185.4 86.9148 188.335 86.9148C189.983 86.9148 191.508 86.697 192.909 86.2614C194.33 85.8258 195.589 85.1913 196.688 84.358C197.786 83.5057 198.695 82.4735 199.415 81.2614C200.153 80.0492 200.665 78.6667 200.949 77.1136L213.392 77.1705C213.07 79.8409 212.265 82.4167 210.977 84.8977C209.708 87.3598 207.994 89.5663 205.835 91.517C203.695 93.4489 201.138 94.983 198.165 96.1193C195.21 97.2367 191.867 97.7955 188.136 97.7955C182.947 97.7955 178.307 96.6212 174.216 94.2727C170.144 91.9242 166.924 88.5246 164.557 84.0739C162.208 79.6231 161.034 74.2348 161.034 67.9091C161.034 61.5644 162.227 56.1667 164.614 51.7159C167 47.2652 170.239 43.875 174.33 41.5455C178.42 39.197 183.023 38.0227 188.136 38.0227C191.508 38.0227 194.633 38.4962 197.511 39.4432C200.409 40.3902 202.975 41.7727 205.21 43.5909C207.445 45.3901 209.263 47.5966 210.665 50.2102C212.085 52.8239 212.994 55.8163 213.392 59.1875ZM232.829 97.8239C230.045 97.8239 227.564 97.3409 225.386 96.375C223.208 95.3902 221.484 93.9413 220.215 92.0284C218.965 90.0966 218.34 87.6913 218.34 84.8125C218.34 82.3883 218.785 80.3523 219.676 78.7045C220.566 77.0568 221.778 75.7311 223.312 74.7273C224.846 73.7235 226.588 72.9659 228.539 72.4545C230.509 71.9432 232.573 71.5833 234.732 71.375C237.27 71.1098 239.316 70.8636 240.869 70.6364C242.422 70.3902 243.549 70.0303 244.249 69.5568C244.95 69.0833 245.301 68.3826 245.301 67.4545V67.2841C245.301 65.4848 244.732 64.0928 243.596 63.108C242.479 62.1231 240.888 61.6307 238.823 61.6307C236.645 61.6307 234.912 62.1136 233.624 63.0795C232.337 64.0265 231.484 65.2197 231.068 66.6591L219.874 65.75C220.443 63.0985 221.56 60.8068 223.227 58.875C224.893 56.9242 227.043 55.428 229.676 54.3864C232.327 53.3258 235.395 52.7955 238.88 52.7955C241.304 52.7955 243.624 53.0795 245.84 53.6477C248.075 54.2159 250.054 55.0966 251.778 56.2898C253.52 57.483 254.893 59.017 255.897 60.892C256.901 62.7481 257.403 64.9735 257.403 67.5682V97H245.926V90.9489H245.585C244.884 92.3125 243.946 93.5152 242.772 94.5568C241.598 95.5795 240.187 96.3845 238.539 96.9716C236.891 97.5398 234.988 97.8239 232.829 97.8239ZM236.295 89.4716C238.075 89.4716 239.647 89.1212 241.011 88.4205C242.374 87.7008 243.445 86.7348 244.221 85.5227C244.998 84.3106 245.386 82.9375 245.386 81.4034V76.7727C245.007 77.0189 244.486 77.2462 243.823 77.4545C243.179 77.6439 242.45 77.8239 241.636 77.9943C240.821 78.1458 240.007 78.2879 239.193 78.4205C238.378 78.5341 237.64 78.6383 236.977 78.733C235.556 78.9413 234.316 79.2727 233.255 79.7273C232.195 80.1818 231.371 80.7973 230.784 81.5739C230.196 82.3314 229.903 83.2784 229.903 84.4148C229.903 86.0625 230.499 87.322 231.693 88.1932C232.905 89.0455 234.439 89.4716 236.295 89.4716ZM265.192 97V53.3636H276.925V60.9773H277.38C278.175 58.2689 279.51 56.2235 281.385 54.8409C283.26 53.4394 285.419 52.7386 287.863 52.7386C288.469 52.7386 289.122 52.7765 289.823 52.8523C290.523 52.928 291.139 53.0322 291.669 53.1648V63.9034C291.101 63.733 290.315 63.5814 289.311 63.4489C288.308 63.3163 287.389 63.25 286.556 63.25C284.775 63.25 283.184 63.6383 281.783 64.4148C280.4 65.1723 279.302 66.233 278.488 67.5966C277.692 68.9602 277.294 70.5322 277.294 72.3125V97H265.192ZM313.954 114.273C310.034 114.273 306.672 113.733 303.869 112.653C301.085 111.593 298.869 110.144 297.221 108.307C295.574 106.47 294.504 104.405 294.011 102.114L305.204 100.608C305.545 101.479 306.085 102.294 306.824 103.051C307.562 103.809 308.538 104.415 309.75 104.869C310.981 105.343 312.477 105.58 314.238 105.58C316.871 105.58 319.039 104.936 320.744 103.648C322.468 102.379 323.329 100.248 323.329 97.2557V89.2727H322.818C322.288 90.4848 321.492 91.6307 320.432 92.7102C319.371 93.7898 318.007 94.6705 316.341 95.3523C314.674 96.0341 312.685 96.375 310.375 96.375C307.098 96.375 304.115 95.6174 301.426 94.1023C298.755 92.5682 296.625 90.2292 295.034 87.0852C293.462 83.9223 292.676 79.9261 292.676 75.0966C292.676 70.1534 293.481 66.0246 295.091 62.7102C296.7 59.3958 298.841 56.9148 301.511 55.267C304.2 53.6193 307.146 52.7955 310.346 52.7955C312.789 52.7955 314.835 53.2121 316.483 54.0455C318.13 54.8598 319.456 55.8826 320.46 57.1136C321.483 58.3258 322.269 59.5189 322.818 60.6932H323.272V53.3636H335.289V97.4261C335.289 101.138 334.38 104.244 332.562 106.744C330.744 109.244 328.225 111.119 325.005 112.369C321.805 113.638 318.121 114.273 313.954 114.273ZM314.21 87.2841C316.161 87.2841 317.808 86.8011 319.153 85.8352C320.517 84.8504 321.558 83.4489 322.278 81.6307C323.017 79.7936 323.386 77.5966 323.386 75.0398C323.386 72.483 323.026 70.267 322.307 68.392C321.587 66.4981 320.545 65.0303 319.182 63.9886C317.818 62.947 316.161 62.4261 314.21 62.4261C312.221 62.4261 310.545 62.9659 309.182 64.0455C307.818 65.1061 306.786 66.5833 306.085 68.4773C305.384 70.3712 305.034 72.5587 305.034 75.0398C305.034 77.5587 305.384 79.7367 306.085 81.5739C306.805 83.392 307.837 84.803 309.182 85.8068C310.545 86.7917 312.221 87.2841 314.21 87.2841ZM363.036 97.8523C358.623 97.8523 354.807 96.9148 351.587 95.0398C348.386 93.1458 345.915 90.5133 344.172 87.142C342.43 83.7519 341.559 79.822 341.559 75.3523C341.559 70.8447 342.43 66.9053 344.172 63.5341C345.915 60.1439 348.386 57.5114 351.587 55.6364C354.807 53.7424 358.623 52.7955 363.036 52.7955C367.449 52.7955 371.256 53.7424 374.457 55.6364C377.676 57.5114 380.157 60.1439 381.9 63.5341C383.642 66.9053 384.513 70.8447 384.513 75.3523C384.513 79.822 383.642 83.7519 381.9 87.142C380.157 90.5133 377.676 93.1458 374.457 95.0398C371.256 96.9148 367.449 97.8523 363.036 97.8523ZM363.093 88.4773C365.1 88.4773 366.777 87.9091 368.121 86.7727C369.466 85.6174 370.479 84.0455 371.161 82.0568C371.862 80.0682 372.212 77.8049 372.212 75.267C372.212 72.7292 371.862 70.4659 371.161 68.4773C370.479 66.4886 369.466 64.9167 368.121 63.7614C366.777 62.6061 365.1 62.0284 363.093 62.0284C361.066 62.0284 359.362 62.6061 357.979 63.7614C356.616 64.9167 355.583 66.4886 354.883 68.4773C354.201 70.4659 353.86 72.7292 353.86 75.267C353.86 77.8049 354.201 80.0682 354.883 82.0568C355.583 84.0455 356.616 85.6174 357.979 86.7727C359.362 87.9091 361.066 88.4773 363.093 88.4773Z" fill="#00182A"/>
<path fill-rule="evenodd" clip-rule="evenodd" d="M89.0316 58.297V71.8399C89.0316 71.9634 88.974 72.0603 88.915 72.1596C88.8775 72.2228 88.8394 72.287 88.8152 72.3596C88.7978 72.4286 88.7944 72.4988 88.7911 72.5685C88.7855 72.6858 88.78 72.8018 88.7076 72.9091L85.5555 77.6461H118.064C118.193 77.6461 118.292 77.7051 118.393 77.7649C118.456 77.8023 118.519 77.84 118.591 77.8639C118.664 77.8847 118.738 77.888 118.811 77.8913C118.925 77.8963 119.037 77.9013 119.141 77.9714C119.174 77.9924 119.187 78.0246 119.201 78.0571C119.212 78.085 119.224 78.1132 119.248 78.1348C119.408 78.2631 119.49 78.4208 119.578 78.5929C119.602 78.638 119.626 78.6841 119.651 78.7309C119.676 78.7786 119.702 78.8245 119.727 78.8698C119.821 79.0372 119.91 79.1948 119.922 79.3958C119.926 79.4283 119.943 79.4541 119.96 79.4801C119.98 79.5102 120 79.5408 120 79.5825L119.999 110.549C119.999 110.674 119.939 110.776 119.879 110.877C119.842 110.939 119.806 111.001 119.783 111.068C119.765 111.137 119.762 111.208 119.759 111.279C119.753 111.399 119.747 111.518 119.674 111.625L104.19 134.851C104.165 134.887 104.131 134.913 104.095 134.94C104.063 134.964 104.03 134.988 104.004 135.022C103.934 135.098 103.872 135.145 103.788 135.207C103.439 135.509 103.028 135.71 102.58 135.71H9.67774C8.6085 135.71 7.74142 134.843 7.74142 133.775V102.808C7.74142 102.686 7.80067 102.588 7.85969 102.489C7.89865 102.424 7.93752 102.359 7.95916 102.288C7.98101 102.214 7.98532 102.137 7.98961 102.061C7.996 101.947 8.00234 101.833 8.06674 101.731L11.2252 97.0016H1.93502C0.867077 97.0016 0 96.1346 0 95.0653V64.0983C0 63.9741 0.0579252 63.8769 0.116004 63.7795C0.155443 63.7133 0.194952 63.6471 0.216444 63.5721C0.238155 63.4977 0.242546 63.4222 0.246888 63.3476C0.253432 63.2352 0.259862 63.1247 0.325308 63.0226L5.35796 55.4743C5.89195 54.6759 6.89768 54.5062 7.74143 54.8859V25.3888C7.74143 25.264 7.79979 25.1666 7.85836 25.0689C7.89777 25.0031 7.93728 24.9371 7.95917 24.8626C7.981 24.7883 7.98532 24.7125 7.98961 24.6374C7.996 24.5253 8.00231 24.4148 8.06675 24.3131L23.5509 1.08748C23.5716 1.05445 23.6054 1.04114 23.6393 1.02778C23.6693 1.01599 23.6994 1.00414 23.7207 0.978612C23.8433 0.82025 24.0038 0.738401 24.1761 0.650523C24.2223 0.62693 24.2694 0.602902 24.3169 0.576843C24.3545 0.556115 24.3909 0.535207 24.4268 0.514647C24.6061 0.411791 24.7703 0.317633 24.9831 0.29819C25.0165 0.294478 25.0428 0.278363 25.0686 0.262532C25.097 0.245196 25.1247 0.2282 25.1606 0.2282L111.075 0.00398013C111.08 0.00398013 111.085 0.00422065 111.089 0.00467367L112.264 1.76437e-05C113.505 -0.00489807 114.504 1.01801 114.469 2.25832L113.594 33.5685C113.582 33.9948 113.446 34.4085 113.203 34.759L97.8638 56.8795C97.2481 57.7674 96.2363 58.297 95.1558 58.297H89.0316ZM106.237 4.09935H26.1986L13.2934 23.4536H93.9191L104.659 6.63083L106.237 4.09935ZM63.7541 58.297H73.1533L70.5745 62.1644H5.54958L8.46185 57.7902C8.8027 58.0689 9.2045 58.2931 9.67758 58.2931H63.7467C63.75 58.2931 63.753 58.2926 63.7557 58.2917L63.7541 58.297ZM71.7324 96.9822C71.7168 96.9919 71.7013 97.0016 71.6818 97.0016L15.8775 97.0017L13.2919 100.872H101.542L114.449 81.5175H83.1716C83.139 81.5175 83.115 81.5004 83.0905 81.483C83.0683 81.4673 83.0457 81.4512 83.0161 81.4475L73.2229 96.1424C73.2092 96.1605 73.1903 96.1729 73.1723 96.1848C73.1594 96.1932 73.147 96.2013 73.1373 96.2111C73.0297 96.3588 72.9131 96.4443 72.7654 96.5441C72.4725 96.7839 72.1471 96.9239 71.7829 96.9628C71.7635 96.9628 71.7479 96.9725 71.7324 96.9822Z" fill="#00182A"/>
</svg>
