<svg width="128" height="128" viewBox="0 0 128 128" fill="none" xmlns="http://www.w3.org/2000/svg">
    <rect width="128" height="128" rx="16" fill="url(#paint0_linear_151_344)" />
    <path fill-rule="evenodd" clip-rule="evenodd"
        d="M42.0632 128C42.5257 124.382 43.0911 119.022 43 115C42.9601 113.237 42.7892 111.421 42.6128 109.546C42.2585 105.779 41.882 101.775 42.5 97.5C43.3665 91.506 47 87 47 87L32 77C32 77 27.9138 74.5942 27.5 72C27.2251 70.2764 27.9822 69.1642 28.8451 67.8964C29.2371 67.3204 29.6511 66.7122 30 66C32.5971 60.6987 38.5 53.5 38.5 53.5C38.5 53.5 39.737 46.9275 42.5 44C42.5475 43.9496 42.5944 43.8999 42.6407 43.8508C43.8998 42.5151 44.7276 41.637 46.5 41C47.6177 40.5983 49.5 40.5 49.5 40.5V35.5L53 26.5L56 14.5C56 14.5 58 9.00001 62 8C66 6.99999 68.5 8.49999 71.5 11C74.5 13.5 75.5 15 76 16.5C76 16.5 77.0349 19.8442 76 21.5C75.7733 21.8628 75.5061 22.069 75.236 22.2775C74.983 22.4729 74.7275 22.6702 74.5 23C74.0746 23.6169 74.0547 24.0259 74.0292 24.5511C74.0224 24.6905 74.0153 24.8381 74 25C73.9839 25.1704 73.9818 25.3707 73.9796 25.5847C73.9747 26.0467 73.9692 26.5726 73.8209 27C73.3975 28.2199 73.1355 28.6666 72.5 29.5C71.7166 30.5274 71 31.5 70 33C69.856 33.216 69.5988 34.5054 69.5176 34.9122C69.5102 34.9493 69.5043 34.9791 69.5 35V35.0217C69.5 36.0006 69.5 36.0476 70 37C70.5893 38.1224 71.4798 38.4462 72.6143 38.8586C72.7399 38.9042 72.8685 38.951 73 39C74.1182 39.417 75.3316 39.2162 76.3893 39.0412C77.2352 38.9013 77.9816 38.7778 78.5 39C79.6667 39.5 82.5 41.6 84.5 46C86.5 50.4 92 58.1667 94.5 61.5C96.3333 63.3333 99.7 67.5 98.5 69.5C97.3 71.5 89.3333 79.3333 85.5 83C85.5 83 86 84.5 83 86.5C80 88.5 79.5 89 79.5 89L81 94C81 94 83.1414 99.787 84.5 103.5C85.3569 105.842 86.1393 107.824 86.877 109.694C88.3501 113.426 89.6451 116.708 91 121.5C91.571 123.52 92.2473 126.305 92.649 128H77.9188C76.178 124.76 72.7244 118.248 70.5 113.5C68.8682 110.017 66.5 104.5 66.5 104.5L62 101.5C62 101.5 60.0598 111.998 58 118.5C57.0631 121.457 55.5686 125.27 54.4572 128H42.0632ZM77.5 73L78 80.5L80.5 78.5L82.5 79C82.5 79 85.0378 76.3413 86.5 74.5C88.6891 71.7433 91.5 67 91.5 67C91.5 67 88.655 64.3541 87 62.5C84.8673 60.1109 82 56 82 56C82 56 81.6483 57.6721 81 58.5C80.3981 59.2687 79 60 79 60C79 60 79.177 63.3594 79 65.5C78.7538 68.4768 77.5 73 77.5 73ZM49 81.5C49 81.5 43.7634 78.5956 41 76C38.7768 73.9118 36 70 36 70C36 70 39.5862 63.6338 42.5 60C44.3159 57.7354 47.5 54.5 47.5 54.5C47.5 54.5 46.9364 59.264 48 62C48.7653 63.9686 51 66.5 51 66.5L50 61L54 67C54 67 52.4256 63.4141 52.5 61C52.5366 59.8128 53 58 53 58L56 65L58.5 70.5C58.5 70.5 57.7777 73.0241 57 74.5C55.8343 76.7122 53 79.5 53 79.5H51.5L49 81.5Z"
        fill="url(#paint1_linear_151_344)" />
    <defs>
        <linearGradient id="paint0_linear_151_344" x1="64" y1="0" x2="64" y2="128" gradientUnits="userSpaceOnUse">
            <stop stop-color="#B85887" />
            <stop offset="0.180864" stop-color="#FA516C" />
            <stop offset="1" stop-color="#FDB365" />
        </linearGradient>
        <linearGradient id="paint1_linear_151_344" x1="63.0976" y1="7.68677" x2="63.0976" y2="132"
            gradientUnits="userSpaceOnUse">
            <stop stop-color="#49007C" />
            <stop offset="0.375566" stop-color="#3C0B49" />
            <stop offset="1" stop-color="#0B5D69" />
        </linearGradient>
    </defs>
</svg>