<?xml version="1.0" encoding="utf-8"?>
<!-- Generator: Adobe Illustrator 25.2.3, SVG Export Plug-In . SVG Version: 6.00 Build 0)  -->
<svg version="1.1" id="Layer_1" xmlns="http://www.w3.org/2000/svg" xmlns:xlink="http://www.w3.org/1999/xlink" x="0px" y="0px"
	 viewBox="0 0 554 113.8" style="enable-background:new 0 0 554 113.8;" xml:space="preserve">
<style type="text/css">
	.st0{fill:url(#SVGID_1_);}
	.st1{fill:url(#SVGID_2_);}
	.st2{fill:url(#SVGID_3_);}
	.st3{fill:url(#SVGID_4_);}
	.st4{fill:#FFFFFF;}
</style>
<linearGradient id="SVGID_1_" gradientUnits="userSpaceOnUse" x1="0.9932" y1="777.9141" x2="104.1832" y2="836.1541" gradientTransform="matrix(1 0 0 1 0 -728.0898)">
	<stop  offset="0" style="stop-color:#91F24A"/>
	<stop  offset="0.64" style="stop-color:#2BC7D4"/>
	<stop  offset="0.72" style="stop-color:#2AC3D3"/>
	<stop  offset="0.8" style="stop-color:#28B7D0"/>
	<stop  offset="0.88" style="stop-color:#25A3CB"/>
	<stop  offset="0.96" style="stop-color:#2088C4"/>
	<stop  offset="1" style="stop-color:#1D75BF"/>
</linearGradient>
<circle class="st0" cx="13.5" cy="56.9" r="13.5"/>
<linearGradient id="SVGID_2_" gradientUnits="userSpaceOnUse" x1="31.4698" y1="723.9202" x2="134.6598" y2="782.1602" gradientTransform="matrix(1 0 0 1 0 -728.0898)">
	<stop  offset="0" style="stop-color:#91F24A"/>
	<stop  offset="0.64" style="stop-color:#2BC7D4"/>
	<stop  offset="0.72" style="stop-color:#2AC3D3"/>
	<stop  offset="0.8" style="stop-color:#28B7D0"/>
	<stop  offset="0.88" style="stop-color:#25A3CB"/>
	<stop  offset="0.96" style="stop-color:#2088C4"/>
	<stop  offset="1" style="stop-color:#1D75BF"/>
</linearGradient>
<path class="st1" d="M88.3,0c-2.5,0-5,0.7-7.2,2.1L81,2.1c-0.6,0.5-1.1,0.9-1.7,1.3c-9.8,6.9-23,6.9-32.8,0c-0.5-0.3-0.9-0.7-1.4-1
	c-0.1-0.1-0.2-0.2-0.3-0.3c-6.3-4-14.7-2.2-18.7,4.1s-2.2,14.7,4.1,18.7c4.3,2.8,9.8,2.9,14.2,0.3c0.3-0.2,0.5-0.5,0.8-0.7
	c0.6-0.5,1.2-1,1.9-1.4c9.6-6.5,22.2-6.5,31.8,0c0.8,0.5,1.6,1.1,2.3,1.8l0.3,0.3c6.4,3.8,14.7,1.6,18.5-4.8
	c3.8-6.4,1.6-14.7-4.8-18.5C93.1,0.6,90.7,0,88.3,0L88.3,0z"/>
<linearGradient id="SVGID_3_" gradientUnits="userSpaceOnUse" x1="-5.6653" y1="789.7216" x2="97.5147" y2="847.9615" gradientTransform="matrix(1 0 0 1 0 -728.0898)">
	<stop  offset="0" style="stop-color:#91F24A"/>
	<stop  offset="0.64" style="stop-color:#2BC7D4"/>
	<stop  offset="0.72" style="stop-color:#2AC3D3"/>
	<stop  offset="0.8" style="stop-color:#28B7D0"/>
	<stop  offset="0.88" style="stop-color:#25A3CB"/>
	<stop  offset="0.96" style="stop-color:#2088C4"/>
	<stop  offset="1" style="stop-color:#1D75BF"/>
</linearGradient>
<path class="st2" d="M88.3,86.7c-2.5,0-5,0.7-7.2,2.1L81,88.9c-0.6,0.5-1.1,0.9-1.7,1.3c-9.8,6.9-23,6.9-32.8,0
	c-0.5-0.3-0.9-0.7-1.4-1l-0.4-0.3c-6.3-4.1-14.6-2.3-18.7,4s-2.3,14.7,4,18.7c4.3,2.8,9.8,2.9,14.2,0.3l0.8-0.7
	c0.6-0.5,1.2-1,1.9-1.4c9.6-6.5,22.2-6.4,31.8,0.1c0.8,0.6,1.6,1.1,2.3,1.8l0.3,0.3c6.4,3.8,14.7,1.6,18.5-4.8
	c3.8-6.4,1.6-14.7-4.8-18.5C93,87.4,90.6,86.8,88.3,86.7L88.3,86.7L88.3,86.7z"/>
<linearGradient id="SVGID_4_" gradientUnits="userSpaceOnUse" x1="19.4911" y1="745.1478" x2="122.6811" y2="803.3978" gradientTransform="matrix(1 0 0 1 0 -728.0898)">
	<stop  offset="0" style="stop-color:#91F24A"/>
	<stop  offset="0.64" style="stop-color:#2BC7D4"/>
	<stop  offset="0.72" style="stop-color:#2AC3D3"/>
	<stop  offset="0.8" style="stop-color:#28B7D0"/>
	<stop  offset="0.88" style="stop-color:#25A3CB"/>
	<stop  offset="0.96" style="stop-color:#2088C4"/>
	<stop  offset="1" style="stop-color:#1D75BF"/>
</linearGradient>
<path class="st3" d="M115.5,43.4c-2.5,0-5,0.7-7.2,2.1l-0.1,0.1c-0.6,0.5-1.1,0.9-1.7,1.3c-9.8,6.9-22.9,6.9-32.8,0
	c-0.5-0.3-0.9-0.7-1.4-1l-0.3-0.3c-6.3-4.1-14.7-2.3-18.7,4s-2.3,14.7,4,18.7c4.3,2.8,9.8,2.9,14.2,0.3l0.8-0.7
	c0.6-0.5,1.2-1,1.9-1.4c9.6-6.5,22.2-6.5,31.8,0c0.8,0.6,1.6,1.2,2.3,1.8l0.3,0.3c6.4,3.8,14.7,1.6,18.5-4.8s1.6-14.7-4.8-18.5
	C120.2,44,117.9,43.3,115.5,43.4L115.5,43.4L115.5,43.4z"/>
<g>
	<path class="st4" d="M214.9,71.6c0.3,0,0.7,0.1,1,0.2c0.3,0.1,0.6,0.3,1,0.6l5.6,5.9c-2.4,3.2-5.5,5.6-9.2,7.2s-8,2.4-13,2.4
		c-4.6,0-8.7-0.8-12.4-2.3s-6.7-3.7-9.3-6.5c-2.5-2.8-4.5-6-5.8-9.8s-2-7.9-2-12.3s0.7-8.7,2.2-12.5c1.5-3.8,3.5-7,6.2-9.8
		s5.9-4.9,9.6-6.4c3.7-1.5,7.8-2.3,12.3-2.3c2.3,0,4.4,0.2,6.4,0.6s3.9,1,5.6,1.7c1.8,0.7,3.4,1.6,4.8,2.6s2.8,2.1,3.9,3.2l-4.7,6.4
		c-0.3,0.4-0.7,0.7-1.1,1.1c-0.4,0.3-1,0.5-1.8,0.5c-0.5,0-1-0.1-1.4-0.3s-0.9-0.5-1.4-0.8s-1.1-0.7-1.6-1c-0.6-0.4-1.3-0.7-2.1-1
		c-0.8-0.3-1.8-0.6-2.9-0.8c-1.1-0.2-2.4-0.3-3.8-0.3c-2.3,0-4.4,0.4-6.4,1.3c-1.9,0.9-3.6,2.1-5,3.8c-1.4,1.7-2.5,3.7-3.2,6.1
		c-0.8,2.4-1.1,5.1-1.1,8.2s0.4,5.9,1.3,8.3c0.8,2.4,2,4.4,3.4,6.1c1.4,1.7,3.1,2.9,5.1,3.8s4,1.3,6.2,1.3c1.3,0,2.4-0.1,3.5-0.2
		c1.1-0.1,2-0.3,2.9-0.6s1.8-0.7,2.6-1.2c0.8-0.5,1.6-1.1,2.4-1.8c0.3-0.3,0.7-0.5,1.1-0.7C214.1,71.7,214.4,71.6,214.9,71.6
		L214.9,71.6z"/>
	<path class="st4" d="M239.1,50.9c1.3-2.3,2.9-4.2,4.6-5.5c1.7-1.3,3.7-2,6-2c1.9,0,3.5,0.5,4.7,1.4l-0.8,9.5
		c-0.1,0.6-0.4,1-0.7,1.2s-0.8,0.3-1.3,0.3c-0.2,0-0.5,0-0.9,0c-0.4,0-0.7-0.1-1.1-0.1c-0.4,0-0.8-0.1-1.2-0.1
		c-0.4,0-0.8-0.1-1.1-0.1c-1.9,0-3.4,0.5-4.5,1.5s-2.1,2.4-2.9,4.2v26.2H227V44.2h7.6c0.6,0,1.2,0.1,1.6,0.2
		c0.4,0.1,0.8,0.3,1.1,0.5c0.3,0.2,0.5,0.5,0.7,0.9c0.1,0.4,0.3,0.9,0.4,1.4L239.1,50.9L239.1,50.9z"/>
	<path class="st4" d="M268.6,68.1c0.4,3.6,1.5,6.2,3.3,7.8s4.1,2.4,6.9,2.4c1.5,0,2.8-0.2,3.9-0.5s2-0.8,2.9-1.2
		c0.8-0.4,1.6-0.8,2.3-1.2c0.7-0.4,1.5-0.5,2.2-0.5c1,0,1.8,0.4,2.3,1.1l3.7,4.6c-1.3,1.5-2.8,2.8-4.3,3.7s-3.1,1.7-4.7,2.2
		s-3.2,0.9-4.9,1.1s-3.2,0.3-4.6,0.3c-3,0-5.9-0.5-8.5-1.5c-2.6-1-5-2.4-6.9-4.4c-2-1.9-3.5-4.3-4.7-7.2c-1.1-2.9-1.7-6.2-1.7-10.1
		c0-2.9,0.5-5.6,1.5-8.2c1-2.6,2.4-4.8,4.2-6.8c1.8-1.9,4.1-3.5,6.7-4.6c2.6-1.1,5.6-1.7,8.9-1.7c2.9,0,5.5,0.4,7.8,1.3
		c2.4,0.9,4.4,2.2,6.1,3.9c1.7,1.7,3,3.8,4,6.2s1.4,5.2,1.4,8.3c0,1,0,1.8-0.1,2.4s-0.2,1.1-0.5,1.5c-0.2,0.4-0.5,0.6-0.9,0.8
		S294,68,293.4,68L268.6,68.1L268.6,68.1z M284.8,60.6c0-1-0.1-2-0.4-3s-0.7-1.8-1.3-2.6c-0.6-0.8-1.4-1.4-2.4-1.8
		c-1-0.5-2.1-0.7-3.5-0.7c-2.4,0-4.4,0.7-5.7,2.1c-1.4,1.4-2.3,3.4-2.7,6H284.8L284.8,60.6z"/>
	<path class="st4" d="M301.8,50.2c2.6-2.3,5.5-4,8.7-5.1c3.2-1.1,6.6-1.7,10.2-1.7c2.6,0,5,0.4,7,1.3c2.1,0.8,3.9,2,5.3,3.5
		s2.6,3.3,3.4,5.4c0.8,2.1,1.2,4.3,1.2,6.8v26.9h-5.9c-1.2,0-2.1-0.2-2.8-0.5s-1.1-1-1.6-2.1l-0.9-2.4c-1.1,0.9-2.1,1.7-3.1,2.4
		s-2,1.3-3.1,1.8c-1.1,0.5-2.2,0.8-3.4,1.1c-1.2,0.2-2.5,0.3-4,0.3c-2,0-3.8-0.3-5.4-0.8c-1.6-0.5-3-1.3-4.1-2.3s-2-2.2-2.6-3.7
		c-0.6-1.5-0.9-3.2-0.9-5.1c0-1.6,0.4-3.1,1.2-4.7c0.8-1.6,2.1-3.1,4-4.4c1.9-1.3,4.5-2.4,7.7-3.3c3.2-0.9,7.3-1.4,12.3-1.5v-1.8
		c0-2.5-0.5-4.3-1.6-5.5s-2.5-1.7-4.4-1.7c-1.5,0-2.8,0.2-3.7,0.5s-1.8,0.7-2.6,1.1c-0.8,0.4-1.5,0.8-2.2,1.1
		c-0.7,0.3-1.6,0.5-2.6,0.5c-0.9,0-1.6-0.2-2.2-0.7c-0.6-0.4-1.1-1-1.5-1.6L301.8,50.2L301.8,50.2z M325,69.8
		c-2.6,0.1-4.7,0.3-6.4,0.7c-1.7,0.3-3,0.8-4,1.2s-1.6,1.1-2,1.7c-0.4,0.6-0.6,1.3-0.6,2.1c0,1.5,0.4,2.5,1.2,3.1
		c0.8,0.6,2,0.9,3.5,0.9c1.7,0,3.1-0.3,4.4-0.9c1.2-0.6,2.5-1.5,3.8-2.8L325,69.8L325,69.8z"/>
	<path class="st4" d="M360.3,32.4c0,1-0.2,2-0.6,2.9c-0.4,0.9-1,1.7-1.7,2.4s-1.6,1.2-2.5,1.6c-1,0.4-2,0.6-3,0.6s-2-0.2-3-0.6
		c-0.9-0.4-1.7-0.9-2.4-1.6s-1.3-1.5-1.7-2.4c-0.4-0.9-0.6-1.9-0.6-2.9s0.2-2,0.6-3s1-1.7,1.7-2.4c0.7-0.7,1.5-1.2,2.4-1.6
		c0.9-0.4,1.9-0.6,3-0.6s2.1,0.2,3,0.6c1,0.4,1.8,0.9,2.5,1.6s1.3,1.5,1.7,2.4C360.1,30.4,360.3,31.4,360.3,32.4z M359,44.2v43.1
		h-12.9V44.2H359z"/>
	<path class="st4" d="M383.4,88c-2,0-3.9-0.3-5.4-0.9s-2.9-1.4-4-2.5c-1.1-1.1-1.9-2.4-2.4-4s-0.8-3.3-0.8-5.2V53.1h-3.7
		c-0.7,0-1.2-0.2-1.7-0.6s-0.7-1.1-0.7-1.9v-5l6.9-1.3l2.5-10.5c0.3-1.3,1.3-2,2.8-2h6.7v12.6h10.7v8.8h-10.7v21.4
		c0,1,0.2,1.8,0.7,2.5c0.5,0.7,1.2,1,2.1,1c0.5,0,0.9-0.1,1.2-0.2c0.3-0.1,0.6-0.2,0.8-0.3c0.2-0.1,0.5-0.2,0.7-0.3
		c0.2-0.1,0.5-0.1,0.7-0.1c0.4,0,0.7,0.1,0.9,0.3c0.2,0.2,0.5,0.5,0.7,0.8l3.9,6.1c-1.7,1.2-3.5,2.2-5.6,2.8S385.7,88,383.4,88
		L383.4,88z"/>
	<path class="st4" d="M419.4,43.5c3.3,0,6.2,0.5,8.9,1.5c2.7,1,5,2.5,6.9,4.4c1.9,1.9,3.4,4.2,4.5,7c1.1,2.7,1.6,5.8,1.6,9.2
		c0,3.4-0.5,6.5-1.6,9.3s-2.6,5.1-4.5,7c-1.9,1.9-4.2,3.4-6.9,4.4s-5.7,1.6-8.9,1.6s-6.3-0.5-9-1.6s-5-2.5-7-4.4s-3.5-4.3-4.5-7
		c-1.1-2.8-1.6-5.8-1.6-9.3s0.5-6.5,1.6-9.2s2.6-5,4.5-7s4.3-3.4,7-4.4C413.1,44.1,416.1,43.5,419.4,43.5z M419.4,78.4
		c3,0,5.1-1,6.5-3.1c1.4-2.1,2.1-5.3,2.1-9.5s-0.7-7.4-2.1-9.5c-1.4-2.1-3.6-3.1-6.5-3.1s-5.3,1-6.7,3.1s-2.1,5.2-2.1,9.5
		s0.7,7.4,2.1,9.5S416.3,78.4,419.4,78.4z"/>
</g>
<g>
	<path class="st4" d="M460.2,50.9c1.3-2.3,2.9-4.2,4.6-5.5c1.7-1.3,3.7-2,6-2c1.9,0,3.5,0.5,4.7,1.4l-0.8,9.5
		c-0.1,0.6-0.4,1-0.7,1.2s-0.8,0.3-1.3,0.3c-0.2,0-0.5,0-0.9,0c-0.4,0-0.7-0.1-1.1-0.1c-0.4,0-0.8-0.1-1.2-0.1
		c-0.4,0-0.8-0.1-1.1-0.1c-1.9,0-3.4,0.5-4.5,1.5s-2.1,2.4-2.9,4.2v26.2h-12.9V44.2h7.6c0.6,0,1.2,0.1,1.6,0.2
		c0.4,0.1,0.8,0.3,1.1,0.5c0.3,0.2,0.5,0.5,0.7,0.9c0.1,0.4,0.3,0.9,0.4,1.4L460.2,50.9L460.2,50.9z"/>
</g>
<g>
	<path class="st4" d="M474.9,80.8c0-1,0.2-1.9,0.6-2.8s0.9-1.6,1.5-2.2c0.6-0.6,1.4-1.1,2.3-1.5c0.9-0.4,1.9-0.6,2.9-0.6
		s2,0.2,2.9,0.6c0.9,0.4,1.7,0.9,2.3,1.5c0.7,0.6,1.2,1.4,1.6,2.2c0.4,0.9,0.6,1.8,0.6,2.8s-0.2,1.9-0.6,2.8s-0.9,1.6-1.6,2.3
		s-1.4,1.1-2.3,1.5c-0.9,0.4-1.8,0.5-2.9,0.5s-2-0.2-2.9-0.5s-1.7-0.9-2.3-1.5s-1.2-1.4-1.5-2.3C475.1,82.7,474.9,81.8,474.9,80.8z"
		/>
	<path class="st4" d="M495.5,50.2c2.6-2.3,5.5-4,8.7-5.1c3.2-1.1,6.6-1.7,10.2-1.7c2.6,0,5,0.4,7,1.3c2.1,0.8,3.9,2,5.3,3.5
		s2.6,3.3,3.3,5.4c0.8,2.1,1.2,4.3,1.2,6.8v26.9h-5.9c-1.2,0-2.1-0.2-2.8-0.5s-1.1-1-1.6-2.1l-0.9-2.4c-1.1,0.9-2.1,1.7-3.1,2.4
		s-2,1.3-3.1,1.8c-1.1,0.5-2.2,0.8-3.4,1.1s-2.5,0.3-4,0.3c-2,0-3.8-0.3-5.4-0.8c-1.6-0.5-3-1.3-4.1-2.3s-2-2.2-2.6-3.7
		s-0.9-3.2-0.9-5.1c0-1.6,0.4-3.1,1.2-4.7c0.8-1.6,2.1-3.1,4-4.4c1.9-1.3,4.5-2.4,7.7-3.3c3.2-0.9,7.3-1.4,12.3-1.5v-1.8
		c0-2.5-0.5-4.3-1.6-5.5s-2.5-1.7-4.4-1.7c-1.5,0-2.8,0.2-3.7,0.5s-1.8,0.7-2.6,1.1c-0.8,0.4-1.5,0.8-2.2,1.1
		c-0.7,0.3-1.6,0.5-2.6,0.5c-0.9,0-1.6-0.2-2.2-0.7s-1.1-1-1.5-1.6L495.5,50.2L495.5,50.2z M518.7,69.8c-2.6,0.1-4.7,0.3-6.4,0.7
		s-3,0.8-4,1.2s-1.6,1.1-2,1.7c-0.4,0.6-0.6,1.3-0.6,2.1c0,1.5,0.4,2.5,1.2,3.1c0.8,0.6,2,0.9,3.5,0.9c1.7,0,3.1-0.3,4.4-0.9
		c1.2-0.6,2.5-1.5,3.8-2.8L518.7,69.8L518.7,69.8z"/>
	<path class="st4" d="M554,32.4c0,1-0.2,2-0.6,2.9c-0.4,0.9-1,1.7-1.7,2.4c-0.7,0.7-1.6,1.2-2.5,1.6c-1,0.4-2,0.6-3,0.6
		s-2-0.2-3-0.6c-0.9-0.4-1.7-0.9-2.4-1.6s-1.3-1.5-1.7-2.4c-0.4-0.9-0.6-1.9-0.6-2.9s0.2-2,0.6-3s1-1.7,1.7-2.4
		c0.7-0.7,1.5-1.2,2.4-1.6c0.9-0.4,1.9-0.6,3-0.6s2.1,0.2,3,0.6c1,0.4,1.8,0.9,2.5,1.6c0.7,0.7,1.3,1.5,1.7,2.4
		C553.8,30.4,554,31.4,554,32.4z M552.7,44.2v43.1h-12.9V44.2H552.7z"/>
</g>
</svg>
