<?xml version="1.0" encoding="utf-8"?>
<!-- Generator: Adobe Illustrator 24.1.0, SVG Export Plug-In . SVG Version: 6.00 Build 0)  -->
<svg version="1.1" id="Layer_1" xmlns="http://www.w3.org/2000/svg" xmlns:xlink="http://www.w3.org/1999/xlink" x="0px" y="0px"
	 viewBox="0 0 167.465 42.7787" style="enable-background:new 0 0 167.465 42.7787;" xml:space="preserve">
<style type="text/css">
	.st0{fill-rule:evenodd;clip-rule:evenodd;fill:#06233D;}
	.st1{fill:#06233D;}
</style>
<g>
	<path class="st0" d="M30.9059,34.6864c0.1681,0.22,0.2514,0.5606,0.2514,1.0197v5.0134c0,0.7713-0.4091,1.1573-1.2248,1.1573
		H2.3814c-0.3347,0-0.6215-0.0922-0.8635-0.2757c-0.2405-0.184-0.3613-0.4771-0.3613-0.8816V2.2893
		c0-0.8801,0.408-1.3206,1.2248-1.3206h26.8277c0.482,0,0.825,0.1324,1.0291,0.3998c0.2045,0.2654,0.3066,0.6007,0.3066,1.0048
		v4.8475c0,0.3314-0.1166,0.624-0.3482,0.8821c-0.2316,0.2571-0.5799,0.3854-1.0437,0.3854H9.3662v8.375h15.2502
		c0.3711-0.0361,0.6683,0.0412,0.8906,0.2339c0.2228,0.1933,0.3347,0.5189,0.3347,0.979v4.9851c0,0.3303-0.0931,0.624-0.279,0.8816
		c-0.1853,0.2576-0.4815,0.3854-0.8906,0.3854H9.3662V34.357h20.5106C30.3958,34.3571,30.7394,34.4663,30.9059,34.6864z"/>
	<path class="st0" d="M74.5969,26.8494c-0.241-0.928-0.5793-1.8096-1.0145-2.6448c-0.4367-0.8352-0.9614-1.6163-1.5735-2.3413
		c-0.6121-0.726-1.2799-1.3731-2.0034-1.942c0.9275-0.9543,1.6459-2.0801,2.157-3.3754c0.5101-1.2939,0.7657-2.6855,0.7657-4.173
		c0-1.6158-0.3029-3.1167-0.9051-4.5033c-0.6027-1.387-1.433-2.5902-2.4907-3.6098c-1.0572-1.0192-2.2956-1.8225-3.715-2.4088
		c-1.4189-0.5889-2.9357-0.8821-4.5499-0.8821H44.7362c-0.4825,0-0.8583,0.1422-1.1264,0.4261
		c-0.2691,0.2855-0.4035,0.6667-0.4035,1.1439v37.8768c0,0.4781,0.1432,0.8419,0.431,1.0887
		c0.2874,0.2473,0.6538,0.3726,1.0988,0.3726h18.2844c1.6516,0,3.2043-0.3318,4.6612-0.9924
		c1.4559-0.6605,2.7224-1.5468,3.7987-2.6577c1.0759-1.1114,1.9249-2.4057,2.5464-3.8844c0.6225-1.4782,0.9323-3.0343,0.9323-4.6687
		C74.9593,28.7182,74.8379,27.7763,74.5969,26.8494z M51.4437,8.1028h8.3206c1.4652,0,2.6531,0.3942,3.5619,1.1851
		c0.9089,0.7889,1.3638,1.8642,1.3638,3.2225c0,0.6991-0.1208,1.3499-0.3618,1.9553c-0.241,0.6065-0.5846,1.1351-1.0296,1.5849
		c-0.4455,0.4493-0.9739,0.8033-1.586,1.0609c-0.6127,0.2566-1.2805,0.386-2.0035,0.386h-8.2653
		C51.4437,17.4975,51.4437,8.1028,51.4437,8.1028z M66.1515,31.5052c-0.2691,0.6322-0.6402,1.1882-1.1129,1.6658
		c-0.4747,0.4792-1.0218,0.86-1.6433,1.1439c-0.6215,0.2849-1.2841,0.4251-1.9889,0.4251h-9.9627V23.9984h9.9628
		c0.7235,0,1.3956,0.1556,2.0181,0.4673c0.6204,0.3138,1.1638,0.726,1.6271,1.2402c0.4638,0.5152,0.8308,1.1026,1.0998,1.7632
		c0.2691,0.66,0.4029,1.3319,0.4029,2.0111C66.5544,30.1965,66.4206,30.8725,66.1515,31.5052z"/>
	<path class="st0" d="M93.1238,1.2989c-0.3159-0.221-0.6121-0.3303-0.8906-0.3303h-5.6222c-0.4065,0-0.7137,0.1191-0.9166,0.3576
		c-0.2051,0.2391-0.3061,0.5245-0.3061,0.8543v38.4843c0,0.8079,0.408,1.2119,1.2227,1.2119h5.6222
		c0.9093,0,1.3643-0.4039,1.3643-1.2119V2.1805C93.5975,1.8127,93.4393,1.5185,93.1238,1.2989z"/>
	<path class="st1" d="M146.9376,33.8311c-0.3974,0-0.7737,0.0755-1.1362,0.1827L131.4442,3.7375
		c-0.8218-1.7337-2.3543-2.7689-4.0979-2.7694c0,0,0,0-0.001,0c-1.7435,0-3.2751,1.0347-4.0979,2.7675L108.876,34.014
		c-0.3628-0.1075-0.7393-0.1829-1.137-0.1829c-2.2217,0-4.0228,1.8011-4.0228,4.0229c0,2.2217,1.8011,4.0228,4.0228,4.0228
		c2.2217,0,4.0228-1.8011,4.0228-4.0228c0-1.3093-0.6351-2.4608-1.6034-3.1954L124.5436,4.351
		c0.5791-1.2201,1.626-1.9485,2.8017-1.9485h0.001c1.1758,0.0005,2.2226,0.7289,2.8016,1.9495l14.3714,30.3057
		c-0.9689,0.7345-1.6044,1.8866-1.6044,3.1962c0,2.2217,1.8011,4.0228,4.0228,4.0228c2.2217,0,4.0228-1.8011,4.0228-4.0228
		S149.1594,33.8311,146.9376,33.8311z M107.7385,40.3219c-1.3747,0-2.4928-1.1073-2.4928-2.4681
		c0-1.3614,1.1181-2.4681,2.4928-2.4681c1.3752,0,2.4938,1.1067,2.4938,2.4681C110.2324,39.2147,109.1137,40.3219,107.7385,40.3219z
		 M146.9379,40.3219c-1.3751,0-2.4938-1.1073-2.4938-2.4681c0-1.3614,1.1186-2.4681,2.4938-2.4681
		c1.3752,0,2.4933,1.1067,2.4933,2.4681C149.4313,39.2147,148.3132,40.3219,146.9379,40.3219z"/>
	<path class="st1" d="M163.1165,33.9033V8.9422c1.8783-0.3392,3.3059-1.9744,3.3059-3.9506c0-2.2218-1.8011-4.0229-4.0228-4.0229
		s-4.0228,1.8011-4.0228,4.0229c0,1.976,1.4272,3.6111,3.3054,3.9505v24.9612c-1.8782,0.3394-3.3054,1.9745-3.3054,3.9506
		c0,2.2217,1.8011,4.0228,4.0228,4.0228s4.0228-1.8011,4.0228-4.0228C166.4224,35.8777,164.9948,34.2424,163.1165,33.9033z
		 M159.9059,4.9916c0-1.3614,1.1186-2.4681,2.4938-2.4681s2.4933,1.1067,2.4933,2.4681c0,1.3608-1.1181,2.4681-2.4933,2.4681
		C161.0245,7.4596,159.9059,6.3523,159.9059,4.9916z M162.3997,40.3219c-1.3751,0-2.4938-1.1073-2.4938-2.4681
		c0-1.3614,1.1186-2.4681,2.4938-2.4681s2.4933,1.1067,2.4933,2.4681C164.8931,39.2147,163.775,40.3219,162.3997,40.3219z"/>
</g>
</svg>
