<svg
    version="1.0"
    xmlns="http://www.w3.org/2000/svg"
    width="40pt"
    height="40pt"
    viewBox="0 0 150.0 20.0"
    preserveAspectRatio="xMidYMid meet"
>
    <g
        transform="translate(-80.000000,150.000000) scale(0.10,-0.10)"
        fill="#000000"
        stroke="none"
    >
        <path fill="#2196f3" d="M1214 1873 c-35 -7 -60 -44 -73 -107 -15 -79 -15 -623 0 -702 12 -61
        42 -106 64 -98 7 3 16 1 19 -5 4 -6 138 -10 384 -11 427 0 422 -1 422 70 0 71
        0 71 -375 70 -392 -2 -359 -15 -357 142 1 56 5 105 9 109 5 5 133 9 285 11
        301 3 299 3 313 60 5 21 1 33 -19 52 l-25 26 -269 0 c-195 0 -271 3 -280 12
        -18 18 -16 212 1 227 9 7 119 11 345 12 294 1 334 3 352 17 30 26 34 64 11 94
        l-21 26 -382 0 c-211 -1 -393 -3 -404 -5z"/>

    </g>
</svg>