<svg width="32" height="32" viewBox="0 0 32 32" fill="none" xmlns="http://www.w3.org/2000/svg">
<rect width="32" height="32" rx="4" fill="#010000"/>
<path d="M16 3C8.94286 3 3 8.96349 3 16C3 23.1603 8.83968 29 16 29C23.1603 29 29 23.1603 29 16C29 8.83968 23.1603 3 16 3ZM16 4.01111C22.6032 4.01111 27.9889 9.39683 27.9889 16C27.9889 16.1032 27.9889 16.2063 27.9889 16.3095H20.3333C19.4873 16.3095 18.7032 16.7222 18.2286 17.4238C17.754 18.1254 17.6508 19.0127 17.981 19.7968C18.3937 20.7873 18.6206 21.6952 18.6206 22.1905C18.6206 23.6143 17.4651 24.7905 16.0206 24.7905C14.5968 24.7905 13.4206 23.6349 13.4206 22.1905C13.4206 20.8079 15.546 17.6302 16.227 16.5778C16.3095 16.4746 16.3714 16.3714 16.4127 16.3095C16.4127 16.2889 16.4333 16.2889 16.4333 16.2683C16.4746 16.1857 16.5571 16.0825 16.6397 15.9587C18.0222 13.8746 19.6111 11.2952 19.6111 9.78889C19.6111 7.80794 18.0016 6.17778 16 6.17778C14.019 6.17778 12.3889 7.7873 12.3889 9.78889C12.3889 10.6556 12.8429 11.8936 13.1111 12.554C13.2968 13.0286 13.2556 13.5651 12.9667 13.9984C12.6778 14.4317 12.2032 14.6794 11.6873 14.6794H4.07302C4.77461 8.77777 9.95397 4.01111 16 4.01111ZM16 28.0095C9.39683 28.0095 4.01111 22.6238 4.01111 16.0206C4.01111 15.9175 4.01111 15.8143 4.01111 15.7111H11.7079C12.554 15.7111 13.3381 15.2984 13.8127 14.5968C14.2873 13.8952 14.3905 13.0079 14.0603 12.2238C13.6476 11.2333 13.4206 10.3254 13.4206 9.83015C13.4206 8.40634 14.5762 7.23016 16.0206 7.23016C17.4444 7.23016 18.6206 8.38571 18.6206 9.83015C18.6206 11.2127 16.4952 14.3905 15.8143 15.4429C15.7317 15.546 15.6698 15.6492 15.6286 15.7111C15.6286 15.7317 15.6079 15.7317 15.6079 15.7524C15.5667 15.8349 15.4841 15.9381 15.4016 16.0619C14.019 18.146 12.4302 20.7254 12.4302 22.2317C12.4302 24.2127 14.0397 25.8429 16.0413 25.8429C18.0222 25.8429 19.6524 24.2333 19.6524 22.2317C19.6524 21.3651 19.1984 20.127 18.9302 19.4667C18.7444 18.9921 18.7857 18.4556 19.0746 18.0222C19.3635 17.5889 19.8381 17.3413 20.354 17.3413H27.9476C27.2667 23.3254 22.1698 28.0095 16 28.0095Z" fill="white"/>
</svg>
