<svg width="758" height="675" viewBox="0 0 758 675" fill="none" xmlns="http://www.w3.org/2000/svg">
<path d="M264.874 379.158C272.897 379.158 279.402 360.809 279.402 338.175C279.402 315.541 272.897 297.192 264.874 297.192C256.85 297.192 250.346 315.541 250.346 338.175C250.346 360.809 256.85 379.158 264.874 379.158Z" fill="white"/>
<path d="M487.321 379.158C495.345 379.158 501.849 360.809 501.849 338.175C501.849 315.541 495.345 297.192 487.321 297.192C479.298 297.192 472.793 315.541 472.793 338.175C472.793 360.809 479.298 379.158 487.321 379.158Z" fill="white"/>
<path d="M369.463 351.69C346.622 351.69 338.238 373.133 341.419 379.157C343.352 382.817 356.742 393.034 361.368 394.191C365.994 395.348 377.882 393.612 378.877 392.745C379.871 391.878 385.653 385.228 392.303 381.18C398.953 377.133 399.531 367.013 394.327 360.075C389.123 353.137 381.317 351.69 369.463 351.69Z" fill="white"/>
<path d="M346.044 409.804C346.044 409.804 355.007 416.743 360.211 417.321C365.416 417.9 378.136 417.61 384.208 415.876C390.279 414.141 395.773 409.804 395.773 409.804C395.773 409.804 392.592 421.947 382.184 423.682C371.776 425.416 368.017 424.838 357.898 423.682C347.779 422.526 346.044 409.804 346.044 409.804Z" fill="white"/>
<path fill-rule="evenodd" clip-rule="evenodd" d="M189.051 67.1963C178.642 63.4382 130.07 40.5973 130.07 40.5973C130.07 40.5973 126.89 38.8622 125.157 46.6714C123.422 54.4781 129.494 72.4033 129.494 72.4033C129.494 72.4033 102.316 69.5123 80.0539 73.56C57.7914 77.6077 25.4104 96.1113 26.2775 98.1352C27.1446 100.159 45.9378 103.628 45.9378 103.628C45.9378 103.628 39.5774 109.122 31.482 118.084C23.3865 127.047 14.1352 141.214 13.5568 146.707C13.2852 149.286 11.2928 152.057 8.92618 155.348C6.25235 159.066 3.10082 163.448 1.4136 168.97C-1.767 179.378 1.4136 192.966 1.4136 192.966C1.4136 192.966 10.9545 185.161 12.4 186.606C13.0747 187.281 10.8521 195.261 8.43688 203.934C5.6773 213.843 2.66617 224.655 3.43746 226.505C4.11887 228.139 5.31341 229.517 6.8096 231.243C8.48919 233.181 10.5489 235.557 12.6897 239.227C16.7374 246.165 28.0135 249.635 28.0135 249.635C28.0135 249.635 21.9419 264.958 21.3635 271.319C20.786 277.679 21.6531 277.969 32.6396 275.366C37.4408 274.229 39.8678 272.54 41.32 271.529C43.1908 270.227 43.4439 270.051 45.0715 273.631C47.9633 279.992 40.735 302.833 37.2656 311.217C33.7963 319.601 34.953 356.898 37.2656 356.319C38.2045 356.085 40.7633 353.992 43.6076 351.665C47.7698 348.261 52.5431 344.356 53.7453 345.043C55.4368 346.01 53.089 369.999 51.4283 386.967C51.102 390.301 50.8021 393.365 50.5647 395.929C49.1184 411.541 44.7819 467.342 48.8296 466.474C52.8774 465.607 62.1295 452.019 62.1295 452.019C62.1295 452.019 64.4422 465.03 66.466 480.931C68.4899 496.832 84.3912 539.334 87.5718 537.31C90.7524 535.286 95.0889 510.711 95.0889 510.711C95.0889 510.711 111.279 544.249 116.483 556.681C121.688 569.113 126.024 574.318 130.072 575.185C132.178 575.636 146.342 588.536 159.77 600.766C172.146 612.037 183.896 622.739 185.005 622.601C187.318 622.312 189.631 605.543 189.053 598.026C188.6 592.136 190.987 594.588 196.214 599.959C197.658 601.443 199.319 603.15 201.196 604.964C209.87 613.349 230.109 626.07 230.109 626.07C230.109 626.07 229.53 600.05 233 600.05C235.112 600.05 237.654 605.732 240.167 611.351C241.781 614.96 243.384 618.542 244.853 620.577C248.611 625.781 279.836 640.526 279.836 640.526L278.969 633.298C278.969 633.298 284.751 633.587 300.364 637.345C315.976 641.104 331.011 644.284 331.011 644.284L331.299 639.08C338.243 643.295 343.379 645.225 347.162 646.646C352.202 648.539 354.843 649.532 356.164 653.825C358.477 661.342 374.668 674.064 374.668 674.064C391.726 649.199 417.458 642.549 423.818 641.682C425.783 641.414 427.251 641.008 428.479 640.669C431.224 639.91 432.764 639.484 435.961 641.682C440.586 644.862 443.913 641.682 443.913 641.682V637.87C447.529 638.973 461.115 633.298 461.115 633.298C461.115 633.298 462.849 636.478 466.03 637.345C469.21 638.213 471.812 638.501 484.823 634.165C496.38 630.313 502.006 622.581 506.766 616.038C507.365 615.216 507.95 614.412 508.531 613.637C513.734 606.699 521.541 597.736 522.987 605.253C524.432 612.77 516.337 627.804 516.337 627.804C516.337 627.804 531.949 622.601 545.249 609.301C558.549 596.001 561.15 595.134 562.307 602.651C563.464 610.168 556.235 627.804 556.235 627.804C556.235 627.804 570.402 618.552 581.678 612.481C592.954 606.409 626.492 569.979 626.492 569.979L626.78 576.051C626.78 576.051 635.744 551.186 641.526 544.248C647.309 537.309 656.85 511.577 656.85 511.577L664.945 539.043C664.945 539.043 675.064 523.72 684.027 497.41C692.99 471.1 693.568 448.838 693.568 448.838C693.568 448.838 699.639 459.536 705.133 466.474C708.766 471.063 708.732 468.824 708.627 461.849C708.573 458.276 708.5 453.46 708.892 447.681C709.371 440.619 708.313 434.399 707.197 427.832C705.616 418.537 703.917 408.545 706.289 394.483C710.337 370.486 699.351 339.84 699.351 339.84C699.351 339.84 711.494 356.032 717.565 353.14C721.79 351.127 720.835 340.436 719.766 328.468C719.299 323.237 718.81 317.763 718.722 312.662C718.433 295.893 704.266 270.161 704.266 270.161C704.266 270.161 727.107 284.617 731.155 275.654C735.203 266.692 727.686 247.032 727.686 247.032L734.624 244.719C741.563 242.405 749.947 224.48 748.502 213.783C747.644 207.437 745.77 203.534 744.024 199.899C742.827 197.406 741.69 195.039 740.985 192.098C739.25 184.871 745.9 186.895 753.417 189.786C758.764 191.842 758.259 189.802 756.69 183.459C756.053 180.884 755.241 177.601 754.573 173.595C752.524 161.298 746.615 152.86 735.238 136.613C733.776 134.525 732.223 132.309 730.577 129.938C716.12 109.121 704.266 103.049 704.266 103.049C704.266 103.049 708.893 99.8686 715.831 101.892C722.771 103.916 728.264 103.048 727.107 96.688C725.951 90.3276 704.267 81.9426 684.029 77.0277C663.79 72.112 625.048 73.8471 625.048 73.8471C631.119 66.9075 629.384 41.4653 629.384 41.4653C619.482 40.9253 616.306 42.8517 609.525 46.9653C605.417 49.4577 599.984 52.753 590.931 56.789C566.934 67.4859 546.406 70.9553 546.117 70.004C545.827 69.052 541.201 65.7516 536.865 68.0643C534.479 69.3364 533.756 68.1588 532.77 66.5531C531.963 65.2397 530.981 63.64 528.769 62.8598C523.854 61.1255 509.109 61.4143 507.952 61.9927C507.338 62.3001 507.132 63.4244 506.856 64.9262C506.613 66.2497 506.317 67.8665 505.64 69.4758C504.628 71.8793 502.626 65.7005 500.327 58.6033C499.34 55.5562 498.298 52.3398 497.255 49.5607C494.922 43.3367 488.532 35.1503 483.015 28.082C480.331 24.6431 477.853 21.4688 476.15 18.914C472.727 13.7791 471.055 14.0231 469.736 14.2157C469.049 14.3159 468.458 14.4022 467.765 13.7095C465.742 11.6856 464.007 13.1311 462.272 18.3356C461.303 21.2431 457.266 18.6461 453.841 16.4427C451.135 14.7021 448.811 13.2073 448.684 14.8662C448.442 17.9981 447.8 17.3156 446.086 15.4951C445.744 15.131 445.358 14.7215 444.925 14.2879C442.322 11.6856 434.805 9.08425 430.758 11.3969C426.71 13.7103 427.577 30.7684 427.577 30.7684C427.577 30.7684 411.676 16.6013 406.471 13.7103C401.267 10.8185 397.797 14.5775 397.797 14.5775C393.75 11.9753 392.014 13.4207 392.014 13.4207C392.014 13.4207 397.797 17.4685 400.11 21.2266C402.423 24.9847 408.494 34.738 408.494 34.738C408.494 34.738 402.134 33.9482 396.351 29.6108C390.568 25.2735 384.208 15.4438 384.208 15.4438C383.918 19.7802 377.558 27.587 379.887 23.5392C380.175 23.0381 380.392 22.4937 380.55 21.923C381.672 17.8804 379.871 12.5519 379.871 12.5519C380.16 16.0213 376.42 22.0929 376.42 22.0929C376.42 22.0929 342.575 5.03482 324.949 0.987087C307.324 -3.06064 297.761 6.48031 300.363 9.08255C302.964 11.6839 312.217 16.8884 312.217 16.8884C312.217 16.8884 307.013 16.31 300.363 16.8884C293.713 17.4668 283.594 20.3578 286.774 23.8271C288.976 26.2287 296.303 25.3054 302.619 24.5096C305.427 24.1558 308.035 23.8271 309.904 23.8271C315.976 23.8271 320.313 26.7181 319.156 27.8749C318.69 28.3411 316.064 28.6194 313.245 28.918C309.071 29.3603 304.476 29.8473 305.856 31.0555C307.138 32.1774 310.642 31.6999 313.953 31.2486C316.615 30.8858 319.152 30.54 320.312 31.0555C322.914 32.2122 326.673 35.1032 324.071 34.5248C321.469 33.9465 281.57 31.0555 281.57 31.0555L286.774 35.392L275.498 33.9465L277.522 40.5964L253.814 46.3792L265.957 53.6076C240.226 65.7508 211.314 64.3053 211.314 64.3053L213.916 68.9314C213.916 68.9314 199.459 70.9553 189.051 67.1963ZM186.594 230.405C225.625 200.481 337.515 171.424 337.515 171.424C343.153 180.965 367.873 193.542 391.294 190.94C414.712 188.338 436.396 165.787 436.396 165.787V174.46C440.733 173.159 448.973 170.123 448.973 167.955C448.973 165.787 450.708 174.026 450.708 174.026L456.78 171.424L453.311 178.797C453.311 178.797 456.779 175.762 461.116 178.363C463.334 179.693 464.531 178.983 466.041 178.087C467.484 177.23 469.213 176.204 472.393 176.628C478.897 177.495 473.26 182.265 473.26 182.265C473.26 182.265 477.596 181.398 480.632 181.398C483.669 181.398 482.367 187.036 482.367 187.036C482.367 187.036 484.97 182.699 492.342 184.001C499.715 185.302 502.317 181.832 502.317 181.832C504.052 183.567 500.582 190.506 500.582 190.506C504.485 188.771 515.761 192.674 515.761 192.674L512.725 198.312C519.231 196.578 523.568 198.746 523.568 198.746C523.568 198.746 518.797 201.348 522.266 202.215C524.868 202.866 526.738 202.053 528.608 201.24C529.232 200.968 529.855 200.697 530.506 200.48C533.109 199.613 556.094 213.491 556.094 213.491L549.155 215.659C549.155 215.659 554.359 216.092 566.936 224.766C579.512 233.44 606.401 253.823 606.401 253.823C594.692 249.052 560.864 225.634 560.864 225.634C560.864 225.634 568.237 234.742 580.38 241.68C583.351 243.378 585.518 244.608 587.197 245.562C592.38 248.506 592.92 248.813 598.161 252.088C605.1 256.426 615.508 266.834 622.013 274.207C628.518 281.579 627.651 307.473 627.651 307.473L617.992 291.638C625.123 303.698 627.651 333.187 627.651 333.187L616.375 302.829C616.375 302.829 615.941 306.299 620.711 322.778C625.482 339.258 625.048 380.458 625.048 380.458L620.277 374.821C620.277 374.821 619.41 396.071 612.905 411.683C611.073 416.08 608.862 421.886 606.351 428.483C599.945 445.312 591.581 467.285 582.547 484.108C569.969 507.527 552.189 515.333 549.586 512.731C548.319 511.464 547.155 512.665 545.443 514.431C543.639 516.292 541.226 518.78 537.443 519.67C530.071 521.405 501.881 536.584 497.544 540.487C493.207 544.39 474.993 551.329 462.416 551.763C451.646 552.135 431.973 558.23 417.556 562.697C415.136 563.446 412.865 564.15 410.808 564.773C409.656 565.122 408.536 565.469 407.438 565.807C394.894 569.682 385.35 572.629 367.006 568.243C358.707 566.258 348.756 565.024 338.06 563.698C323.045 561.835 306.561 559.791 291.112 555.232C264.657 547.427 234.733 524.441 234.733 524.441L240.654 531.814L221.722 523.574C221.722 523.574 228.661 524.007 229.962 523.574C230.261 523.475 228.472 522.48 225.434 520.791C215.266 515.137 191.104 501.703 184.425 488.013C175.752 470.231 154.935 420.358 154.935 419.057C154.935 417.756 143.792 412.551 143.792 412.551L152.333 413.418C152.333 413.418 149.297 391.733 146.261 366.147C143.226 340.56 146.261 319.743 146.261 319.743C146.261 319.743 138.456 299.36 150.598 275.508C162.741 251.655 195.267 230.405 195.267 230.405H186.594Z" fill="white"/>
</svg>
