<svg width="36" height="36" viewBox="0 0 36 36" fill="none" xmlns="http://www.w3.org/2000/svg">
<path d="M31.0687 11.8308L21.0694 4.05332C20.1919 3.37064 19.1118 3 18 3C16.8882 3 15.8081 3.37064 14.9306 4.05332L4.92937 11.8308C4.32833 12.2982 3.84205 12.8968 3.50767 13.5808C3.17328 14.2649 2.99964 15.0163 3 15.7777V29.2777C3 30.2723 3.39509 31.2261 4.09835 31.9293C4.80161 32.6326 5.75544 33.0277 6.75 33.0277H29.25C30.2446 33.0277 31.1984 32.6326 31.9016 31.9293C32.6049 31.2261 33 30.2723 33 29.2777V15.7777C33 14.2346 32.2875 12.7777 31.0687 11.8308Z" stroke="#FFA900" stroke-width="4.21875" stroke-linecap="round" stroke-linejoin="round"/>
<path d="M25.4453 23.624C21.3016 26.1234 14.5853 26.1234 10.4453 23.624" stroke="#FFA900" stroke-width="4.21875" stroke-linecap="round" stroke-linejoin="round"/>
</svg>
