<svg xmlns="http://www.w3.org/2000/svg" xmlns:xlink="http://www.w3.org/1999/xlink" viewBox="0 0 3678.22 651.54"><defs><style>.cls-1{fill:url(#linear-gradient);}.cls-2{fill:url(#linear-gradient-2);}.cls-3{fill:url(#linear-gradient-3);}.cls-4{fill:url(#linear-gradient-4);}.cls-5,.cls-8,.cls-9{fill:#fff;}.cls-5,.cls-6,.cls-7{clip-rule:evenodd;}.cls-6{fill:none;}.cls-13,.cls-15,.cls-7{fill:#e6e6e6;}.cls-13,.cls-18,.cls-9{fill-rule:evenodd;}.cls-10{clip-path:url(#clip-path);}.cls-11{clip-path:url(#clip-path-2);}.cls-12{clip-path:url(#clip-path-3);}.cls-14{clip-path:url(#clip-path-4);}.cls-16{mask:url(#mask);}.cls-17{mask:url(#mask-2);}.cls-18{fill:#ccc;}.cls-19{mask:url(#mask-3);}.cls-20{mask:url(#mask-4);}</style><linearGradient id="linear-gradient" x1="-4765.96" y1="3837.99" x2="-4955.31" y2="3479.49" gradientTransform="translate(5104.84 -3274.27)" gradientUnits="userSpaceOnUse"><stop offset="0" stop-color="#fff"/><stop offset="1"/></linearGradient><linearGradient id="linear-gradient-2" x1="-4869.62" y1="3367" x2="-4928.55" y2="3828.53" gradientTransform="translate(5235.57 -3311.21)" xlink:href="#linear-gradient"/><linearGradient id="linear-gradient-3" x1="-5015.68" y1="3836.73" x2="-4873.55" y2="3720.68" gradientTransform="translate(5416.86 -3342.9)" xlink:href="#linear-gradient"/><linearGradient id="linear-gradient-4" x1="-5104.56" y1="3863.94" x2="-4884.76" y2="3760.69" gradientTransform="translate(5393.75 -3370.27)" xlink:href="#linear-gradient"/><clipPath id="clip-path" transform="translate(30.13 6.44)"><path class="cls-5" d="M181.51,477.53A263.14,263.14,0,0,0,520,554.33,215.84,215.84,0,0,1,304.3,189.26a53.89,53.89,0,0,0-42.05-87.08c-111.53-.85-169.47,253-80.74,375.35"/></clipPath><clipPath id="clip-path-2" transform="translate(30.13 6.44)"><path class="cls-5" d="M96.87,15A363.26,363.26,0,0,0,420.46,620.71,307.3,307.3,0,0,1,188.14,106.29,64.8,64.8,0,0,0,96.87,15"/></clipPath><clipPath id="clip-path-3" transform="translate(30.13 6.44)"><path class="cls-6" d="M598.45,348.23A167.31,167.31,0,0,1,329.89,515.31,141.54,141.54,0,0,0,541,363.62a29.85,29.85,0,0,1,57.43-15.39"/></clipPath><clipPath id="clip-path-4" transform="translate(30.13 6.44)"><path class="cls-7" d="M359,278.68a86.17,86.17,0,1,1-86.17,86.17A86.17,86.17,0,0,1,359,278.68"/></clipPath><mask id="mask" x="30.13" y="21.46" width="420.46" height="610.24" maskUnits="userSpaceOnUse"><g transform="translate(30.13 6.44)"><rect class="cls-1" y="15.02" width="420.46" height="610.24"/></g></mask><mask id="mask-2" x="168.34" y="108.61" width="381.82" height="484.03" maskUnits="userSpaceOnUse"><g transform="translate(30.13 6.44)"><rect class="cls-2" x="138.21" y="102.18" width="381.82" height="484.03"/></g></mask><mask id="mask-3" x="360.02" y="335.12" width="272.75" height="224.03" maskUnits="userSpaceOnUse"><g transform="translate(30.13 6.44)"><rect class="cls-3" x="329.89" y="328.68" width="272.75" height="224.03"/></g></mask><mask id="mask-4" x="335.59" y="348.11" width="226.98" height="182.08" maskUnits="userSpaceOnUse"><g transform="translate(30.13 6.44)"><rect class="cls-4" x="305.46" y="341.68" width="226.98" height="182.08"/></g></mask></defs><title>Asset 3</title><g id="Layer_2" data-name="Layer 2"><g id="Layer_1-2" data-name="Layer 1"><path class="cls-8" d="M739.29,420.61V145.72h83.25V420.61Z" transform="translate(30.13 6.44)"/><path class="cls-8" d="M1119.68,420.61V304.39c0-11.95-6.18-22.26-22.67-22.26s-25.55,9.89-30.49,15.66V420.61H992.33V304.39c0-11.95-5.76-22.26-22.66-22.26-16.08,0-25.14,9.89-30.09,15.66V420.61H865.4V221.55h74.18v22.67c8.66-11.13,33.8-27.62,65.94-27.62,28,0,48.22,10.31,57.29,35,11.54-17.3,37.5-35,69.65-35,36.68,0,61.4,18.55,61.4,59.76V420.61Z" transform="translate(30.13 6.44)"/><path class="cls-8" d="M1350.06,420.61v-19c-11.13,14-35.44,23.9-60.17,23.9-29.67,0-68.41-20.19-68.41-65.53,0-49.45,38.74-63.46,68.41-63.46,26,0,49.46,8.24,60.17,21.84V297.79c0-14-12.78-24.72-37.09-24.72-18.55,0-39.56,7.41-55.23,19.37l-25.13-45.75c26.78-21.43,63.87-30.09,94-30.09,49.45,0,97.67,17.31,97.67,83.67V420.61Zm0-54V355.49c-4.94-7-17.72-10.72-29.26-10.72-12.36,0-26,4.13-26,16.49s13.6,16.07,26,16.07C1332.34,377.33,1345.12,373.62,1350.06,366.62Z" transform="translate(30.13 6.44)"/><path class="cls-8" d="M1458.45,471.71,1489.77,419c15.25,15.25,37.92,21.84,59.35,21.84,17.31,0,46.15-6.59,46.15-41.62V388.46c-16.89,19.37-35.44,26.79-56,26.79-47.81,0-87.37-31.32-87.37-99.32,0-66.36,38.32-99.33,87.37-99.33,20.6,0,40,7,56,26v-21h74.19V399.18c0,86.13-70.89,102.2-120.34,102.2C1514.91,501.38,1484.41,492.32,1458.45,471.71Zm136.82-134.77v-42c-7-8.24-21-12.78-30.49-12.78-20.2,0-37.09,9.48-37.09,33.8s16.89,33.79,37.09,33.79C1574.26,349.72,1588.27,345.19,1595.27,336.94Z" transform="translate(30.13 6.44)"/><path class="cls-8" d="M1697.07,320.87c0-57.7,44.1-104.27,108.39-104.27,58.52,0,103.44,42,103.44,112.1V344H1773.72c4.12,12.78,18.55,25.14,42.86,25.14,11.13,0,35.86-5.36,45.75-14l30.5,45.74c-19.79,16.9-55.23,24.73-84.9,24.73C1745.7,425.55,1697.07,386.4,1697.07,320.87Zm108.39-47.8c-22.67,0-30.09,14.83-32.56,23.9h65.53C1836.37,288.31,1829.36,273.07,1805.46,273.07Z" transform="translate(30.13 6.44)"/><path class="cls-8" d="M1921.27,283.37c0-84.9,65.11-142.18,151.25-142.18,72.12,0,108.39,42,124.87,79.95l-71.71,33.38c-7-21.43-28.43-40-53.16-40-40,0-66.77,30.5-66.77,68.83s26.79,68.82,66.77,68.82c24.73,0,46.16-18.54,53.16-40l71.71,33c-16.07,36.68-52.75,80.36-124.87,80.36C1986.38,425.55,1921.27,367.85,1921.27,283.37Z" transform="translate(30.13 6.44)"/><path class="cls-8" d="M2208.11,320.87c0-55.64,41.21-104.27,111.68-104.27,70.89,0,112.1,48.63,112.1,104.27s-41.21,104.68-112.1,104.68C2249.32,425.55,2208.11,376.51,2208.11,320.87Zm147.54,0c0-21.84-12.78-38.74-35.86-38.74-22.66,0-35.44,16.9-35.44,38.74,0,22.26,12.78,39.15,35.44,39.15C2342.87,360,2355.65,343.13,2355.65,320.87Z" transform="translate(30.13 6.44)"/><path class="cls-8" d="M2459.51,420.61V145.72h74.18V420.61Z" transform="translate(30.13 6.44)"/><path class="cls-8" d="M2561.3,320.87c0-55.64,41.22-104.27,111.69-104.27,70.88,0,112.1,48.63,112.1,104.27S2743.87,425.55,2673,425.55C2602.52,425.55,2561.3,376.51,2561.3,320.87Zm147.54,0c0-21.84-12.77-38.74-35.85-38.74-22.67,0-35.44,16.9-35.44,38.74,0,22.26,12.77,39.15,35.44,39.15C2696.07,360,2708.84,343.13,2708.84,320.87Z" transform="translate(30.13 6.44)"/><path class="cls-8" d="M2812.7,420.61V221.55h74.18v21.84c12.37-14.42,38.33-27.61,61-27.61v70.89c-3.71-1.24-9.89-2.07-16.9-2.07-15.66,0-35.85,4.13-44.1,14v122Z" transform="translate(30.13 6.44)"/><path class="cls-8" d="M2968.9,165.5a41.63,41.63,0,1,1,41.62,41.63A41.5,41.5,0,0,1,2968.9,165.5Zm4.53,255.11V221.55h74.19V420.61Z" transform="translate(30.13 6.44)"/><path class="cls-8" d="M3081.82,420.61v-54.4l70.06-80.37h-70.06V221.55h171.45v51.93l-71.71,82.83h73.36v64.3Z" transform="translate(30.13 6.44)"/><path class="cls-8" d="M3275.52,320.87c0-57.7,44.1-104.27,108.39-104.27,58.52,0,103.44,42,103.44,112.1V344H3352.18c4.12,12.78,18.54,25.14,42.86,25.14,11.13,0,35.85-5.36,45.74-14l30.5,45.74c-19.78,16.9-55.22,24.73-84.9,24.73C3324.15,425.55,3275.52,386.4,3275.52,320.87Zm108.39-47.8c-22.67,0-30.08,14.83-32.56,23.9h65.53C3414.82,288.31,3407.81,273.07,3383.91,273.07Z" transform="translate(30.13 6.44)"/><path class="cls-8" d="M3512.91,420.61V221.55h74.18v21.84c12.37-14.42,38.33-27.61,61-27.61v70.89c-3.71-1.24-9.89-2.07-16.9-2.07-15.66,0-35.85,4.13-44.1,14v122Z" transform="translate(30.13 6.44)"/><path class="cls-9" d="M181.51,477.53A263.14,263.14,0,0,0,520,554.33,215.84,215.84,0,0,1,304.3,189.26a53.89,53.89,0,0,0-42.05-87.08c-111.53-.85-169.47,253-80.74,375.35" transform="translate(30.13 6.44)"/><g class="cls-10"><rect class="cls-8" x="122.91" y="107.77" width="427.25" height="516.01"/></g><path class="cls-9" d="M96.87,15A363.26,363.26,0,0,0,420.46,620.71,307.3,307.3,0,0,1,188.14,106.29,64.8,64.8,0,0,0,96.87,15" transform="translate(30.13 6.44)"/><g class="cls-11"><rect class="cls-8" width="450.59" height="651.54"/></g><path class="cls-9" d="M458.17,513.23A121.2,121.2,0,0,1,305.46,465.9,99.41,99.41,0,0,0,475.58,370a24.83,24.83,0,0,1,36.83-25c44.68,25.35,9.33,139.94-54.24,168.32" transform="translate(30.13 6.44)"/><g class="cls-12"><rect class="cls-8" x="360.02" y="332.14" width="284.41" height="239.44"/></g><path class="cls-13" d="M359,278.68a86.17,86.17,0,1,1-86.17,86.17A86.17,86.17,0,0,1,359,278.68" transform="translate(30.13 6.44)"/><g class="cls-14"><rect class="cls-15" x="303" y="285.12" width="172.33" height="172.33"/></g><g class="cls-16"><path class="cls-13" d="M74.79,407A391,391,0,0,1,96.87,15,363.26,363.26,0,0,0,420.46,620.71q-8.13.15-16.2-.14a308.56,308.56,0,0,1-39.55-4A391.06,391.06,0,0,1,74.79,407" transform="translate(30.13 6.44)"/></g><g class="cls-17"><path class="cls-18" d="M207.33,434.77a251.41,251.41,0,0,1,83.33-324.24,53.91,53.91,0,0,0-28.41-8.35c-111.53-.85-169.47,253-80.74,375.35A263.14,263.14,0,0,0,520,554.33a251.41,251.41,0,0,1-312.7-119.56" transform="translate(30.13 6.44)"/></g><g class="cls-19"><path class="cls-9" d="M556.39,332.19a149,149,0,0,1-226.5,183.12A167.31,167.31,0,0,0,598.45,348.23a29.86,29.86,0,0,0-42.06-16" transform="translate(30.13 6.44)"/></g><g class="cls-20"><path class="cls-9" d="M491,343.44A111.37,111.37,0,0,1,305.46,465.9a121.19,121.19,0,0,0,152.71,47.32c63.57-28.37,98.92-143,54.24-168.31A24.85,24.85,0,0,0,491,343.44" transform="translate(30.13 6.44)"/></g></g></g></svg>