<svg xmlns="http://www.w3.org/2000/svg" viewBox="0 0 183.04 32.2"><defs><style>.cls-1{fill:#05f;}</style></defs><title>Asset 6</title><g id="Layer_2" data-name="Layer 2"><g id="Layer_1-2" data-name="Layer 1"><path class="cls-1" d="M17.43,7.71A1.33,1.33,0,1,1,16.1,6.38a1.33,1.33,0,0,1,1.33,1.33"/><path class="cls-1" d="M24.62,16.38a1.33,1.33,0,1,1-1.33-1.33,1.33,1.33,0,0,1,1.33,1.33"/><path class="cls-1" d="M10.64,13.38a1.33,1.33,0,1,1-1.33-1.33,1.33,1.33,0,0,1,1.33,1.33"/><path class="cls-1" d="M32.2,19.43V12.78H27.68a12,12,0,0,0-1-2.51l3.2-3.2-4.7-4.7-3.2,3.2a12,12,0,0,0-2.51-1V0H12.77V4.53a12,12,0,0,0-2.51,1l-3.2-3.2-4.7,4.7,3.2,3.2a12,12,0,0,0-1,2.51H0v6.65H4.52a12,12,0,0,0,1,2.51l-3.2,3.2,1.72,1.72,4.27-4.31V16a2.83,2.83,0,1,1,1.91,0v7.29L5.44,28.21l1.63,1.63,3.2-3.2a11.93,11.93,0,0,0,2.51,1V32.2h2.37V10.38a2.83,2.83,0,1,1,1.91,0V32.2h2.37V27.68a12,12,0,0,0,2.51-1l3.2,3.2,1.67-1.67-4.47-4.53V19a2.83,2.83,0,1,1,1.91,0v3.8l3.91,4,1.68-1.68-3.2-3.2a11.92,11.92,0,0,0,1-2.51Z"/><polygon points="39.8 7.62 43.6 7.62 43.6 21.38 50.66 21.38 50.66 24.9 39.8 24.9 39.8 7.62"/><path d="M58.83,7.61H62L69.5,24.9H65.2l-1.49-3.66H57L55.56,24.9h-4.2Zm1.46,5L58.2,18h4.22Z"/><polygon points="70.62 7.62 75.8 7.62 83.14 19.62 83.19 19.62 83.19 7.62 87 7.62 87 24.9 82.02 24.9 74.48 12.59 74.43 12.59 74.43 24.9 70.62 24.9 70.62 7.62"/><path d="M90.2,7.61h5.71a16.31,16.31,0,0,1,3.94.46,9,9,0,0,1,3.26,1.5,7.35,7.35,0,0,1,2.21,2.7,9,9,0,0,1,.82,4,8.21,8.21,0,0,1-.79,3.7,8,8,0,0,1-2.13,2.69,9.45,9.45,0,0,1-3.1,1.65,12,12,0,0,1-3.69.56H90.2ZM94,21.38h2a10.64,10.64,0,0,0,2.45-.27,5.24,5.24,0,0,0,2-.89,4.28,4.28,0,0,0,1.31-1.64,5.8,5.8,0,0,0,.48-2.48,4.83,4.83,0,0,0-.48-2.21,4.43,4.43,0,0,0-1.28-1.55,5.64,5.64,0,0,0-1.89-.92,8.42,8.42,0,0,0-2.28-.31H94Z"/><rect x="108.63" y="7.61" width="3.81" height="17.28"/><polygon points="115.78 7.62 120.95 7.62 128.3 19.62 128.35 19.62 128.35 7.62 132.16 7.62 132.16 24.9 127.17 24.9 119.63 12.59 119.58 12.59 119.58 24.9 115.78 24.9 115.78 7.62"/><path d="M151.31,23.67a13.75,13.75,0,0,1-3.52,1.27,17.8,17.8,0,0,1-3.73.39,10.64,10.64,0,0,1-3.73-.64,8.53,8.53,0,0,1-3-1.82A8.24,8.24,0,0,1,135.44,20a9.75,9.75,0,0,1-.7-3.76,9.75,9.75,0,0,1,.7-3.76,8.24,8.24,0,0,1,1.94-2.87,8.56,8.56,0,0,1,3-1.82,10.67,10.67,0,0,1,3.73-.63,13.85,13.85,0,0,1,3.82.5,7.48,7.48,0,0,1,3.06,1.72l-2.68,2.93a5.36,5.36,0,0,0-1.76-1.22,6.28,6.28,0,0,0-2.44-.41,5.66,5.66,0,0,0-2.21.41,5,5,0,0,0-1.7,1.16A5.09,5.09,0,0,0,139.07,14a6.75,6.75,0,0,0,0,4.46,5.11,5.11,0,0,0,1.09,1.76,4.94,4.94,0,0,0,1.7,1.16,5.65,5.65,0,0,0,2.21.41,7.29,7.29,0,0,0,2.15-.28,8.14,8.14,0,0,0,1.44-.57V18.16h-3.1V14.64h6.76Z"/><path class="cls-1" d="M166.35,7.61h3.15L177,24.9h-4.3l-1.49-3.66h-6.71l-1.44,3.66h-4.2Zm1.46,5L165.71,18h4.22Z"/><rect class="cls-1" x="179.24" y="7.61" width="3.81" height="17.28"/></g></g></svg>