<svg width="33" height="33" viewBox="0 0 33 33" fill="none" xmlns="http://www.w3.org/2000/svg">
    <path d="M13.3799 8.88752V8.95699H19.5626V8.88752V8.95699H24.2009V7.09106H8.74167V8.95699H13.3799V8.88752Z" fill="white"/>
    <path d="M13.3799 8.95703H8.74167V21.3635L13.3799 18.6688V8.95703Z" fill="#FADA29"/>
    <path d="M24.2009 3.14551H8.74167V7.09076H24.2009V3.14551Z" fill="#FF4382"/>

    <path d="M13.3797 22.1322L13.3994 22.1173L16.508 23.9535L19.5426 22.1173L19.5623 22.1322V15.0754L13.3797 18.6683V22.1322Z" fill="#4CCACD"/>

    <path d="M13.3797 18.6688L19.5623 15.0759V8.95703H13.3797V18.6688Z" fill="#75d5a2"/>
    <path d="M13.3799 18.6682L8.74167 21.3629V24.7573L13.3799 22.1321V18.6682Z" fill="#F7941E"/>
    <path d="M19.5625 8.95703V15.0759L24.2008 12.3812V8.95703H19.5625Z" fill="#4E8FF9"/>
    <path d="M19.5625 22.1323L24.2008 24.8071V12.3809L19.5625 15.0755V22.1323Z" fill="#785FF6"/>
    <path d="M19.5626 22.1321L19.5428 22.1172L16.5082 23.9534L13.3997 22.1172L13.3799 22.1321L8.74167 24.7573V24.8863V26.1171L12.0575 28.0425H20.885L24.2009 26.1171V24.8962V24.8069L19.5626 22.1321Z" fill="white"/>
    <path d="M24.2006 2.70386H8.74143C8.62496 2.70386 8.51326 2.75039 8.4309 2.83322C8.34854 2.91605 8.30227 3.02839 8.30227 3.14553V26.1173C8.2976 26.1987 8.31541 26.2797 8.35373 26.3516C8.39205 26.4234 8.44938 26.4832 8.51938 26.5243L16.2515 30.9906C16.3189 31.0299 16.3955 31.0504 16.4735 31.0501C16.5498 31.0498 16.6247 31.0292 16.6906 30.9906L24.4226 26.5243C24.4889 26.4852 24.5438 26.4294 24.5819 26.3623C24.62 26.2953 24.6399 26.2193 24.6398 26.1421V3.14553C24.6398 3.02839 24.5935 2.91605 24.5111 2.83322C24.4288 2.75039 24.3171 2.70386 24.2006 2.70386ZM16.5031 23.4425L13.8188 21.8793V9.39838H19.1232V21.8842L16.5031 23.4425ZM9.18058 8.51503V7.52252H23.7664V8.51503H9.18058ZM9.18058 9.39838H12.9405V21.8495L9.18058 24.0032V9.39838ZM20.0015 9.39838H23.7664V24.0429L20.0015 21.8544V9.39838ZM23.7664 3.58719V6.67392H9.18058V3.58719H23.7664ZM20.7664 27.606H12.1757L9.18058 25.8642V25.0355L13.3303 22.6584H13.3797L16.2811 24.3407H16.3353C16.3616 24.355 16.3898 24.365 16.4192 24.3705H16.587C16.6159 24.3636 16.6441 24.3536 16.6708 24.3407H16.7251L19.5575 22.6584H19.6018L23.7664 25.0355V25.8444L20.7664 27.606Z" fill="#3C3D3E"/>
</svg>
