<svg width="812" height="160" viewBox="0 0 812 160" fill="none" xmlns="http://www.w3.org/2000/svg">
<path d="M0 97.8495V29.9906H13.1295L14.2352 39.1122H14.788C17.8285 36.1638 21.1454 33.63 24.7388 31.5109C28.3321 29.3917 32.4322 28.3322 37.0391 28.3322C44.3179 28.3322 49.6158 30.6816 52.9327 35.3806C56.2496 40.0796 57.9081 46.7135 57.9081 55.2822V97.8495H42.0145V57.3553C42.0145 51.735 41.1852 47.7731 39.5268 45.4696C37.8683 43.1662 35.1503 42.0145 31.3727 42.0145C28.4243 42.0145 25.7984 42.7516 23.4949 44.2258C21.2836 45.6078 18.7499 47.6809 15.8936 50.445V97.8495H0Z" fill="#A6112A"/>
<path d="M106.359 99.508C100.094 99.508 94.4271 98.1259 89.3596 95.3618C84.292 92.5056 80.2841 88.4515 77.3357 83.1997C74.3873 77.8558 72.9131 71.4523 72.9131 63.9892C72.9131 56.6182 74.3873 50.2608 77.3357 44.9168C80.3762 39.5729 84.292 35.4728 89.0832 32.6165C93.8743 29.7603 98.8958 28.3322 104.148 28.3322C110.321 28.3322 115.48 29.7142 119.627 32.4783C123.773 35.1503 126.905 38.9279 129.025 43.8112C131.144 48.6023 132.203 54.1766 132.203 60.534C132.203 63.851 131.973 66.4308 131.512 68.2736H88.3922C89.1292 74.2625 91.2944 78.9154 94.8878 82.2323C98.4811 85.5492 102.996 87.2077 108.432 87.2077C111.38 87.2077 114.098 86.7931 116.586 85.9639C119.166 85.0425 121.7 83.7986 124.187 82.2323L129.577 92.1831C126.353 94.3023 122.759 96.0529 118.797 97.4349C114.835 98.817 110.689 99.508 106.359 99.508ZM88.2539 57.4935H118.383C118.383 52.2417 117.231 48.1416 114.928 45.1932C112.624 42.1527 109.169 40.6324 104.562 40.6324C100.6 40.6324 97.053 42.1066 93.9204 45.055C90.8798 47.9113 88.991 52.0574 88.2539 57.4935Z" fill="#A6112A"/>
<path d="M158.578 97.8495L140.611 29.9906H156.643L164.797 65.233C165.534 68.4578 166.133 71.6826 166.594 74.9074C167.147 78.1322 167.745 81.4031 168.39 84.72H168.943C169.588 81.4031 170.233 78.1322 170.878 74.9074C171.615 71.5905 172.398 68.3657 173.228 65.233L182.073 29.9906H196.584L205.568 65.233C206.397 68.4578 207.18 71.6826 207.917 74.9074C208.654 78.1322 209.391 81.4031 210.129 84.72H210.681C211.326 81.4031 211.925 78.1322 212.478 74.9074C213.031 71.6826 213.63 68.4578 214.275 65.233L222.429 29.9906H237.355L220.079 97.8495H201.145L193.267 66.2005C192.53 62.9757 191.839 59.7969 191.194 56.6643C190.549 53.4395 189.858 50.0304 189.121 46.4371H188.568C187.924 50.0304 187.279 53.4395 186.634 56.6643C185.989 59.8891 185.298 63.1139 184.561 66.3387L176.821 97.8495H158.578Z" fill="#A6112A"/>
<path d="M269.702 99.508C265.095 99.508 260.488 98.6327 255.881 96.8821C251.274 95.0394 247.312 92.782 243.995 90.11L251.458 79.8828C254.499 82.1862 257.54 84.029 260.58 85.411C263.621 86.7931 266.845 87.4841 270.254 87.4841C273.94 87.4841 276.658 86.701 278.409 85.1346C280.159 83.5683 281.034 81.6334 281.034 79.33C281.034 77.3951 280.297 75.8288 278.823 74.631C277.441 73.3411 275.644 72.2354 273.433 71.3141C271.222 70.3006 268.918 69.3331 266.523 68.4118C263.574 67.3061 260.626 65.9701 257.678 64.4038C254.821 62.7453 252.472 60.6722 250.629 58.1845C248.786 55.6047 247.865 52.426 247.865 48.6484C247.865 42.6595 250.076 37.7762 254.499 33.9986C258.922 30.221 264.91 28.3322 272.466 28.3322C277.257 28.3322 281.541 29.1614 285.319 30.8199C289.096 32.4783 292.367 34.3671 295.131 36.4863L287.807 46.1607C285.411 44.4101 282.969 43.028 280.482 42.0145C278.086 40.9089 275.552 40.356 272.88 40.356C269.471 40.356 266.937 41.0931 265.279 42.5673C263.621 43.9494 262.791 45.7 262.791 47.8191C262.791 50.4911 264.173 52.5181 266.937 53.9002C269.702 55.2822 272.926 56.6182 276.612 57.9081C279.745 59.0138 282.785 60.3958 285.733 62.0543C288.682 63.6206 291.123 65.6937 293.058 68.2736C295.085 70.8534 296.099 74.2625 296.099 78.5008C296.099 84.3054 293.841 89.2808 289.327 93.427C284.812 97.481 278.27 99.508 269.702 99.508Z" fill="#A6112A"/>
<path d="M2 159.387V125.862H6.23836V155.758H20.8939V159.387H2Z" fill="#053F57"/>
<path d="M35.887 160C33.6742 160 31.6656 159.489 29.8613 158.467C28.057 157.411 26.6272 155.912 25.5719 153.97C24.5166 152.028 23.9889 149.711 23.9889 147.019C23.9889 144.294 24.5166 141.96 25.5719 140.018C26.6613 138.076 28.057 136.577 29.7592 135.521C31.4614 134.465 33.2486 133.936 35.121 133.936C38.287 133.936 40.7211 134.993 42.4232 137.105C44.1594 139.217 45.0275 142.045 45.0275 145.588C45.0275 146.031 45.0105 146.474 44.9765 146.917C44.9765 147.326 44.9424 147.684 44.8743 147.99H28.1251C28.2953 150.614 29.1124 152.709 30.5762 154.276C32.0741 155.843 34.0146 156.627 36.3976 156.627C37.5891 156.627 38.6785 156.457 39.6657 156.116C40.687 155.741 41.6573 155.264 42.5764 154.685L44.0573 157.445C43.002 158.126 41.7934 158.722 40.4317 159.233C39.104 159.744 37.5891 160 35.887 160ZM28.0741 144.975H41.3509C41.3509 142.454 40.8062 140.546 39.7168 139.251C38.6615 137.923 37.1636 137.258 35.2231 137.258C33.4869 137.258 31.9209 137.94 30.5252 139.302C29.1634 140.631 28.3464 142.522 28.0741 144.975Z" fill="#053F57"/>
<path d="M58.4743 160C55.8189 160 53.9636 159.233 52.9082 157.7C51.8869 156.167 51.3763 154.174 51.3763 151.721V137.974H47.6996V134.805L51.5805 134.55L52.0912 127.599H55.6146V134.55H62.3041V137.974H55.6146V151.772C55.6146 153.305 55.887 154.498 56.4317 155.349C57.0104 156.167 58.0147 156.576 59.4445 156.576C59.8871 156.576 60.3637 156.508 60.8743 156.372C61.3849 156.201 61.8445 156.048 62.253 155.912L63.0701 159.08C62.3892 159.319 61.6403 159.523 60.8232 159.693C60.0402 159.898 59.2573 160 58.4743 160Z" fill="#053F57"/>
<path d="M84.3173 140.631L82.7343 145.742H92.7941L91.2111 140.631C90.5983 138.757 90.0196 136.901 89.4749 135.061C88.9302 133.187 88.3855 131.279 87.8408 129.337H87.6365C87.1259 131.279 86.5982 133.187 86.0535 135.061C85.5089 136.901 84.9301 138.757 84.3173 140.631ZM74.1044 159.387L85.4408 125.862H90.2408L101.577 159.387H97.0324L93.8664 149.166H81.662L78.4449 159.387H74.1044Z" fill="#053F57"/>
<path d="M106.323 159.387V125.862H110.562V159.387H106.323Z" fill="#053F57"/>
<path d="M133.637 159.387L126.539 125.862H130.931L134.454 144.106C134.761 145.912 135.084 147.718 135.425 149.523C135.765 151.329 136.088 153.135 136.395 154.941H136.599C136.974 153.135 137.365 151.329 137.774 149.523C138.182 147.684 138.574 145.878 138.948 144.106L143.595 125.862H147.476L152.123 144.106C152.531 145.878 152.94 147.684 153.348 149.523C153.757 151.329 154.165 153.135 154.574 154.941H154.778C155.085 153.135 155.391 151.329 155.697 149.523C156.004 147.684 156.327 145.878 156.668 144.106L160.191 125.862H164.276L157.331 159.387H152.225L147.169 139.2C146.863 137.906 146.574 136.645 146.301 135.419C146.063 134.158 145.808 132.88 145.535 131.586H145.331C145.093 132.88 144.821 134.158 144.514 135.419C144.208 136.645 143.918 137.906 143.646 139.2L138.693 159.387H133.637Z" fill="#053F57"/>
<path d="M169.696 159.387V134.55H173.168L173.526 139.047H173.679C174.53 137.48 175.568 136.236 176.794 135.316C178.019 134.396 179.33 133.936 180.726 133.936C181.713 133.936 182.598 134.107 183.381 134.448L182.564 138.127C182.156 137.991 181.781 137.889 181.441 137.82C181.1 137.752 180.675 137.718 180.164 137.718C179.109 137.718 178.002 138.144 176.845 138.996C175.721 139.848 174.734 141.33 173.883 143.442V159.387H169.696Z" fill="#053F57"/>
<path d="M187.399 159.387V134.55H191.586V159.387H187.399ZM189.544 129.439C188.727 129.439 188.046 129.201 187.501 128.724C186.99 128.213 186.735 127.531 186.735 126.68C186.735 125.862 186.99 125.198 187.501 124.686C188.046 124.175 188.727 123.92 189.544 123.92C190.361 123.92 191.024 124.175 191.535 124.686C192.08 125.198 192.352 125.862 192.352 126.68C192.352 127.531 192.08 128.213 191.535 128.724C191.024 129.201 190.361 129.439 189.544 129.439Z" fill="#053F57"/>
<path d="M207.778 160C205.123 160 203.268 159.233 202.212 157.7C201.191 156.167 200.68 154.174 200.68 151.721V137.974H197.004V134.805L200.885 134.55L201.395 127.599H204.919V134.55H211.608V137.974H204.919V151.772C204.919 153.305 205.191 154.498 205.736 155.349C206.315 156.167 207.319 156.576 208.749 156.576C209.191 156.576 209.668 156.508 210.178 156.372C210.689 156.201 211.149 156.048 211.557 155.912L212.374 159.08C211.693 159.319 210.944 159.523 210.127 159.693C209.344 159.898 208.561 160 207.778 160Z" fill="#053F57"/>
<path d="M226.581 160C224.369 160 222.36 159.489 220.556 158.467C218.751 157.411 217.322 155.912 216.266 153.97C215.211 152.028 214.683 149.711 214.683 147.019C214.683 144.294 215.211 141.96 216.266 140.018C217.356 138.076 218.751 136.577 220.454 135.521C222.156 134.465 223.943 133.936 225.815 133.936C228.981 133.936 231.415 134.993 233.118 137.105C234.854 139.217 235.722 142.045 235.722 145.588C235.722 146.031 235.705 146.474 235.671 146.917C235.671 147.326 235.637 147.684 235.569 147.99H218.82C218.99 150.614 219.807 152.709 221.271 154.276C222.769 155.843 224.709 156.627 227.092 156.627C228.283 156.627 229.373 156.457 230.36 156.116C231.381 155.741 232.352 155.264 233.271 154.685L234.752 157.445C233.696 158.126 232.488 158.722 231.126 159.233C229.798 159.744 228.283 160 226.581 160ZM218.768 144.975H232.045C232.045 142.454 231.501 140.546 230.411 139.251C229.356 137.923 227.858 137.258 225.917 137.258C224.181 137.258 222.615 137.94 221.22 139.302C219.858 140.631 219.041 142.522 218.768 144.975Z" fill="#053F57"/>
<path d="M257.899 159.387V146.406L247.839 125.862H252.384L256.724 135.316C257.269 136.543 257.797 137.752 258.307 138.945C258.852 140.137 259.397 141.364 259.941 142.624H260.146C260.724 141.364 261.303 140.137 261.882 138.945C262.46 137.752 263.005 136.543 263.516 135.316L267.805 125.862H272.248L262.188 146.406V159.387H257.899Z" fill="#053F57"/>
<path d="M283.92 160C281.911 160 280.022 159.489 278.252 158.467C276.515 157.445 275.103 155.963 274.013 154.021C272.958 152.079 272.43 149.745 272.43 147.019C272.43 144.226 272.958 141.858 274.013 139.916C275.103 137.974 276.515 136.492 278.252 135.47C280.022 134.448 281.911 133.936 283.92 133.936C285.962 133.936 287.852 134.448 289.588 135.47C291.324 136.492 292.72 137.974 293.775 139.916C294.865 141.858 295.409 144.226 295.409 147.019C295.409 149.745 294.865 152.079 293.775 154.021C292.72 155.963 291.324 157.445 289.588 158.467C287.852 159.489 285.962 160 283.92 160ZM283.92 156.525C286.064 156.525 287.784 155.656 289.077 153.919C290.405 152.147 291.069 149.847 291.069 147.019C291.069 144.157 290.405 141.841 289.077 140.069C287.784 138.297 286.064 137.412 283.92 137.412C281.809 137.412 280.09 138.297 278.762 140.069C277.435 141.841 276.771 144.157 276.771 147.019C276.771 149.847 277.435 152.147 278.762 153.919C280.09 155.656 281.809 156.525 283.92 156.525Z" fill="#053F57"/>
<path d="M309.196 160C306.575 160 304.652 159.182 303.426 157.547C302.2 155.878 301.588 153.459 301.588 150.29V134.55H305.826V149.728C305.826 152.045 306.183 153.731 306.898 154.787C307.647 155.843 308.839 156.372 310.473 156.372C311.767 156.372 312.907 156.048 313.894 155.401C314.916 154.719 316.005 153.646 317.162 152.181V134.55H321.35V159.387H317.877L317.52 155.503H317.367C316.209 156.866 314.984 157.956 313.69 158.773C312.396 159.591 310.898 160 309.196 160Z" fill="#053F57"/>
<path d="M329.721 159.387V134.55H333.194L333.551 139.047H333.704C334.556 137.48 335.594 136.236 336.819 135.316C338.045 134.396 339.356 133.936 340.751 133.936C341.739 133.936 342.624 134.107 343.407 134.448L342.59 138.127C342.181 137.991 341.807 137.889 341.466 137.82C341.126 137.752 340.7 137.718 340.19 137.718C339.134 137.718 338.028 138.144 336.871 138.996C335.747 139.848 334.76 141.33 333.909 143.442V159.387H329.721Z" fill="#053F57"/>
<path d="M358.056 159.387V125.862H367.605C370.124 125.862 372.32 126.169 374.192 126.782C376.065 127.395 377.529 128.434 378.584 129.899C379.639 131.33 380.167 133.272 380.167 135.725C380.167 139.234 379.026 141.841 376.746 143.544C374.465 145.248 371.486 146.099 367.809 146.099H362.294V159.387H358.056ZM362.294 142.624H367.299C370.226 142.624 372.388 142.079 373.784 140.989C375.214 139.865 375.929 138.11 375.929 135.725C375.929 133.306 375.18 131.637 373.682 130.717C372.218 129.763 370.022 129.286 367.094 129.286H362.294V142.624Z" fill="#053F57"/>
<path d="M386.571 159.387V134.55H390.043L390.401 139.047H390.554C391.405 137.48 392.443 136.236 393.669 135.316C394.894 134.396 396.205 133.936 397.601 133.936C398.588 133.936 399.473 134.107 400.256 134.448L399.439 138.127C399.031 137.991 398.656 137.889 398.316 137.82C397.975 137.752 397.55 137.718 397.039 137.718C395.984 137.718 394.877 138.144 393.72 138.996C392.596 139.848 391.609 141.33 390.758 143.442V159.387H386.571Z" fill="#053F57"/>
<path d="M413.835 160C411.622 160 409.614 159.489 407.809 158.467C406.005 157.411 404.575 155.912 403.52 153.97C402.464 152.028 401.937 149.711 401.937 147.019C401.937 144.294 402.464 141.96 403.52 140.018C404.609 138.076 406.005 136.577 407.707 135.521C409.409 134.465 411.196 133.936 413.069 133.936C416.235 133.936 418.669 134.993 420.371 137.105C422.107 139.217 422.975 142.045 422.975 145.588C422.975 146.031 422.958 146.474 422.924 146.917C422.924 147.326 422.89 147.684 422.822 147.99H406.073C406.243 150.614 407.06 152.709 408.524 154.276C410.022 155.843 411.962 156.627 414.345 156.627C415.537 156.627 416.626 156.457 417.614 156.116C418.635 155.741 419.605 155.264 420.524 154.685L422.005 157.445C420.95 158.126 419.741 158.722 418.38 159.233C417.052 159.744 415.537 160 413.835 160ZM406.022 144.975H419.299C419.299 142.454 418.754 140.546 417.665 139.251C416.609 137.923 415.111 137.258 413.171 137.258C411.435 137.258 409.869 137.94 408.473 139.302C407.111 140.631 406.294 142.522 406.022 144.975Z" fill="#053F57"/>
<path d="M435.593 160C433.823 160 432.138 159.676 430.538 159.029C428.938 158.348 427.542 157.53 426.35 156.576L428.444 153.765C429.533 154.617 430.657 155.332 431.814 155.912C432.972 156.457 434.283 156.729 435.746 156.729C437.38 156.729 438.606 156.355 439.423 155.605C440.24 154.821 440.649 153.901 440.649 152.845C440.649 151.994 440.359 151.278 439.78 150.699C439.236 150.12 438.521 149.643 437.636 149.268C436.785 148.859 435.9 148.484 434.98 148.144C433.823 147.701 432.682 147.207 431.559 146.662C430.436 146.082 429.516 145.35 428.802 144.464C428.087 143.544 427.729 142.386 427.729 140.989C427.729 138.979 428.478 137.309 429.976 135.981C431.508 134.618 433.619 133.936 436.308 133.936C437.84 133.936 439.27 134.209 440.597 134.754C441.925 135.299 443.066 135.964 444.019 136.747L441.976 139.405C441.125 138.757 440.24 138.229 439.321 137.82C438.402 137.412 437.397 137.207 436.308 137.207C434.742 137.207 433.585 137.565 432.836 138.28C432.121 138.996 431.763 139.831 431.763 140.785C431.763 141.568 432.019 142.215 432.529 142.727C433.04 143.203 433.704 143.629 434.521 144.004C435.338 144.345 436.206 144.703 437.125 145.077C438.317 145.52 439.491 146.031 440.649 146.61C441.806 147.156 442.759 147.905 443.508 148.859C444.291 149.779 444.683 151.023 444.683 152.59C444.683 153.919 444.325 155.145 443.61 156.269C442.929 157.394 441.908 158.297 440.546 158.978C439.219 159.659 437.568 160 435.593 160Z" fill="#053F57"/>
<path d="M456.986 160C455.216 160 453.531 159.676 451.931 159.029C450.331 158.348 448.935 157.53 447.744 156.576L449.837 153.765C450.927 154.617 452.05 155.332 453.208 155.912C454.365 156.457 455.676 156.729 457.14 156.729C458.774 156.729 459.999 156.355 460.816 155.605C461.633 154.821 462.042 153.901 462.042 152.845C462.042 151.994 461.752 151.278 461.174 150.699C460.629 150.12 459.914 149.643 459.029 149.268C458.178 148.859 457.293 148.484 456.374 148.144C455.216 147.701 454.076 147.207 452.952 146.662C451.829 146.082 450.91 145.35 450.195 144.464C449.48 143.544 449.122 142.386 449.122 140.989C449.122 138.979 449.871 137.309 451.369 135.981C452.901 134.618 455.012 133.936 457.701 133.936C459.233 133.936 460.663 134.209 461.991 134.754C463.318 135.299 464.459 135.964 465.412 136.747L463.37 139.405C462.518 138.757 461.633 138.229 460.714 137.82C459.795 137.412 458.791 137.207 457.701 137.207C456.135 137.207 454.978 137.565 454.229 138.28C453.514 138.996 453.157 139.831 453.157 140.785C453.157 141.568 453.412 142.215 453.923 142.727C454.433 143.203 455.097 143.629 455.914 144.004C456.731 144.345 457.599 144.703 458.518 145.077C459.71 145.52 460.884 146.031 462.042 146.61C463.199 147.156 464.152 147.905 464.901 148.859C465.684 149.779 466.076 151.023 466.076 152.59C466.076 153.919 465.718 155.145 465.004 156.269C464.323 157.394 463.301 158.297 461.94 158.978C460.612 159.659 458.961 160 456.986 160Z" fill="#053F57"/>
<path d="M482.526 159.387V125.862H492.994C495.275 125.862 497.301 126.169 499.071 126.782C500.841 127.361 502.22 128.349 503.207 129.746C504.228 131.109 504.739 132.948 504.739 135.265C504.739 137.855 504.058 139.95 502.696 141.551C501.335 143.118 499.496 144.192 497.181 144.771L505.709 159.387H500.909L492.841 145.231H486.764V159.387H482.526ZM486.764 141.756H492.381C495.003 141.756 497.011 141.227 498.407 140.171C499.803 139.081 500.501 137.446 500.501 135.265C500.501 133.051 499.803 131.5 498.407 130.615C497.011 129.729 495.003 129.286 492.381 129.286H486.764V141.756Z" fill="#053F57"/>
<path d="M520.751 160C518.539 160 516.53 159.489 514.726 158.467C512.921 157.411 511.492 155.912 510.436 153.97C509.381 152.028 508.853 149.711 508.853 147.019C508.853 144.294 509.381 141.96 510.436 140.018C511.526 138.076 512.921 136.577 514.624 135.521C516.326 134.465 518.113 133.936 519.985 133.936C523.151 133.936 525.585 134.993 527.288 137.105C529.024 139.217 529.892 142.045 529.892 145.588C529.892 146.031 529.875 146.474 529.841 146.917C529.841 147.326 529.807 147.684 529.739 147.99H512.99C513.16 150.614 513.977 152.709 515.441 154.276C516.939 155.843 518.879 156.627 521.262 156.627C522.454 156.627 523.543 156.457 524.53 156.116C525.551 155.741 526.522 155.264 527.441 154.685L528.922 157.445C527.866 158.126 526.658 158.722 525.296 159.233C523.968 159.744 522.454 160 520.751 160ZM512.938 144.975H526.215C526.215 142.454 525.671 140.546 524.581 139.251C523.526 137.923 522.028 137.258 520.088 137.258C518.351 137.258 516.785 137.94 515.39 139.302C514.028 140.631 513.211 142.522 512.938 144.975Z" fill="#053F57"/>
<path d="M540.467 160C538.901 160 537.761 159.523 537.046 158.569C536.365 157.581 536.024 156.184 536.024 154.378V123H540.212V154.685C540.212 155.332 540.331 155.809 540.569 156.116C540.808 156.389 541.08 156.525 541.386 156.525C541.522 156.525 541.642 156.525 541.744 156.525C541.88 156.491 542.067 156.457 542.305 156.423L542.867 159.591C542.595 159.727 542.271 159.83 541.897 159.898C541.522 159.966 541.046 160 540.467 160Z" fill="#053F57"/>
<path d="M559.1 160C556.887 160 554.878 159.489 553.074 158.467C551.27 157.411 549.84 155.912 548.785 153.97C547.729 152.028 547.202 149.711 547.202 147.019C547.202 144.294 547.729 141.96 548.785 140.018C549.874 138.076 551.27 136.577 552.972 135.521C554.674 134.465 556.461 133.936 558.334 133.936C561.5 133.936 563.934 134.993 565.636 137.105C567.372 139.217 568.24 142.045 568.24 145.588C568.24 146.031 568.223 146.474 568.189 146.917C568.189 147.326 568.155 147.684 568.087 147.99H551.338C551.508 150.614 552.325 152.709 553.789 154.276C555.287 155.843 557.227 156.627 559.61 156.627C560.802 156.627 561.891 156.457 562.878 156.116C563.9 155.741 564.87 155.264 565.789 154.685L567.27 157.445C566.215 158.126 565.006 158.722 563.644 159.233C562.317 159.744 560.802 160 559.1 160ZM551.287 144.975H564.564C564.564 142.454 564.019 140.546 562.93 139.251C561.874 137.923 560.376 137.258 558.436 137.258C556.7 137.258 555.134 137.94 553.738 139.302C552.376 140.631 551.559 142.522 551.287 144.975Z" fill="#053F57"/>
<path d="M579.394 160C577.317 160 575.581 159.387 574.185 158.16C572.824 156.9 572.143 155.162 572.143 152.948C572.143 150.222 573.351 148.144 575.768 146.713C578.219 145.248 582.083 144.226 587.36 143.646C587.36 142.59 587.207 141.585 586.9 140.631C586.628 139.677 586.117 138.911 585.368 138.331C584.654 137.718 583.615 137.412 582.253 137.412C580.824 137.412 579.479 137.684 578.219 138.229C576.96 138.774 575.836 139.388 574.849 140.069L573.215 137.156C574.373 136.407 575.785 135.691 577.453 135.01C579.156 134.294 580.994 133.936 582.968 133.936C585.998 133.936 588.194 134.873 589.556 136.747C590.917 138.587 591.598 141.057 591.598 144.157V159.387H588.126L587.768 156.423H587.615C586.458 157.377 585.181 158.211 583.785 158.927C582.424 159.642 580.96 160 579.394 160ZM580.619 156.627C581.811 156.627 582.934 156.337 583.99 155.758C585.045 155.179 586.168 154.361 587.36 153.305V146.406C583.241 146.917 580.347 147.684 578.679 148.706C577.045 149.728 576.228 151.04 576.228 152.641C576.228 154.038 576.653 155.06 577.504 155.707C578.356 156.32 579.394 156.627 580.619 156.627Z" fill="#053F57"/>
<path d="M605.892 160C604.121 160 602.436 159.676 600.836 159.029C599.236 158.348 597.84 157.53 596.649 156.576L598.743 153.765C599.832 154.617 600.955 155.332 602.113 155.912C603.27 156.457 604.581 156.729 606.045 156.729C607.679 156.729 608.904 156.355 609.721 155.605C610.538 154.821 610.947 153.901 610.947 152.845C610.947 151.994 610.658 151.278 610.079 150.699C609.534 150.12 608.819 149.643 607.934 149.268C607.083 148.859 606.198 148.484 605.279 148.144C604.121 147.701 602.981 147.207 601.858 146.662C600.734 146.082 599.815 145.35 599.1 144.464C598.385 143.544 598.028 142.386 598.028 140.989C598.028 138.979 598.777 137.309 600.274 135.981C601.806 134.618 603.917 133.936 606.607 133.936C608.138 133.936 609.568 134.209 610.896 134.754C612.224 135.299 613.364 135.964 614.317 136.747L612.275 139.405C611.424 138.757 610.538 138.229 609.619 137.82C608.7 137.412 607.696 137.207 606.607 137.207C605.041 137.207 603.883 137.565 603.134 138.28C602.419 138.996 602.062 139.831 602.062 140.785C602.062 141.568 602.317 142.215 602.828 142.727C603.338 143.203 604.002 143.629 604.819 144.004C605.636 144.345 606.504 144.703 607.424 145.077C608.615 145.52 609.79 146.031 610.947 146.61C612.104 147.156 613.058 147.905 613.807 148.859C614.59 149.779 614.981 151.023 614.981 152.59C614.981 153.919 614.624 155.145 613.909 156.269C613.228 157.394 612.207 158.297 610.845 158.978C609.517 159.659 607.866 160 605.892 160Z" fill="#053F57"/>
<path d="M630.859 160C628.647 160 626.638 159.489 624.834 158.467C623.03 157.411 621.6 155.912 620.544 153.97C619.489 152.028 618.961 149.711 618.961 147.019C618.961 144.294 619.489 141.96 620.544 140.018C621.634 138.076 623.029 136.577 624.732 135.521C626.434 134.465 628.221 133.936 630.093 133.936C633.259 133.936 635.694 134.993 637.396 137.105C639.132 139.217 640 142.045 640 145.588C640 146.031 639.983 146.474 639.949 146.917C639.949 147.326 639.915 147.684 639.847 147.99H623.098C623.268 150.614 624.085 152.709 625.549 154.276C627.047 155.843 628.987 156.627 631.37 156.627C632.562 156.627 633.651 156.457 634.638 156.116C635.659 155.741 636.63 155.264 637.549 154.685L639.03 157.445C637.974 158.126 636.766 158.722 635.404 159.233C634.076 159.744 632.562 160 630.859 160ZM623.047 144.975H636.323C636.323 142.454 635.779 140.546 634.689 139.251C633.634 137.923 632.136 137.258 630.196 137.258C628.459 137.258 626.893 137.94 625.498 139.302C624.136 140.631 623.319 142.522 623.047 144.975Z" fill="#053F57"/>
<path d="M711.422 98.5079C705.802 98.5079 701.103 96.8494 697.325 93.5325C693.64 90.1234 691.797 85.4245 691.797 79.4355C691.797 72.0646 695.068 66.4442 701.61 62.5745C708.244 58.6126 718.701 55.8485 732.982 54.2821C732.982 51.4259 732.568 48.7079 731.739 46.128C731.001 43.5482 729.619 41.4751 727.592 39.9088C725.657 38.2503 722.847 37.4211 719.162 37.4211C715.292 37.4211 711.653 38.1582 708.244 39.6324C704.835 41.1065 701.794 42.765 699.122 44.6078L694.699 36.73C697.832 34.703 701.656 32.7681 706.17 30.9254C710.777 28.9905 715.753 28.0231 721.097 28.0231C729.297 28.0231 735.24 30.5569 738.925 35.6244C742.611 40.5998 744.453 47.2797 744.453 55.6642V96.8494H735.055L734.088 88.8335H733.673C730.541 91.4134 727.086 93.6707 723.308 95.6056C719.622 97.5405 715.661 98.5079 711.422 98.5079ZM714.739 89.3863C717.964 89.3863 721.005 88.6032 723.861 87.0368C726.717 85.4705 729.758 83.2592 732.982 80.403V61.7452C721.834 63.1273 714.002 65.2004 709.487 67.9645C705.065 70.7286 702.854 74.2759 702.854 78.6063C702.854 82.3839 704.005 85.148 706.309 86.8986C708.612 88.5571 711.422 89.3863 714.739 89.3863Z" fill="#0C465E"/>
<path d="M765.586 96.8494V29.6816H776.919V96.8494H765.586ZM771.391 15.861C769.179 15.861 767.337 15.216 765.862 13.9261C764.48 12.5441 763.789 10.7013 763.789 8.39791C763.789 6.18662 764.48 4.38995 765.862 3.0079C767.337 1.62584 769.179 0.934814 771.391 0.934814C773.602 0.934814 775.398 1.62584 776.781 3.0079C778.255 4.38995 778.992 6.18662 778.992 8.39791C778.992 10.7013 778.255 12.5441 776.781 13.9261C775.398 15.216 773.602 15.861 771.391 15.861Z" fill="#0C465E"/>
<path d="M321.553 97.8495L303.587 29.9906H319.619L327.773 65.233C328.51 68.4578 329.109 71.6826 329.569 74.9074C330.122 78.1322 330.721 81.403 331.366 84.72H331.919C332.564 81.403 333.209 78.1322 333.854 74.9074C334.591 71.5905 335.374 68.3657 336.203 65.233L345.048 29.9906H359.56L368.543 65.233C369.373 68.4578 370.156 71.6826 370.893 74.9074C371.63 78.1322 372.367 81.403 373.104 84.72H373.657C374.302 81.403 374.901 78.1322 375.454 74.9074C376.006 71.6826 376.605 68.4578 377.25 65.233L385.404 29.9906H400.331L383.055 97.8495H364.121L356.243 66.2004C355.506 62.9756 354.815 59.7969 354.17 56.6643C353.525 53.4395 352.834 50.0304 352.097 46.437H351.544C350.899 50.0304 350.254 53.4395 349.609 56.6643C348.964 59.8891 348.273 63.1139 347.536 66.3386L339.797 97.8495H321.553Z" fill="#0C465E"/>
<path d="M413.743 97.8495V29.9906H426.872L427.978 42.0145H428.531C430.927 37.5919 433.829 34.2289 437.238 31.9255C440.647 29.5299 444.148 28.3321 447.742 28.3321C450.966 28.3321 453.546 28.7928 455.481 29.7142L452.717 43.5347C451.519 43.1662 450.413 42.8898 449.4 42.7055C448.386 42.5212 447.143 42.4291 445.668 42.4291C442.996 42.4291 440.186 43.4887 437.238 45.6078C434.29 47.6348 431.756 51.2282 429.637 56.3878V97.8495H413.743Z" fill="#0C465E"/>
<path d="M465.3 97.8495V29.9906H481.194V97.8495H465.3ZM473.316 18.1049C470.46 18.1049 468.156 17.2757 466.406 15.6172C464.655 13.9588 463.78 11.7475 463.78 8.98336C463.78 6.31138 464.655 4.14616 466.406 2.48769C468.156 0.829231 470.46 0 473.316 0C476.172 0 478.476 0.829231 480.226 2.48769C481.977 4.14616 482.852 6.31138 482.852 8.98336C482.852 11.7475 481.977 13.9588 480.226 15.6172C478.476 17.2757 476.172 18.1049 473.316 18.1049Z" fill="#0C465E"/>
<path d="M525.381 99.508C517.549 99.508 511.975 97.2506 508.658 92.7359C505.433 88.1291 503.821 82.1862 503.821 74.9074V42.5673H494.146V30.6816L504.65 29.9906L506.585 11.4711H519.852V29.9906H537.128V42.5673H519.852V74.9074C519.852 82.8312 523.031 86.7931 529.389 86.7931C530.586 86.7931 531.83 86.6549 533.12 86.3784C534.41 86.0099 535.516 85.6414 536.437 85.2728L539.201 97.0203C537.358 97.6652 535.239 98.218 532.844 98.6787C530.54 99.2316 528.053 99.508 525.381 99.508Z" fill="#0C465E"/>
<path d="M578.272 99.508C572.007 99.508 566.341 98.1259 561.273 95.3618C556.206 92.5056 552.198 88.4515 549.249 83.1997C546.301 77.8558 544.827 71.4522 544.827 63.9892C544.827 56.6182 546.301 50.2607 549.249 44.9168C552.29 39.5728 556.205 35.4727 560.997 32.6165C565.788 29.7603 570.809 28.3321 576.061 28.3321C582.234 28.3321 587.394 29.7142 591.54 32.4783C595.686 35.1503 598.819 38.9279 600.938 43.8111C603.057 48.6023 604.117 54.1766 604.117 60.534C604.117 63.851 603.886 66.4308 603.426 68.2735H560.306C561.043 74.2624 563.208 78.9154 566.801 82.2323C570.395 85.5492 574.909 87.2077 580.345 87.2077C583.294 87.2077 586.012 86.7931 588.5 85.9638C591.079 85.0425 593.613 83.7986 596.101 82.2323L601.491 92.1831C598.266 94.3022 594.673 96.0528 590.711 97.4349C586.749 98.8169 582.603 99.508 578.272 99.508ZM560.167 57.4935H590.296C590.296 52.2417 589.144 48.1416 586.841 45.1932C584.538 42.1527 581.082 40.6324 576.476 40.6324C572.514 40.6324 568.966 42.1066 565.834 45.055C562.793 47.9112 560.904 52.0574 560.167 57.4935Z" fill="#0C465E"/>
<path d="M619.297 97.8495V29.9906H632.426L633.532 42.0145H634.085C636.48 37.5919 639.383 34.2289 642.792 31.9255C646.201 29.5299 649.702 28.3321 653.295 28.3321C656.52 28.3321 659.1 28.7928 661.035 29.7142L658.271 43.5347C657.073 43.1662 655.967 42.8898 654.954 42.7055C653.94 42.5212 652.696 42.4291 651.222 42.4291C648.55 42.4291 645.74 43.4887 642.792 45.6078C639.843 47.6348 637.309 51.2282 635.19 56.3878V97.8495H619.297Z" fill="#0C465E"/>
<path d="M676.093 89.9315C676.093 94.3045 672.548 97.8495 668.175 97.8495C663.802 97.8495 660.257 94.3045 660.257 89.9315C660.257 85.5584 663.802 82.0134 668.175 82.0134C672.548 82.0134 676.093 85.5584 676.093 89.9315Z" fill="#A6112A"/>
<path d="M795.934 13.0862L795.934 3.66123L793 3.66123L793 2L800.67 2L800.67 3.66123L797.735 3.66123L797.735 13.0862L795.934 13.0862Z" fill="#0C465E"/>
<path d="M802.36 13.0862L802.36 2L804.394 2L806.195 7.42442C806.309 7.77475 806.418 8.13638 806.521 8.50931C806.625 8.87094 806.733 9.23257 806.847 9.59419L806.909 9.59419C807.023 9.23257 807.127 8.87094 807.22 8.50931C807.323 8.13638 807.432 7.77475 807.546 7.42442L809.3 2L811.35 2L811.35 13.0862L809.688 13.0862L809.688 8.01772C809.688 7.7578 809.694 7.47528 809.704 7.17015C809.725 6.86503 809.745 6.55991 809.766 6.25478C809.787 5.93836 809.813 5.63323 809.844 5.33941C809.875 5.03429 809.901 4.75176 809.921 4.49184L809.859 4.49184L809.036 7.06845L807.375 12.0521L806.304 12.0521L804.627 7.06845L803.82 4.49184L803.758 4.49184C803.778 4.75176 803.799 5.03429 803.82 5.33941C803.851 5.63323 803.877 5.93836 803.897 6.25478C803.928 6.55991 803.949 6.86503 803.959 7.17015C803.98 7.47528 803.99 7.7578 803.99 8.01772L803.99 13.0862L802.36 13.0862Z" fill="#0C465E"/>
</svg>
