<?xml version="1.0" encoding="UTF-8" standalone="no"?>
<!-- Created with Inkscape (http://www.inkscape.org/) -->

<svg
   width="122.82632mm"
   height="81.3545mm"
   viewBox="0 0 122.82632 81.354499"
   version="1.1"
   id="svg5"
   sodipodi:docname="brain.svg"
   inkscape:version="1.1 (c68e22c387, 2021-05-23)"
   xmlns:inkscape="http://www.inkscape.org/namespaces/inkscape"
   xmlns:sodipodi="http://sodipodi.sourceforge.net/DTD/sodipodi-0.dtd"
   xmlns="http://www.w3.org/2000/svg"
   xmlns:svg="http://www.w3.org/2000/svg">
  <sodipodi:namedview
     id="namedview7"
     pagecolor="#ffffff"
     bordercolor="#666666"
     borderopacity="1.0"
     inkscape:pageshadow="2"
     inkscape:pageopacity="0.0"
     inkscape:pagecheckerboard="0"
     inkscape:document-units="mm"
     showgrid="false"
     inkscape:zoom="0.52410025"
     inkscape:cx="-40.946814"
     inkscape:cy="22.08363"
     inkscape:window-width="1920"
     inkscape:window-height="1017"
     inkscape:window-x="1912"
     inkscape:window-y="-8"
     inkscape:window-maximized="1"
     inkscape:current-layer="layer1" />
  <defs
     id="defs2" />
  <g
     inkscape:label="Layer 1"
     inkscape:groupmode="layer"
     id="layer1"
     transform="translate(-232.18454,-99.726677)">
    <path
       style="fill:#000000;stroke-width:0.414618"
       d="m 313.49725,179.93269 c -1.01934,-0.7117 -3.61404,-2.22086 -5.76597,-3.3537 -2.15195,-1.13283 -5.08491,-3.02355 -6.51769,-4.2016 -1.97385,-1.62292 -3.19946,-2.28242 -5.05818,-2.72187 -3.18477,-0.75296 -5.32901,-1.88437 -7.12684,-3.76047 -0.89146,-0.93025 -1.69007,-1.4214 -2.07059,-1.27342 -0.34069,0.13252 -1.3022,1.20407 -2.1367,2.38127 -3.04103,4.28987 -7.28644,5.63469 -11.36128,3.59891 -1.19787,-0.59845 -3.01194,-1.9113 -4.03127,-2.91744 -1.22891,-1.213 -2.36964,-1.92586 -3.38569,-2.11578 -1.88941,-0.35317 -3.95285,-2.05669 -4.70703,-3.88598 -0.31201,-0.75683 -0.66465,-1.37604 -0.78362,-1.37604 -0.11893,0 -1.83083,0.85351 -3.80413,1.89669 -2.95792,1.56369 -4.11027,1.94057 -6.56359,2.14667 -4.05135,0.34034 -8.23959,-1.15238 -11.37077,-4.05264 -2.36677,-2.1922 -3.19391,-3.80208 -5.24942,-10.21702 -1.10951,-3.46259 -1.34353,-4.8584 -1.37306,-8.18948 -0.0349,-3.93162 2.3e-4,-4.08489 1.68091,-7.34115 0.94409,-1.82914 1.91442,-4.07049 2.15628,-4.9808 0.61271,-2.30607 2.81592,-4.74959 6.54197,-7.25549 1.95769,-1.31663 3.82847,-3.00716 4.87581,-4.40604 1.97745,-2.64119 3.07921,-3.59004 5.22247,-4.4976 0.85463,-0.3619 2.37621,-1.34091 3.3813,-2.17559 1.16146,-0.96455 2.96617,-1.87369 4.95208,-2.49465 1.71853,-0.53737 3.90053,-1.43167 4.84888,-1.98734 0.94834,-0.55567 2.81452,-1.41846 4.14708,-1.9173 1.33254,-0.49886 3.20218,-1.36989 4.15474,-1.93563 1.80381,-1.07135 3.10104,-1.32704 3.10104,-0.61125 0,0.22959 -0.24953,0.41741 -0.5545,0.41741 -0.30499,0 -1.14708,0.29958 -1.87132,0.66574 -1.12684,0.5697 -1.23994,0.76003 -0.78403,1.31925 0.47546,0.5832 0.43668,0.59287 -0.36045,0.0898 -0.78299,-0.49412 -1.25206,-0.42101 -3.80056,0.59231 -1.59902,0.6358 -3.51376,1.56941 -4.25495,2.07467 -0.7412,0.50527 -2.55231,1.27847 -4.02471,1.71823 -2.91431,0.87045 -4.49721,1.79334 -4.51746,2.63389 -0.0156,0.61977 -4.94021,5.66941 -5.23671,5.36893 -0.4274,-0.43317 0.77838,-1.9971 1.36412,-1.7693 0.33418,0.13 0.50591,0.0696 0.38161,-0.13425 -0.12422,-0.2038 0.42209,-0.94724 1.21418,-1.65207 0.79208,-0.70483 1.44015,-1.41025 1.44015,-1.56763 0,-0.15744 -0.32434,0.003 -0.72075,0.35585 -0.3964,0.35311 -1.7997,1.15354 -3.11842,1.77875 -2.66564,1.26379 -3.46866,2.46958 -2.43514,3.65658 0.64522,0.74105 0.39462,0.93883 -0.98118,0.7744 -0.5534,-0.0661 -1.4265,0.93306 -1.54792,1.77149 -0.12017,0.83001 -1.10422,1.97596 -1.48951,1.73463 -0.1733,-0.10854 -1.17164,0.73071 -2.21854,1.865 -1.04692,1.13431 -1.90348,1.93665 -1.90348,1.783 0,-0.15366 0.77611,-1.08082 1.7247,-2.06036 2.01706,-2.08291 1.83559,-2.83855 -0.28756,-1.19735 -1.54791,1.19656 -3.16456,3.49388 -3.68914,5.24244 -0.40447,1.34823 -1.9033,3.85849 -2.15283,3.60561 -0.10585,-0.10712 0.0198,-0.5965 0.27895,-1.08733 0.2592,-0.49083 0.41322,-1.19358 0.34226,-1.56166 -0.11269,-0.58461 -0.20709,-0.57173 -0.74678,0.10207 -0.35493,0.44308 -0.39873,0.63786 -0.1029,0.45778 0.28315,-0.17241 0.51482,-0.11453 0.51482,0.12858 0,0.2431 -0.27799,0.44202 -0.61777,0.44202 -0.42978,0 -0.61779,0.43828 -0.61779,1.44017 0,0.79208 -0.23268,1.59036 -0.51708,1.77395 -0.70983,0.4582 -1.66141,3.34851 -1.29842,3.94375 0.173,0.28368 0.11628,0.37215 -0.13698,0.21352 -0.23779,-0.14892 -0.54443,0.0252 -0.68143,0.38704 -0.34829,0.91987 -0.3124,1.0959 0.16278,0.79827 0.22652,-0.14182 0.41185,0.0459 0.41185,0.41741 0,0.37144 -0.18533,0.55928 -0.41185,0.4174 -0.63277,-0.39634 -0.48894,0.071 0.25341,0.82329 0.61246,0.62069 0.61104,0.73494 -0.0177,1.43914 -0.55901,0.62603 -0.57958,0.80516 -0.11317,0.98654 0.37656,0.1464 0.50663,0.658 0.38351,1.50821 -0.10243,0.70763 -0.33349,1.19441 -0.51338,1.08174 -0.1799,-0.11264 -0.23017,-0.58033 -0.11176,-1.03924 0.12795,-0.49609 0.0125,-0.83438 -0.28503,-0.83438 -0.63548,0 -0.13356,5.07334 0.54481,5.50785 0.24936,0.1597 0.33581,0.40949 0.19214,0.55511 -0.54017,0.54742 2.60582,8.65211 3.28006,8.45011 0.39022,-0.1169 3.18733,2.71607 3.07206,3.11147 -0.0929,0.31899 4.23344,2.4516 4.75122,2.34202 0.16602,-0.0352 0.63996,0.0854 1.05321,0.26765 0.41325,0.18234 1.43259,0.13015 2.26521,-0.11611 0.8326,-0.24619 2.40676,-0.67529 3.49813,-0.95356 1.99206,-0.50792 1.98098,-1.27039 -0.0125,-0.88411 -0.7317,0.14183 -0.97316,0.0568 -0.77278,-0.27173 0.1603,-0.26286 0.88285,-0.49011 1.60568,-0.505 1.22466,-0.0252 1.16739,-0.0857 -0.8401,-0.88764 -1.2217,-0.48804 -2.04106,-1.04631 -1.89268,-1.28962 0.15192,-0.2491 0.0595,-0.30237 -0.22056,-0.127 -0.26522,0.16612 -0.36627,0.49218 -0.22454,0.72455 0.14336,0.23522 -0.0819,0.38616 -0.50811,0.34051 -1.36631,-0.1464 -1.84986,0.005 -1.55645,0.48564 0.17545,0.28772 0.0644,0.39225 -0.2846,0.26812 -0.31467,-0.11185 -0.5464,-0.5119 -0.51494,-0.88895 0.0314,-0.37704 -0.19439,-0.68551 -0.50189,-0.68551 -0.32777,0 -0.46101,0.25905 -0.32203,0.62609 0.25614,0.67649 -0.4732,0.87692 -0.86329,0.23726 -0.13044,-0.21387 0.18298,-0.69661 0.69645,-1.07276 0.87007,-0.63742 0.87754,-0.67868 0.1099,-0.6066 -0.45304,0.0426 -1.00905,0.0279 -1.23557,-0.0325 -0.22652,-0.0604 -0.76615,-0.12905 -1.19919,-0.1524 -0.43303,-0.0233 -0.85663,-0.25041 -0.94131,-0.50444 -0.10508,-0.31525 0.52369,-0.39591 1.9802,-0.25409 1.31036,0.12763 2.03983,0.0532 1.88974,-0.19301 -0.14243,-0.23355 0.24028,-0.32875 0.91689,-0.22811 1.03128,0.15335 1.1823,0.0281 1.34842,-1.11902 0.11006,-0.75977 0.005,-1.29441 -0.25642,-1.29817 -0.24392,-0.003 -0.1962,-0.16525 0.10601,-0.35943 0.42565,-0.27344 0.32049,-0.53562 -0.46648,-1.16298 -1.11136,-0.88599 -3.42534,-5.14963 -2.79481,-5.14963 0.21506,0 0.50383,0.36018 0.64168,0.80039 0.38293,1.22273 1.88266,2.99389 2.30897,2.72687 0.20838,-0.13047 0.37888,-0.0584 0.37888,0.16036 0,0.51995 2.58895,-0.0715 5.11298,-1.16791 1.2482,-0.54225 1.83564,-1.01659 1.64536,-1.32861 -0.17025,-0.27919 -0.11737,-0.37344 0.12453,-0.22193 0.23123,0.14482 0.73454,-0.0883 1.11845,-0.51831 0.54374,-0.60893 0.57865,-0.83007 0.15801,-1.0007 -0.34621,-0.14041 -0.27535,-0.23087 0.19742,-0.25199 0.40558,-0.0181 1.28364,-0.44224 1.95124,-0.94246 0.6676,-0.50023 1.3065,-0.81559 1.41976,-0.70081 0.11332,0.11485 -0.39413,0.64825 -1.12754,1.18547 -0.73341,0.53723 -1.84677,1.59179 -2.47415,2.34347 -0.69484,0.83252 -2.0611,1.71573 -3.49548,2.25963 -2.54095,0.96349 -3.08615,1.47718 -2.74559,2.58689 0.13449,0.43844 -0.10679,0.91892 -0.62718,1.24824 -1.1047,0.69918 -1.07555,1.79389 0.0694,2.60665 1.18957,0.84442 1.95562,0.84614 0.91375,0.002 -0.76797,-0.62219 -0.75889,-0.63647 0.23018,-0.36222 0.5663,0.15696 1.08556,0.43066 1.15389,0.6081 0.34967,0.90784 5.55268,-1.69444 7.05438,-3.52824 0.89043,-1.08736 -0.15977,-0.74725 -1.21813,0.39447 -0.53828,0.58069 -1.22889,0.9585 -1.53467,0.83958 -0.3058,-0.11894 -0.44194,-0.0292 -0.30256,0.19935 0.13932,0.22856 -0.0827,0.52186 -0.49343,0.65179 -0.41076,0.12999 -1.09751,0.42859 -1.5261,0.66372 -0.66555,0.36511 -0.74747,0.30431 -0.56144,-0.41664 0.16724,-0.64815 0.0613,-0.7875 -0.45631,-0.60016 -0.37077,0.1341 -0.55211,0.10601 -0.40297,-0.0625 0.14912,-0.1686 0.53829,-0.34626 0.86482,-0.39484 0.87716,-0.13046 2.83135,-1.5086 2.62336,-1.85003 -0.0987,-0.1621 0.27004,-0.32207 0.81953,-0.35548 1.03943,-0.0633 2.21675,-0.82704 2.21675,-1.43818 0,-0.19426 -0.23168,-0.29597 -0.51483,-0.226 -0.28314,0.0699 -0.38045,0.05 -0.21623,-0.0443 0.16423,-0.0943 0.43172,-0.13993 0.59442,-0.10144 0.5099,0.121 2.1615,-3.7868 1.89638,-4.48702 -0.16452,-0.43451 -0.0889,-0.56397 0.21746,-0.37212 0.29129,0.18245 0.5776,-0.14119 0.75356,-0.85164 0.44897,-1.81295 -1.03514,-4.07008 -2.78781,-4.23986 -0.76146,-0.0738 -1.53436,-0.28204 -1.71759,-0.46284 -0.18322,-0.18081 0.6035,-0.23752 1.74827,-0.12605 2.45836,0.2394 3.54492,-0.36917 2.8862,-1.61654 -0.28235,-0.53467 -0.28235,-1.04726 0,-1.58193 0.44672,-0.84594 0.20305,-1.18334 -1.50204,-2.07969 -0.90233,-0.47434 -0.90406,-0.46822 -0.30902,1.09247 0.36599,0.95996 0.39849,1.25156 0.0837,0.75085 -0.28307,-0.45025 -0.99591,-1.32806 -1.58409,-1.95072 -0.9234,-0.97753 -0.97399,-1.15737 -0.37055,-1.31729 0.38437,-0.10191 1.14361,0.16132 1.6872,0.58487 1.34072,1.04469 2.27732,0.98117 3.47819,-0.23586 0.9956,-1.009 1.40274,-3.14947 0.59906,-3.14947 -0.22652,0 -0.41186,-0.29283 -0.41186,-0.65074 0,-0.3579 0.19277,-0.52998 0.42836,-0.38242 0.54292,0.34005 0.0557,-1.91953 -0.54215,-2.51475 -0.2829,-0.28163 -0.33413,-0.17274 -0.15747,0.33473 0.44001,1.264 -0.40872,0.3979 -1.13948,-1.16278 -0.37794,-0.8072 -0.98157,-1.46763 -1.34138,-1.46763 -0.3598,0 -1.09947,-0.48695 -1.64371,-1.08209 -0.5844,-0.63906 -1.24482,-0.9828 -1.61308,-0.83959 -0.34295,0.13346 -0.51825,0.0699 -0.38951,-0.14135 0.12873,-0.21108 0.0456,-0.50175 -0.18454,-0.64595 -0.23022,-0.1442 -0.41857,-0.0522 -0.41857,0.2045 0,0.25667 -0.18874,0.34845 -0.41942,0.20396 -0.42264,-0.26472 1.55162,-2.70836 2.18812,-2.70836 0.18144,0 0.78622,-0.49902 1.34396,-1.10893 1.24302,-1.35929 1.73701,-1.08461 0.62532,0.3477 -0.44217,0.56969 -0.9222,1.51335 -1.06675,2.09704 -0.22232,0.89765 -0.0344,1.20426 1.21885,1.98927 1.76219,1.10375 3.33734,3.09588 4.00093,5.06008 0.26456,0.78306 0.67346,1.5522 0.90864,1.7092 0.52916,0.35325 1.64219,-1.17015 1.28404,-1.75745 -0.1432,-0.23485 -0.10756,-0.4001 0.0791,-0.36723 1.05586,0.18589 1.80232,-0.0871 1.53335,-0.56084 -0.16295,-0.28696 -0.14944,-0.38748 0.0299,-0.22338 0.63718,0.58297 1.85891,-0.55918 3.78574,-3.53912 1.07408,-1.66114 1.92273,-3.13876 1.88587,-3.2836 -0.0369,-0.14482 0.33946,-0.61442 0.83623,-1.0435 0.58087,-0.5017 0.7233,-0.54299 0.39909,-0.11564 -0.27728,0.36548 -0.39437,0.77576 -0.2602,0.91173 0.13418,0.13599 -0.20118,0.87002 -0.74522,1.6312 -0.54404,0.76118 -1.25152,1.91712 -1.57217,2.56875 -0.32066,0.65162 -1.64539,2.1175 -2.94385,3.2575 -2.65142,2.32789 -4.05068,5.25825 -4.05068,8.48297 0,1.92731 0.90446,3.36273 1.87986,2.9834 0.29592,-0.115 0.60795,0.003 0.69338,0.26297 0.0946,0.28768 0.49097,0.13204 1.0143,-0.39836 0.47245,-0.47881 1.42931,-0.9975 2.12635,-1.15265 0.69703,-0.15523 1.22557,-0.47951 1.17453,-0.72078 -0.0511,-0.24127 0.1852,-0.52341 0.52498,-0.62698 0.54915,-0.16738 0.54915,-0.13914 0,0.25448 -0.38182,0.27367 -0.43006,0.44523 -0.1264,0.44919 0.61274,0.008 1.81427,-1.67648 1.52926,-2.14387 -0.11566,-0.18951 0.0465,-0.24474 0.36039,-0.12273 0.6433,0.25019 0.7831,-0.31761 0.80958,-3.28841 0.009,-1.10741 0.15255,-1.79283 0.31696,-1.52316 0.16506,0.27069 0.43283,-0.41416 0.59777,-1.52893 0.16433,-1.11058 0.59542,-2.5852 0.95799,-3.27694 0.36255,-0.69173 0.67956,-1.44553 0.70442,-1.6751 0.0946,-0.87306 0.71623,-1.86475 1.0413,-1.66114 0.3628,0.22724 0.75253,-0.74961 1.04273,-2.61363 l 0.17924,-1.15144 -0.60314,1.0435 c -0.67956,1.17569 -0.86727,0.39 -0.206,-0.86224 0.30078,-0.56956 0.29362,-0.80735 -0.0243,-0.80735 -0.24786,0 -0.34018,-0.18114 -0.20517,-0.40254 0.13495,-0.22139 -0.64172,-0.85039 -1.72609,-1.39776 -2.62127,-1.32321 -4.24025,-0.94438 -5.06469,1.18511 -0.74071,1.91322 -1.88401,3.01683 -1.24222,1.19908 l 0.42723,-1.21 -0.82596,0.9854 c -0.45428,0.54196 -0.82595,1.43416 -0.82595,1.98265 0,0.54849 -0.23343,0.99727 -0.51872,0.99727 -0.49354,0 -1.70057,-1.52735 -1.73178,-2.19137 -0.008,-0.17217 -0.15364,-0.31304 -0.32361,-0.31304 -1.77929,0 -1.73826,-0.0295 -0.90243,0.64913 0.76771,0.62333 0.76267,0.63105 -0.12718,0.19401 -0.50966,-0.25031 -0.92667,-0.63633 -0.92667,-0.85782 0,-0.22149 -0.55601,-0.40273 -1.23556,-0.40273 -1.58719,0 -1.64507,-1.01979 -0.1029,-1.81424 0.75445,-0.38867 1.40764,-0.45906 1.95632,-0.21084 0.75757,0.34269 0.74926,0.3583 -0.10352,0.19428 -0.50998,-0.0981 -0.83316,-0.0241 -0.71818,0.16449 0.11504,0.18855 -0.0238,0.45104 -0.30832,0.58331 -0.28456,0.13236 -0.054,0.12526 0.51226,-0.0158 1.45459,-0.36155 2.05086,-0.94249 1.75887,-1.71364 -0.1656,-0.43737 -0.0886,-0.56204 0.22569,-0.36521 0.31173,0.19526 0.39211,0.0743 0.23186,-0.34893 -0.13496,-0.35627 -0.0402,-0.64778 0.21064,-0.64778 0.25076,0 0.45592,-0.27065 0.45592,-0.60147 0,-0.3308 0.14648,-0.6932 0.32547,-0.80532 0.179,-0.11216 0.14461,0.90413 -0.0763,2.25832 -0.31315,1.91896 -0.27569,2.70097 0.16976,3.54449 l 0.57155,1.08233 0.98809,-1.69567 c 0.54345,-0.93262 1.16555,-1.69567 1.38244,-1.69567 0.21688,0 0.2621,0.21685 0.1004,0.48188 -0.18354,0.30097 -0.11286,0.36849 0.18833,0.17986 0.26522,-0.16612 0.37607,-0.47608 0.24634,-0.68881 -0.25937,-0.42532 0.62929,-0.83784 3.677,-1.70689 1.25978,-0.35923 2.26151,-0.95554 2.67705,-1.59359 0.38891,-0.59718 0.45071,-0.88704 0.14913,-0.69967 -0.28315,0.17593 -0.51482,0.15853 -0.51482,-0.0386 0,-0.19721 0.23167,-0.61152 0.51482,-0.92068 0.4187,-0.45714 0.39946,-0.49674 -0.1029,-0.21205 -0.53093,0.30084 -0.53893,0.25151 -0.057,-0.35086 0.30849,-0.38549 0.45332,-0.98503 0.32182,-1.33232 -0.3129,-0.82637 -0.0775,-0.79776 0.81521,0.0991 0.65402,0.65701 0.70084,0.66007 0.46576,0.0304 -0.14617,-0.39135 -0.002,-0.91826 0.3274,-1.19514 0.32381,-0.27237 0.49468,-0.64949 0.37969,-0.83804 -0.21135,-0.34661 3.21207,-3.47464 3.68032,-3.36276 0.13916,0.0333 0.85356,-0.26177 1.58738,-0.65564 0.7338,-0.39386 1.55483,-0.75507 1.82446,-0.80266 1.22878,-0.2169 3.42237,-1.09717 3.42237,-1.37337 0,-0.74856 4.55116,-1.44388 8.81045,-1.34604 3.7899,0.0871 4.94018,0.28425 7.41339,1.27091 1.61009,0.64231 3.62529,1.29623 4.47822,1.45314 2.31516,0.4259 9.7919,3.51517 11.29222,4.66578 0.72107,0.553 1.4342,1.00546 1.58471,1.00546 0.75334,0 7.47107,3.68333 8.50781,4.66482 0.6554,0.62047 2.15709,1.72865 3.33706,2.46262 1.18,0.73397 2.53239,1.73147 3.00534,2.21667 0.47295,0.48521 1.49228,1.36954 2.26521,1.96518 0.7729,0.59565 1.68136,1.62871 2.01879,2.29571 0.33741,0.66698 1.10364,2.07631 1.70272,3.13182 0.5991,1.0555 1.22487,2.37032 1.39064,2.92179 0.16576,0.55149 0.76115,1.62446 1.32311,2.38441 0.56195,0.75994 1.38553,2.43071 1.83016,3.71281 0.44465,1.28211 1.24717,2.9143 1.78339,3.62708 0.53622,0.7128 1.29403,2.45957 1.68401,3.88172 0.66387,2.42093 0.66572,2.76675 0.029,5.4262 -0.37404,1.56227 -0.69187,3.31005 -0.70632,3.88399 -0.014,0.57392 -0.6163,2.26142 -1.33746,3.75 -1.71865,3.54758 -2.73648,3.91061 -6.58701,2.34942 -3.22436,-1.30732 -3.75293,-1.36496 -3.2174,-0.35088 0.21484,0.40687 0.57517,1.76863 0.80069,3.02615 0.44417,2.47662 -0.0397,4.36463 -1.5474,6.0373 -0.41666,0.46228 -1.13766,1.59182 -1.60222,2.5101 -1.77473,3.50813 -6.52126,7.48495 -11.0091,9.22381 -2.84723,1.1032 -4.4956,1.26506 -10.4794,1.02902 -2.6759,-0.10554 -3.5362,0.0486 -4.22569,0.75711 -0.40705,0.4183 -0.35282,0.64285 0.26732,1.10683 0.85034,0.63622 4.15555,0.41721 5.10093,-0.33801 0.28862,-0.23056 0.62883,-0.31375 0.75602,-0.18485 0.41288,0.41844 -1.46205,1.17369 -3.45484,1.39163 -1.68821,0.18464 -2.1888,0.0421 -3.79787,-1.08132 z m 1.01005,-1.6458 c 0.1292,-0.21192 0.79601,-0.51017 1.48173,-0.6628 l 1.24676,-0.27753 -1.93433,-1.2985 c -1.06389,-0.71419 -2.96408,-2.57596 -4.22267,-4.13729 -1.25859,-1.56134 -2.57298,-2.8424 -2.92089,-2.8468 -0.3479,-0.005 -1.37186,-0.66182 -2.27548,-1.46091 -0.9036,-0.79909 -1.79487,-1.45288 -1.98061,-1.45288 -0.18573,0 -0.24185,-0.15713 -0.12468,-0.34926 0.49952,-0.81913 -2.35184,-0.11801 -3.17723,0.78115 -0.49488,0.53913 -0.57746,0.73513 -0.18355,0.43557 1.05605,-0.8031 3.20608,-0.2442 5.74426,1.49324 2.44837,1.67593 6.1011,5.11148 6.1011,5.73833 0,0.22468 -0.23166,0.1068 -0.51482,-0.26181 -0.28315,-0.3687 -2.18284,-1.25206 -4.22152,-1.96303 -2.03868,-0.71096 -4.44804,-1.82244 -5.35411,-2.46994 -2.60267,-1.8599 -2.70466,-1.86594 -1.77738,-0.10523 0.97542,1.852 4.45443,5.52071 4.45443,4.69731 0,-0.3252 0.51026,-0.14451 1.33854,0.47414 0.73619,0.54983 2.39693,1.42345 3.69051,1.94136 1.2936,0.51794 2.5673,1.20461 2.83046,1.52596 0.54644,0.6673 1.45281,0.76752 1.79952,0.199 z m 4.34408,-1.86575 c 0,-0.0902 -0.27802,-0.27217 -0.61779,-0.4043 -0.33978,-0.1322 -0.61778,-0.0584 -0.61778,0.16403 0,0.22236 0.278,0.4043 0.61778,0.4043 0.33977,0 0.61779,-0.0738 0.61779,-0.16403 z m 2.43681,-0.39419 c -0.42938,-0.35235 -3.67238,-1.49731 -3.67238,-1.29655 0,0.30089 2.52272,1.40037 3.26052,1.42103 0.3209,0.009 0.50623,-0.047 0.41186,-0.12447 z m -5.52574,-1.11137 c -0.13994,-0.22957 -0.43987,-0.41741 -0.66639,-0.41741 -0.22651,0 -0.29731,0.18784 -0.15731,0.41741 0.13994,0.22957 0.43987,0.41739 0.66639,0.41739 0.22652,0 0.29732,-0.18782 0.15731,-0.41739 z m 3.7067,-0.78393 c -1.35911,-0.63968 -4.13914,-2.43578 -6.17783,-3.99134 -4.72015,-3.60161 -5.27773,-3.974 -3.50077,-2.33802 3.80694,3.50487 10.17904,7.58244 11.73788,7.5112 0.22652,-0.011 -0.70015,-0.54218 -2.05928,-1.18184 z m 6.38376,-0.14782 c -2.20251,-0.97923 -6.82181,-3.35481 -7.32039,-3.76468 -1.30585,-1.07351 0.0956,-0.64849 2.85551,0.86601 1.66285,0.91249 3.48673,1.78413 4.05303,1.93697 0.5663,0.15286 0.0109,-0.26136 -1.23557,-0.92044 -1.24585,-0.65908 -4.27637,-2.56654 -6.73445,-4.2388 -6.02917,-4.10173 -10.56348,-6.27027 -10.56348,-5.05198 0,0.22957 0.19699,0.41739 0.43776,0.41739 0.24074,0 0.37975,0.37829 0.30888,0.84063 -0.0985,0.64283 0.84017,1.57415 3.9897,3.95834 3.76568,2.85061 9.08435,6.07876 9.94476,6.03594 0.19339,-0.009 -0.24151,-0.33832 -0.96644,-0.73044 -0.72495,-0.39213 -1.37363,-0.90078 -1.44151,-1.13035 -0.0679,-0.22959 -0.37485,-0.38798 -0.68216,-0.35202 -0.36688,0.0429 -0.41943,-0.0759 -0.15301,-0.34579 0.2664,-0.26997 1.16138,-0.0232 2.60615,0.71887 2.36879,1.21651 4.85471,2.2151 5.51902,2.21696 0.22652,8.4e-4 -0.0515,-0.20483 -0.61779,-0.45661 z m 5.35413,0.10207 c -2.71678,-0.61871 -4.73626,-0.91443 -4.48432,-0.65665 0.32201,0.32948 3.54916,0.97616 4.89617,0.98114 0.74212,0.003 0.62711,-0.0879 -0.41185,-0.32449 z m -14.8268,-0.16595 c 0,-0.0883 -0.50968,-0.47519 -1.13261,-0.85957 l -1.13259,-0.69888 0.97229,0.85957 c 0.94881,0.8388 1.29291,1.02481 1.29291,0.69888 z m 17.19496,-0.96183 c -0.39641,-0.10491 -1.04508,-0.10491 -1.44149,0 -0.39641,0.10507 -0.0721,0.19089 0.72074,0.19089 0.79282,0 1.11716,-0.086 0.72075,-0.19089 z m -4.51737,-0.77787 c -3.25769,-0.8004 -6.20918,-2.37922 -13.37304,-7.15351 -0.41032,-0.27346 -0.54267,-0.50825 -0.29407,-0.52175 0.24859,-0.0142 2.10193,1.0307 4.11855,2.32047 2.01663,1.28976 4.42851,2.68061 5.35975,3.09081 2.249,0.99063 7.23289,1.76531 10.04472,1.56133 l 2.26519,-0.16434 -2.65078,-0.0771 c -3.18513,-0.0928 -7.91452,-1.37468 -10.52318,-2.85232 -2.7562,-1.5612 -2.02747,-1.62924 1.27386,-0.11895 1.56161,0.71442 3.20996,1.38819 3.663,1.49725 1.45989,0.35147 7.80171,0.504 8.55733,0.20582 0.40263,-0.15891 -1.02866,-0.2889 -3.18066,-0.2889 -2.54239,0 -4.08973,-0.17942 -4.41817,-0.51227 -0.39938,-0.40474 -0.29368,-0.51618 0.50359,-0.53093 0.56136,-0.011 -0.27003,-0.44082 -1.87395,-0.97018 -2.42844,-0.80149 -6.60457,-2.76375 -4.73633,-2.2255 2.39447,0.68987 2.33255,0.57343 -0.41186,-0.77448 -6.20403,-3.0471 -10.07953,-4.35958 -12.85495,-4.35348 -2.94558,0.006 -4.53569,0.33849 -4.34842,0.90792 0.0705,0.21444 1.33315,0.80096 2.80584,1.30339 2.51989,0.8597 4.03697,1.70883 11.44934,6.40833 3.33745,2.11597 7.83195,3.89328 9.74381,3.8531 0.88718,-0.0186 0.57149,-0.18913 -1.11957,-0.60462 z m -3.10195,-4.3432 c -1.41576,-0.67879 -2.5741,-1.32209 -2.5741,-1.42957 0,-0.28925 5.04431,1.76603 5.52162,2.24976 0.72649,0.73627 -0.29263,0.45269 -2.94752,-0.82019 z m -5.2754,-1.50134 c -0.76771,-0.62333 -0.76266,-0.63104 0.12718,-0.19401 0.50967,0.25032 0.92667,0.54242 0.92667,0.64913 0,0.31939 -0.2136,0.22717 -1.05388,-0.45512 z m 0.50265,-0.86115 c -0.64296,-0.35312 -1.09005,-0.72207 -0.99353,-0.81989 0.1928,-0.1954 2.78033,1.03048 2.78033,1.31724 0,0.3217 -0.59924,0.15492 -1.7868,-0.49735 z m -3.38565,-0.80844 c -0.76771,-0.62335 -0.76265,-0.63105 0.12718,-0.19401 0.50968,0.25031 0.92669,0.54242 0.92669,0.64912 0,0.3194 -0.2136,0.22716 -1.0539,-0.45511 z m -11.15283,5.44923 c -0.22196,-0.58617 -0.7221,-0.80532 -1.51809,-0.66519 -0.18672,0.0328 -0.22996,-0.11989 -0.096,-0.33941 0.33415,-0.54796 -1.39055,-1.7085 -2.53905,-1.7085 -0.5159,0 -0.93673,0.23479 -0.93519,0.52175 0.005,0.82648 2.76392,2.52822 3.69814,2.28062 0.45576,-0.12084 0.93243,-0.0494 1.05929,0.15861 0.36818,0.60374 0.5904,0.43731 0.33097,-0.24788 z m -28.51235,-1.0435 c 0.39248,0 0.83705,-0.39426 0.98797,-0.87613 0.21396,-0.68318 0.5327,-0.83769 1.4475,-0.70162 0.6452,0.0959 1.0793,0.0207 0.96463,-0.16738 -0.11472,-0.18804 -0.52188,-0.34923 -0.90492,-0.35821 -0.38305,-0.009 -0.0942,-0.28167 0.64209,-0.60596 0.73619,-0.32429 1.33852,-0.88512 1.33852,-1.24629 0,-0.39573 0.491,-0.75621 1.23557,-0.90713 1.47134,-0.29823 1.51459,-0.51996 0.34876,-1.78817 -0.88303,-0.96058 -0.88961,-0.96112 -1.54446,-0.12762 -0.87467,1.11339 -2.20471,1.76964 -3.58653,1.76964 -0.7582,0 -1.47831,0.42322 -2.18984,1.28699 -0.91106,1.10599 -1.33502,1.28698 -3.01475,1.28698 -1.28573,0 -2.44858,-0.30939 -3.39807,-0.90411 -2.34042,-1.46593 -2.68197,-0.73392 -0.60993,1.30718 1.83477,1.80735 2.74219,2.15727 5.63398,2.17261 0.81471,0.005 1.22402,0.17795 1.07219,0.45481 -0.13512,0.24631 0.005,0.21305 0.30906,-0.0738 0.30505,-0.28696 0.87576,-0.52175 1.26823,-0.52175 z m 5.71136,-5.86824 c 0,-0.24312 0.18534,-0.32594 0.41186,-0.18407 0.22652,0.14182 0.41185,0.3408 0.41185,0.44204 0,0.10128 -0.18533,0.18407 -0.41185,0.18407 -0.22652,0 -0.41186,-0.19892 -0.41186,-0.44204 z m 24.29947,4.19864 c 0,-0.22957 -0.3816,-0.41741 -0.84801,-0.41741 -0.46641,0 -0.73348,0.18784 -0.59348,0.41741 0.13994,0.22957 0.52161,0.41739 0.84801,0.41739 0.32641,0 0.59348,-0.18782 0.59348,-0.41739 z m 22.68763,-0.25189 c -1.45283,-0.322 -2.72052,-0.50536 -2.81711,-0.40747 -0.23324,0.23638 3.12256,0.98661 4.42895,0.99015 0.5663,0.002 -0.15904,-0.26067 -1.61184,-0.58268 z m -35.24506,-0.17232 c 0.14227,-0.23332 0.4184,-0.32416 0.61362,-0.2019 0.19521,0.12226 0.45936,0.0511 0.58697,-0.15815 0.47106,-0.77246 -0.90075,-0.78473 -1.55201,-0.0142 -0.37088,0.43899 -0.50173,0.79814 -0.29079,0.79814 0.21093,0 0.49992,-0.19088 0.64221,-0.42419 z m -0.28331,-2.54345 c -0.28638,-0.17938 -0.36169,-0.47724 -0.16735,-0.6619 0.19433,-0.18465 0.42952,-0.12084 0.52264,0.14167 0.0931,0.26258 0.51824,0.38494 0.94474,0.27191 0.43279,-0.11469 0.68295,-0.44986 0.5661,-0.75847 -0.22722,-0.60014 0.64495,-1.17857 2.42862,-1.6107 0.70259,-0.17022 1.13259,-0.10349 1.13259,0.1756 0,0.24749 -0.18533,0.33389 -0.41185,0.19202 -0.22652,-0.14182 -0.41186,-0.0748 -0.41186,0.14924 0,0.224 0.21816,0.48095 0.48478,0.57102 1.03138,0.34842 -0.17881,1.24089 -1.35843,1.00179 -0.65772,-0.13331 -1.18562,-0.0592 -1.18562,0.16665 0,0.22383 -0.37068,0.40696 -0.82372,0.40696 -0.45303,0 -0.82371,0.17675 -0.82371,0.39276 0,0.60475 0.88302,1.01812 1.17865,0.55178 0.14461,-0.22804 0.72474,-0.56094 1.28926,-0.73979 0.95296,-0.3019 0.98243,-0.27125 0.41185,0.4282 -0.57786,0.70839 -0.55923,0.71844 0.31212,0.1685 0.50968,-0.32167 0.92668,-0.71257 0.92668,-0.86869 0,-0.15618 0.5715,-0.41104 1.26999,-0.56652 l 1.26998,-0.28269 -0.86568,-0.81737 c -0.59874,-0.56531 -0.75629,-1.01549 -0.5109,-1.45986 0.19514,-0.35338 0.27306,-1.0758 0.17317,-1.60536 -0.16319,-0.86522 -0.31299,-0.92468 -1.47712,-0.5863 -0.71253,0.20709 -1.80639,0.37653 -2.43082,0.37653 -0.62443,0 -1.13532,0.20793 -1.13532,0.46206 0,0.25413 -0.26604,0.3586 -0.59117,0.23216 -0.32514,-0.12653 -0.64948,-0.0756 -0.72074,0.11327 -0.0713,0.18874 -0.85046,0.83559 -1.73152,1.43745 -1.89466,1.29429 -1.5006,1.44391 0.68136,0.25871 0.85261,-0.46312 1.53836,-0.63665 1.53836,-0.38927 0,0.26434 0.37784,0.33659 0.92667,0.17719 0.71673,-0.20816 0.64676,-0.0853 -0.3089,0.54245 -0.67955,0.44636 -1.69889,1.34743 -2.26519,2.00232 -0.56631,0.65492 -0.70083,0.93489 -0.29895,0.62215 0.8473,-0.65931 1.51041,-0.25823 0.78631,0.47561 -0.26805,0.27166 -0.48119,0.69114 -0.47366,0.93219 0.008,0.24105 0.38623,-0.0158 0.84154,-0.56943 0.63326,-0.77086 0.70544,-1.08436 0.3071,-1.33385 z m 1.13467,-3.76292 c 0.12251,-0.20088 0.47886,-0.36523 0.7919,-0.36523 0.31305,0 0.66939,0.16435 0.7919,0.36523 0.1225,0.20087 -0.23385,0.36522 -0.7919,0.36522 -0.55803,0 -0.91439,-0.16435 -0.7919,-0.36522 z m 1.82154,-0.52527 c 0,-0.088 0.45772,-0.24872 1.01717,-0.3571 0.55945,-0.10838 0.91919,-0.0363 0.79941,0.16004 -0.2109,0.34584 -1.81658,0.52003 -1.81658,0.19706 z m 8.64896,5.37754 c 0,-0.66334 -1.44656,-0.87574 -1.81785,-0.26691 -0.30413,0.49874 0.1651,0.89302 1.06279,0.89302 0.41529,0 0.75506,-0.28176 0.75506,-0.62611 z m -32.44558,-1.1952 c 0.2767,0.17331 0.32916,0.0855 0.13714,-0.2293 -0.19793,-0.32457 0.003,-0.59334 0.55414,-0.73927 0.47582,-0.12605 0.86515,-0.41821 0.86515,-0.64912 0,-0.2309 0.31358,-0.16204 0.69684,0.15302 0.50188,0.41258 0.60834,0.42364 0.38051,0.0396 -0.23866,-0.40235 -0.009,-0.47856 0.93209,-0.31039 0.92605,0.16535 1.45471,-0.002 2.04715,-0.64597 0.51076,-0.55562 0.89743,-0.70705 1.07244,-0.42006 0.15052,0.24686 0.0465,0.44882 -0.2311,0.44882 -0.27765,0 -0.41949,0.0864 -0.31521,0.19215 0.29076,0.29467 2.00696,-0.24413 2.00696,-0.6301 0,-0.18732 -0.40133,-0.46968 -0.89185,-0.62747 -0.4905,-0.15777 -1.34582,-0.83365 -1.90068,-1.50193 -1.08726,-1.30954 -1.95114,-1.30252 -3.63581,0.0295 -0.47757,0.37761 -1.40424,0.66287 -2.05928,0.63389 -0.65504,-0.029 -1.95703,-0.082 -2.89333,-0.11785 -1.37806,-0.0528 -1.75601,-0.24411 -1.98402,-1.00436 -0.17066,-0.56897 -0.36547,-0.73349 -0.49421,-0.41739 -0.42666,1.04738 -0.95597,0.48521 -0.786,-0.83481 0.096,-0.7461 0.18716,-2.44765 0.20245,-3.78124 0.0173,-1.50381 0.18421,-2.32672 0.43965,-2.16672 0.22652,0.14182 0.41185,1.06865 0.41185,2.05946 0,4.9262 1.25506,6.1504 5.66944,5.53009 0.51322,-0.0721 1.16189,-0.39149 1.44151,-0.7097 0.39045,-0.44437 0.3173,-0.43801 -0.31533,0.0273 -0.75334,0.5542 -0.77729,0.54586 -0.28044,-0.0976 0.29881,-0.38699 1.06649,-0.82007 1.70595,-0.96241 1.10034,-0.24494 1.13775,-0.3257 0.69797,-1.50651 -0.34717,-0.93214 -0.34533,-1.32248 0.008,-1.54334 0.25959,-0.16259 0.5536,-0.8585 0.65336,-1.54647 0.0998,-0.68796 0.20915,-0.10222 0.2431,1.30161 0.0456,1.88588 0.28544,2.84071 0.91839,3.65624 0.47119,0.60706 1.03177,0.99409 1.24578,0.86006 0.21399,-0.13409 0.33814,0.005 0.27591,0.30906 -0.0716,0.34993 0.26469,0.53736 0.91647,0.51076 2.34226,-0.0956 3.19238,-0.48025 4.91107,-2.22206 0.99324,-1.00661 1.54559,-1.69334 1.22743,-1.52605 -0.31816,0.16728 -0.25412,0.0347 0.14227,-0.29459 0.73135,-0.60752 1.01715,-2.80237 0.36491,-2.80237 -0.73249,0 -2.52613,-3.19754 -2.47106,-4.40514 0.0453,-0.99405 0.0904,-1.04857 0.23538,-0.28444 0.0985,0.51994 0.30503,0.868 0.45872,0.77346 0.15364,-0.0945 0.6374,0.32531 1.07487,0.93296 l 0.79544,1.10485 -0.91612,-0.81139 c -0.7895,-0.69928 -0.87863,-0.71243 -0.64495,-0.0953 0.14912,0.39389 1.17397,1.10975 2.27738,1.59083 1.26313,0.5507 1.89814,1.04977 1.71444,1.34744 -0.16046,0.26001 -0.33364,0.75414 -0.38484,1.09807 -0.0971,0.65255 -6.2712,6.66559 -6.85295,6.67425 -0.18326,0.003 -0.21866,0.19278 -0.0786,0.42235 0.13994,0.22956 0.53253,0.41741 0.87233,0.41741 0.33977,0 0.50324,-0.18785 0.36323,-0.41741 -0.13994,-0.22957 0.0453,-0.4174 0.41185,-0.4174 0.36652,0 0.55922,-0.17576 0.42823,-0.39057 -0.1471,-0.24123 0.25866,-0.24617 1.06125,-0.0126 0.71471,0.20774 1.18012,0.25675 1.03427,0.10901 -0.14586,-0.14781 0.24599,-0.61036 0.87074,-1.02788 0.62477,-0.41751 0.90426,-0.76034 0.62111,-0.76186 -0.28315,-0.002 -0.51482,-0.173 -0.51482,-0.38108 0,-0.20808 0.37067,-0.28008 0.82371,-0.16001 0.47876,0.12684 0.82372,0.0126 0.82372,-0.27242 0,-0.26989 0.20936,-0.35956 0.46527,-0.19928 0.28497,0.17849 0.38474,0.0667 0.25742,-0.28841 -0.11441,-0.31892 -0.43016,-0.52823 -0.70183,-0.46516 -0.27168,0.0631 -0.38158,-0.0696 -0.24422,-0.29482 0.13729,-0.22523 0.52179,-0.3037 0.85432,-0.17438 0.33252,0.12936 0.60459,0.008 0.60459,-0.2716 0,-0.27893 0.27772,-0.39872 0.61777,-0.26645 0.3398,0.1322 0.6178,0.0811 0.6178,-0.11343 0,-0.19451 0.55135,-0.58511 1.22521,-0.868 1.52356,-0.63956 2.96744,-1.87711 2.61127,-2.23807 -0.14694,-0.14893 0.0389,-0.27067 0.41285,-0.27067 0.80937,0 3.61498,-2.47442 2.82575,-2.49217 -0.40574,-0.009 -0.37684,-0.18188 0.11347,-0.67888 0.36178,-0.36664 0.93103,-0.56037 1.26499,-0.4305 0.39747,0.1546 0.60719,-0.0254 0.60719,-0.52087 0,-0.74951 1.48506,-2.44228 1.83312,-2.08953 0.3157,0.31995 -0.48903,3.26883 -1.18639,4.34746 -0.36928,0.57117 -1.86293,1.82684 -3.31924,2.79036 -1.45631,0.96353 -2.56856,1.83222 -2.47165,1.93044 0.097,0.0983 0.66813,-0.14813 1.26939,-0.54737 0.60126,-0.39927 0.95398,-0.49761 0.78381,-0.21857 -0.50537,0.82872 0.70812,1.28137 1.30905,0.48831 0.46598,-0.61496 0.58112,-0.62401 0.94408,-0.0743 0.36744,0.55652 0.41949,0.55652 0.46848,0 0.0303,-0.34435 0.0213,-0.87737 -0.0201,-1.18446 -0.0526,-0.39056 0.19252,-0.47224 0.81557,-0.27184 0.75546,0.24301 0.85072,0.15883 0.62738,-0.55436 -0.14943,-0.47711 -0.0504,-0.97427 0.2289,-1.1492 0.28133,-0.17622 0.3845,-0.13157 0.24079,0.10396 -0.13822,0.22679 -0.0125,0.41233 0.27959,0.41233 0.36856,0 0.48272,-0.48949 0.37314,-1.60004 -0.0869,-0.88002 0.0195,-1.60003 0.23603,-1.60003 0.21665,0 0.31655,-0.42261 0.22203,-0.93914 -0.12842,-0.7019 -0.0193,-0.62281 0.43184,0.31304 0.33203,0.68872 0.61206,1.67481 0.62227,2.19136 0.0209,1.05551 0.41274,1.18824 1.23219,0.41739 0.37094,-0.34894 0.46445,-0.3589 0.28233,-0.03 -0.29989,0.54144 1.13586,1.1758 1.76676,0.78065 0.2129,-0.13331 0.52452,-0.017 0.69251,0.25839 0.63359,1.03896 0.86389,-1.13385 0.29457,-2.77896 -0.42074,-1.21576 -0.43845,-1.5258 -0.0655,-1.14786 0.281,0.28478 0.77452,0.51777 1.09674,0.51777 0.49831,0 0.50138,-0.1038 0.0205,-0.69443 -0.51255,-0.62969 -0.47884,-0.64778 0.36142,-0.19401 1.06946,0.57752 1.15963,1.00769 0.3534,1.68581 -0.3153,0.26521 -0.66247,0.82788 -0.77149,1.2504 -0.15146,0.58697 -0.0162,0.71998 0.57327,0.56375 0.42433,-0.11248 0.7715,-0.0158 0.7715,0.21564 0,0.23107 0.84203,0.82125 1.87117,1.31152 1.02914,0.49028 1.75955,1.07444 1.62312,1.29817 -0.13636,0.22371 -0.0518,0.40676 0.1881,0.40676 0.23989,0 0.43616,-0.18193 0.43616,-0.4043 0,-0.22236 0.29355,-0.29013 0.65232,-0.15066 0.41447,0.16118 0.49122,0.35459 0.21052,0.53041 -0.24299,0.15224 0.19752,0.29509 0.97889,0.31754 0.78138,0.0224 1.62687,-0.21097 1.87887,-0.51869 0.252,-0.30774 0.70389,-0.46397 1.00419,-0.34718 0.30031,0.11674 0.68783,-0.0202 0.86116,-0.30444 0.2199,-0.36059 0.10802,-0.43623 -0.3702,-0.25025 -1.03987,0.40441 -0.8556,0.0994 1.24436,-2.05934 1.08758,-1.11806 2.00122,-1.7663 2.09361,-1.48544 0.0901,0.27407 0.53006,0.49831 0.97758,0.49831 0.44753,0 0.7049,0.1784 0.57194,0.39646 -0.13294,0.21805 0.13402,0.60031 0.59347,0.84947 0.56244,0.30507 0.83524,0.31192 0.83524,0.021 0,-0.23765 0.21125,-0.4321 0.46941,-0.4321 0.86344,0 1.4818,-1.38308 1.29274,-2.89145 -0.29785,-2.37657 -1.08248,-3.28607 -2.83493,-3.28607 -1.02564,0 -1.33255,0.11769 -0.94416,0.36191 0.46529,0.29264 0.38721,0.54434 -0.4079,1.31482 -0.54085,0.5241 -0.86216,0.73108 -0.71404,0.45999 0.5817,-1.06458 -0.62426,-0.94928 -1.63532,0.15633 -0.58913,0.64424 -1.1497,1.1042 -1.2457,1.02211 -0.35656,-0.30481 -3.05559,0.41358 -2.84587,0.75749 0.11986,0.19657 -0.15574,0.25836 -0.61245,0.13725 -0.6387,-0.16926 -0.77128,-0.0639 -0.57429,0.45633 0.14088,0.37203 0.0641,0.67642 -0.17038,0.67642 -0.44853,0 -1.68361,-1.11085 -1.77347,-1.59507 -0.13839,-0.74596 -0.33256,-2.49872 -0.40652,-3.67058 -0.0682,-1.08072 -0.222,-1.26326 -0.9106,-1.08076 -0.63825,0.16916 -0.76942,0.0634 -0.57112,-0.46024 0.14149,-0.37391 0.0802,-0.79084 -0.13652,-0.92653 -0.21664,-0.13567 -0.39661,-8.4e-4 -0.39994,0.29969 -0.003,0.30051 -0.23502,0.0942 -0.51482,-0.45838 -0.27982,-0.55262 -0.95065,-1.07182 -1.49071,-1.15379 -0.88244,-0.13394 -0.9249,-0.0745 -0.41895,0.58736 0.53709,0.70251 0.52389,0.70275 -0.28703,0.005 -0.46753,-0.40225 -0.95379,-0.62622 -1.08059,-0.49771 -0.12671,0.12857 -0.63603,-0.34351 -1.13164,-1.0489 -1.09473,-1.55809 -2.98801,-2.61622 -4.00196,-2.23663 -0.41076,0.15382 -1.39551,0.68728 -2.18833,1.18552 -1.69838,1.06734 -3.28899,1.39787 -7.20747,1.49775 -1.58565,0.0404 -3.31468,0.23522 -3.8423,0.43289 -0.53776,0.20149 -1.23914,0.2007 -1.59618,-0.002 -0.75162,-0.42628 0.0162,-0.67643 3.48217,-1.13458 1.18922,-0.15728 2.16224,-0.44959 2.16224,-0.64958 0,-0.2 0.3816,-0.36363 0.84801,-0.36363 0.49437,0 0.7351,0.18518 0.57724,0.44402 -0.18438,0.30238 0.23488,0.35116 1.31422,0.15287 1.98854,-0.36522 3.82267,-1.29072 4.1214,-2.07965 0.12578,-0.33237 0.62596,-0.61026 1.11141,-0.61756 2.03335,-0.0306 3.349,-2.18087 2.95667,-4.83232 -0.18881,-1.27607 -0.0951,-2.08211 0.31016,-2.66853 0.43503,-0.62945 0.49754,-1.37322 0.24925,-2.96515 -0.34431,-2.20739 -0.1113,-4.40082 0.50864,-4.78915 0.19727,-0.12353 0.35866,-0.50639 0.35866,-0.85074 0,-0.34437 -0.14664,-0.53428 -0.32579,-0.42205 -0.17918,0.11216 -0.23682,-0.48714 -0.12811,-1.33192 l 0.19769,-1.53597 0.24237,1.2522 c 0.16936,0.87506 0.31921,1.05567 0.49753,0.59964 0.1404,-0.3589 0.165,-1.13059 0.0548,-1.71484 -0.16924,-0.8972 -0.38992,-1.03994 -1.4199,-0.91839 -0.72828,0.086 -1.1184,-0.0219 -0.96847,-0.26781 0.13807,-0.22643 0.10118,-0.40485 -0.0822,-0.39649 -0.6481,0.0297 -2.5984,3.05494 -2.5984,4.0307 0,0.54435 -0.30264,1.68803 -0.67255,2.54154 -0.39496,0.91137 -0.7007,2.84388 -0.74078,4.68235 -0.0777,3.56121 -1.14351,6.37977 -2.49929,6.60894 -0.45304,0.0765 -0.99333,0.30482 -1.20064,0.50722 -0.21979,0.21458 -0.56318,0.12274 -0.82371,-0.22034 -0.34288,-0.4515 -0.87778,-0.50694 -2.30014,-0.23835 -1.01934,0.19248 -3.61402,0.45013 -5.76598,0.57256 -2.15194,0.12242 -4.42925,0.42208 -5.06067,0.66591 -0.63142,0.24382 -2.38822,0.55247 -3.90397,0.6859 -3.15672,0.27787 -6.11898,1.42614 -8.64405,3.35068 -1.56698,1.19431 -1.91534,1.29713 -3.29485,0.97246 -2.06574,-0.48619 -2.16947,-0.47531 -1.91342,0.2009 0.12157,0.32114 0.0201,0.70977 -0.22556,0.86365 -0.24568,0.15381 -0.35852,0.42432 -0.25077,0.60101 0.10772,0.17669 -0.53593,0.86807 -1.43038,1.53641 -2.63034,1.96535 -4.37878,7.61575 -3.98272,12.87087 0.30004,3.98144 0.51844,4.78957 1.61568,5.97874 1.45705,1.57914 2.11024,1.79622 3.38622,1.12532 1.54766,-0.81374 1.8646,-0.75755 3.44164,0.61013 1.31381,1.13939 1.41522,1.15964 3.0133,0.60164 0.90957,-0.31758 1.85542,-0.45113 2.10189,-0.29674 z m -1.94434,-8.19629 c 0.13994,-0.22957 0.33627,-0.41741 0.43616,-0.41741 0.0999,0 0.18163,0.18784 0.18163,0.41741 0,0.22957 -0.19628,0.41739 -0.43617,0.41739 -0.23989,0 -0.32163,-0.18782 -0.18162,-0.41739 z m 1.02964,-1.01148 c 0,-0.93583 0.15894,-1.3001 0.51482,-1.17989 0.16989,0.0574 0.30889,-0.0969 0.30889,-0.34285 0,-0.57788 1.04779,-1.6398 1.618,-1.6398 0.50092,0 0.60232,0.6927 0.13231,0.90438 -0.16989,0.0765 -0.81856,0.76399 -1.44151,1.52771 -0.7265,0.8907 -1.13259,1.15261 -1.13259,0.73045 z m 9.72815,-0.46909 c -0.14197,-0.37498 -0.14897,-0.86089 -0.0156,-1.07979 0.13356,-0.21891 0.0509,-0.63228 -0.1836,-0.91861 -0.31447,-0.38403 -0.21555,-0.53669 0.37715,-0.58193 0.68736,-0.0525 0.77732,0.15223 0.62253,1.41716 -0.21462,1.75354 -0.44847,2.0933 -0.80065,1.16317 z m 8.18755,-2.69345 c -0.79416,-0.34585 -0.79132,-0.35976 0.0786,-0.38805 0.4963,-0.0161 1.01691,0.15849 1.15689,0.38805 0.30108,0.49371 -0.10196,0.49371 -1.23556,0 z m -24.6237,-1.66959 c 0.24221,-1.95299 0.3917,-2.36647 0.73123,-2.02237 0.11052,0.112 -0.0612,1.03558 -0.38157,2.05222 l -0.58261,1.84846 z m 26.47706,1.25794 c 0,-0.16476 1.29734,-0.90559 2.88298,-1.64631 2.58009,-1.20525 2.883,-1.47121 2.883,-2.53141 0,-0.65155 -0.23167,-1.27993 -0.51482,-1.39637 -0.38743,-0.15932 -0.36195,-0.32127 0.10289,-0.65449 0.49446,-0.35439 0.37113,-0.44974 -0.61778,-0.4776 -5.04069,-0.14198 -7.05906,-0.54921 -6.00246,-1.21102 0.69512,-0.4354 7.57753,0.59568 7.76418,1.16316 0.0881,0.26802 0.52644,0.4873 0.97396,0.4873 0.50184,0 0.70303,-0.18147 0.52497,-0.47348 -0.20002,-0.32799 0.10897,-0.41433 1.00533,-0.281 1.13449,0.16876 1.29406,0.0727 1.29406,-0.77872 0,-0.53417 0.18535,-0.9712 0.41187,-0.9712 0.61715,0 0.49611,1.36193 -0.21214,2.3867 -0.40749,0.58961 -1.15259,0.94766 -2.14762,1.03203 -1.35036,0.11453 -1.55445,0.28314 -1.79461,1.48314 -0.33003,1.64909 -1.03562,2.56102 -2.41839,3.12562 -1.52471,0.62254 -4.13549,1.09203 -4.13549,0.74365 z m -15.31654,-2.0561 c -0.36895,-1.16927 -0.51588,-2.02889 -0.32652,-1.91027 0.4611,0.28881 1.33287,3.01604 1.14584,3.58465 -0.0817,0.24835 -0.45037,-0.50511 -0.81932,-1.67438 z m -5.81402,0.57627 c -0.63557,-0.56668 -1.39451,-1.03031 -1.68655,-1.03031 -0.73328,0 -2.03098,-1.52506 -1.72486,-2.02706 0.13761,-0.22551 -0.0296,-0.69352 -0.3715,-1.03998 -0.38431,-0.38949 -0.60087,-1.31845 -0.56736,-2.4337 0.0489,-1.62495 0.0813,-1.67963 0.32758,-0.55157 0.56552,2.59059 2.0505,5.09993 3.33784,5.64034 0.6905,0.28985 1.54322,0.92375 1.89495,1.40865 l 0.63952,0.88161 -0.25303,-0.87912 c -0.17529,-0.60912 0.18829,-1.52927 1.1838,-2.99597 0.80785,-1.19022 1.24089,-2.18305 0.98924,-2.26805 -0.24615,-0.0831 0.22682,-0.67247 1.05102,-1.30958 0.82419,-0.63712 1.38862,-1.33863 1.25429,-1.55892 -0.13434,-0.2203 -0.0674,-0.34893 0.14866,-0.28585 0.21609,0.0631 0.90484,-0.4403 1.53059,-1.11861 0.95934,-1.03993 1.07517,-1.4012 0.73883,-2.30425 -0.21937,-0.58902 -0.30577,-1.34884 -0.19196,-1.68849 0.42502,-1.26864 1.43746,3.68916 1.49339,7.31305 0.0335,2.16913 0.28279,4.17475 0.58997,4.74612 0.33335,0.62003 0.36053,0.88212 0.0729,0.70191 -0.86,-0.53868 -1.63842,-3.10274 -1.39792,-4.60471 0.23595,-1.47356 -0.37549,-2.08369 -0.84513,-0.84332 -0.13045,0.34435 -0.43916,0.62609 -0.68616,0.62609 -0.24701,0 -0.31203,-0.22477 -0.14446,-0.49949 0.16753,-0.27472 -0.26457,-0.0887 -0.96024,0.41329 -0.69567,0.50204 -1.23881,1.24334 -1.20697,1.64734 0.0319,0.40402 -0.22013,0.73954 -0.5599,0.74559 -1.07023,0.0191 -1.57621,0.58326 -1.39438,1.55464 0.1538,0.82211 0.13247,0.83881 -0.17258,0.13441 -0.32371,-0.74755 -0.36789,-0.7525 -0.62623,-0.0702 -0.40915,1.08061 -0.33901,1.58811 0.175,1.26616 0.31834,-0.19941 0.31403,-0.0207 -0.014,0.60147 -0.60176,1.13954 -1.19682,1.10064 -2.62365,-0.17152 z m 5.0682,-3.95212 c 0,-0.22957 -0.0817,-0.4174 -0.18163,-0.4174 -0.0999,0 -0.29616,0.18783 -0.43617,0.4174 -0.13994,0.22958 -0.0582,0.41741 0.18163,0.41741 0.23989,0 0.43617,-0.18783 0.43617,-0.41741 z m 0.90128,-2.28665 c 0.29191,0.29584 1.71608,-1.39126 1.82825,-2.16576 0.11628,-0.80267 -2.19245,1.32916 -2.78769,2.57412 -0.36683,0.76722 -0.35232,0.77619 0.17912,0.1109 0.31805,-0.39818 0.66919,-0.63182 0.78032,-0.5192 z m 11.45438,6.39109 c 0,-0.4974 0.12889,-0.77371 0.28649,-0.61403 0.44513,0.45114 0.50763,1.51839 0.0889,1.51839 -0.20647,0 -0.37541,-0.40695 -0.37541,-0.90436 z m 24.5054,0.48696 c -0.13994,-0.22956 -0.0582,-0.41739 0.18161,-0.41739 0.23989,0 0.43616,0.18783 0.43616,0.41739 0,0.22957 -0.0817,0.4174 -0.18161,0.4174 -0.0999,0 -0.29616,-0.18783 -0.43616,-0.4174 z m -22.54909,-0.27643 c 0.28315,-0.1158 0.74649,-0.1158 1.02964,0 0.28315,0.11579 0.0515,0.21054 -0.51482,0.21054 -0.5663,0 -0.79797,-0.0948 -0.51482,-0.21054 z m 1.67316,-0.84349 c 0.29732,-0.12052 0.65254,-0.10569 0.78939,0.033 0.13683,0.13866 -0.10647,0.23734 -0.54056,0.21922 -0.47978,-0.02 -0.57738,-0.11895 -0.24883,-0.25218 z m -20.11142,-1.66 c 0.2336,-0.11721 0.32787,-0.37185 0.20951,-0.56595 -0.11831,-0.19411 -0.009,-0.48205 0.24295,-0.63989 0.28518,-0.17862 0.40435,-0.006 0.31561,0.45832 -0.0785,0.4099 -0.37885,0.79373 -0.66767,0.85293 -0.28881,0.0592 -0.334,0.0126 -0.1004,-0.10538 z m -5.49533,-0.76785 c -0.13045,-0.34436 -0.0576,-0.6261 0.16187,-0.6261 0.21941,0 0.39893,0.28174 0.39893,0.6261 0,0.34435 -0.0729,0.62611 -0.16187,0.62611 -0.089,0 -0.26853,-0.28176 -0.39893,-0.62611 z m 60.58186,-0.26049 c 0.27937,-0.28526 0.61171,-0.41352 0.73851,-0.28499 0.12686,0.12857 -0.10181,0.36189 -0.50796,0.51864 -0.58697,0.22653 -0.63427,0.17858 -0.23055,-0.23365 z m -0.45097,-0.99171 c 0.13045,-0.34436 0.42527,-0.6261 0.65529,-0.6261 0.24106,0 0.20104,0.26523 -0.0945,0.6261 -0.28199,0.34435 -0.57687,0.6261 -0.65528,0.6261 -0.0785,0 -0.036,-0.28175 0.0945,-0.6261 z m -44.33144,-2.7131 c 0,-0.22957 0.19627,-0.4174 0.43616,-0.4174 0.23989,0 0.32161,0.18783 0.18163,0.4174 -0.13994,0.22957 -0.33628,0.41739 -0.43617,0.41739 -0.0999,0 -0.18162,-0.18782 -0.18162,-0.41739 z m 3.91262,-0.4498 c 2.84172,-0.90969 3.50077,-0.97753 3.50077,-0.36037 0,0.24312 -0.16378,0.33945 -0.36396,0.21407 -0.20019,-0.12542 -1.26586,0.0494 -2.36817,0.38824 -1.10232,0.33892 -2.2822,0.60112 -2.62198,0.58267 -0.33978,-0.0185 0.49423,-0.38953 1.85334,-0.82461 z m 5.14047,-3.58245 c 0.23359,-0.11722 0.31995,-0.38484 0.19191,-0.5948 -0.1281,-0.20997 -0.0212,-0.38175 0.23768,-0.38175 0.61092,0 0.29818,0.9608 -0.35494,1.09046 -0.27466,0.0546 -0.30825,0.003 -0.0747,-0.1139 z m 2.067,-2.38877 c 0,-0.088 0.37093,-0.25832 0.82428,-0.37847 0.45335,-0.12021 0.72042,-0.0481 0.59348,0.16001 -0.22168,0.36352 -1.41776,0.54781 -1.41776,0.21846 z m 35.3372,27.62496 c 0.38439,-0.38959 0.49422,-0.38959 0.49422,0 0,0.27547 0.278,0.50088 0.61778,0.50088 0.33979,0 0.61779,-0.15082 0.61779,-0.33505 0,-0.18428 1.02095,-0.22116 2.26877,-0.082 1.24783,0.13914 2.4646,0.13046 2.70393,-0.0194 0.23931,-0.14987 -0.81776,-0.39111 -2.34904,-0.53603 -1.62051,-0.15334 -3.04347,-0.52628 -3.40457,-0.89226 -0.55265,-0.56007 -0.0414,-0.61795 4.67974,-0.52986 4.30469,0.0803 5.33173,0.21649 5.46834,0.72501 0.14959,0.55654 0.1155,0.55654 -0.30636,0 -0.35828,-0.47271 -0.52573,-0.49828 -0.68345,-0.10428 -0.11488,0.28696 -0.6568,0.52175 -1.20421,0.52175 -0.54743,0 -0.99532,0.15978 -0.99532,0.35507 0,0.19529 0.96057,0.20117 2.13462,0.0126 2.11084,-0.33817 3.66536,-1.30762 3.06782,-1.91321 -0.16972,-0.172 -3.65894,-0.45248 -7.75385,-0.62328 -4.09489,-0.1708 -7.54357,-0.4102 -7.66375,-0.53201 -0.12017,-0.12179 0.50738,-0.23357 1.39459,-0.2484 2.2364,-0.0374 5.95855,-0.36007 7.07018,-0.61295 0.65976,-0.15003 0.92667,-0.0196 0.92667,0.45308 0,0.6043 0.0593,0.60374 0.66119,-0.006 0.36364,-0.36854 0.96599,-0.58724 1.33852,-0.48601 0.37255,0.10128 1.23151,0.31034 1.90879,0.46466 0.6773,0.15429 1.36223,0.49505 1.52208,0.75716 0.15983,0.26211 0.41191,0.35363 0.56018,0.20338 0.14819,-0.15018 0.14025,-0.4851 -0.0176,-0.74411 -0.55338,-0.90744 -2.50426,-1.37478 -6.17906,-1.48021 -2.03869,-0.0585 -5.09671,-0.14466 -6.79561,-0.19161 -2.7841,-0.0768 -2.94668,-0.1251 -1.64743,-0.48977 0.79283,-0.22249 3.43639,-0.49259 5.8746,-0.60024 3.58029,-0.15807 4.71215,-0.0615 5.88366,0.50189 1.64297,0.79013 2.41477,0.53242 0.94157,-0.31439 -0.64486,-0.37069 -3.3377,-0.63135 -8.16941,-0.7908 -8.12135,-0.26801 -8.18562,-0.35299 -0.6178,-0.8168 l 5.35414,-0.32814 -6.69266,0.0958 c -4.33811,0.062 -6.69265,-0.0541 -6.69265,-0.33015 0,-0.23426 -0.23167,-0.13694 -0.51482,0.21628 -0.52461,0.65441 -5.13262,1.86362 -5.53764,1.45315 -0.12235,-0.12399 0.30897,-0.33805 0.95863,-0.47552 0.64967,-0.13741 1.73722,-0.4092 2.41677,-0.60381 l 1.23557,-0.35385 -1.23829,-0.0426 c -0.68105,-0.0235 -1.87345,0.14198 -2.64978,0.36765 -2.20619,0.64124 -1.98099,0.15003 0.24947,-0.54409 l 1.99117,-0.61972 -2.05927,0.23382 c -1.13261,0.12857 -2.87319,0.5846 -3.86796,1.01335 -2.14672,0.92527 -2.70724,0.7547 -0.777,-0.23643 l 1.35011,-0.69325 -1.42695,0.11375 c -1.232,0.0981 -1.50738,0.32879 -2.01571,1.68828 -0.32382,0.86605 -0.45908,1.70606 -0.30058,1.86669 0.15851,0.16064 1.1119,-0.008 2.11868,-0.37504 1.00677,-0.3669 1.83049,-0.5229 1.83049,-0.34667 0,0.17623 -0.47091,0.4402 -1.04648,0.5866 -0.57556,0.1464 -0.94629,0.43049 -0.82383,0.6313 0.12251,0.20081 1.15137,0.008 2.28647,-0.42964 1.13509,-0.43711 2.38616,-0.78315 2.78014,-0.76898 0.39398,0.0142 -0.16586,0.32386 -1.2441,0.68823 -1.88179,0.6359 -1.92611,0.68683 -1.10507,1.26965 0.60881,0.43216 1.38164,0.52719 2.68118,0.32969 1.1849,-0.18008 1.82582,-0.12194 1.82582,0.16549 0,0.24364 -0.40156,0.44298 -0.89236,0.44298 -1.5697,0 -0.33819,0.62405 1.33853,0.67827 2.73635,0.0885 3.13536,0.27035 1.20125,0.54742 l -1.85336,0.2655 2.47113,0.50856 c 1.35913,0.27971 3.11981,0.67178 3.91264,0.87125 0.79282,0.19949 1.54342,0.38645 1.66801,0.41546 0.12453,0.029 0.44891,-0.17265 0.72075,-0.44814 z m -1.64228,-1.87126 c 0.29731,-0.12053 0.65253,-0.1057 0.78939,0.033 0.13683,0.13867 -0.10632,0.23735 -0.54055,0.21922 -0.4798,-0.02 -0.57738,-0.11895 -0.24884,-0.25218 z m -6.17783,-1.6696 c 0.29731,-0.12052 0.65253,-0.10569 0.78939,0.033 0.13682,0.13867 -0.10632,0.23737 -0.54055,0.21924 -0.4798,-0.02 -0.57738,-0.11895 -0.24884,-0.25218 z m -16.15738,3.20693 c 0.32125,0 0.5841,-0.19373 0.5841,-0.4305 0,-0.70843 -1.0167,-0.88537 -2.2832,-0.39736 -0.94974,0.36595 -1.06788,0.53684 -0.58583,0.84744 0.3321,0.21398 0.85064,0.29712 1.15233,0.18473 0.30168,-0.11232 0.81134,-0.20431 1.1326,-0.20431 z m -10.35617,-2.02367 c -0.19203,-0.22605 -2.21161,1.35465 -2.22617,1.74237 -0.008,0.18964 0.51865,-0.0921 1.16835,-0.62611 0.64972,-0.53399 1.12573,-1.0363 1.05782,-1.11626 z m -0.15333,-2.78899 c 0.58084,-0.30512 2.15618,-0.68249 3.50078,-0.83859 3.22939,-0.37496 3.35854,-0.60975 0.3354,-0.60975 -3.11736,0 -5.54066,1.20583 -7.53973,3.75179 l -1.47107,1.87349 2.05927,-1.81108 c 1.13261,-0.9961 2.53452,-2.06073 3.11535,-2.36586 z m 10.03411,2.77472 c 0.3566,-0.58478 -1.38983,-2.55347 -2.26518,-2.55347 -1.26843,0 -0.91752,0.77475 0.54471,1.20264 l 1.33852,0.39168 -1.33852,0.0377 c -1.27497,0.0358 -1.66284,0.40463 -1.06397,1.01157 0.40265,0.40807 2.52247,0.3395 2.78444,-0.0901 z m -66.27468,-2.54911 c -0.6488,-0.68631 -1.28582,-1.13906 -1.41559,-1.00609 -0.21041,0.2156 1.96805,2.24671 2.4152,2.25187 0.099,0.001 -0.35083,-0.55946 -0.99961,-1.24578 z m 17.8601,0.98698 c 0.70788,-0.14341 1.28705,-0.42054 1.28705,-0.61567 0,-0.39461 -2.33063,-0.0382 -3.29484,0.50385 -0.53274,0.2995 -0.52566,0.34905 0.0515,0.36 0.36809,0.006 1.24844,-0.10475 1.95631,-0.24818 z m 48.9464,-3.01361 c -0.48853,-0.0811 -1.10077,0.17916 -1.40126,0.59562 -0.66654,0.92383 -0.36211,1.30647 0.47754,0.60022 0.53168,-0.44719 0.63286,-0.37645 0.66119,0.46228 0.0311,0.92448 0.0699,0.90708 0.5818,-0.26194 0.50894,-1.16223 0.486,-1.26255 -0.31927,-1.39618 z m 1.79582,1.70924 c 0.0195,-0.43638 0.11612,-0.5204 0.24023,-0.20872 0.33303,0.83643 0.75227,0.60282 0.81201,-0.45246 0.0584,-1.03016 -1.02506,-1.38912 -1.59327,-0.52791 -0.44352,0.67221 -0.38071,1.91953 0.0967,1.91953 0.22652,0 0.4265,-0.3287 0.44439,-0.73044 z m 34.94395,-0.76862 c -0.62463,-0.76275 -3.23144,-1.92057 -3.85209,-1.71091 -0.24263,0.082 0.39286,0.42727 1.41219,0.76735 1.12701,0.376 2.01385,0.97856 2.26289,1.53751 0.22524,0.50555 0.47444,0.72186 0.55375,0.48071 0.0794,-0.24116 -0.0903,-0.72475 -0.37674,-1.07466 z m -87.49915,0.68248 c 0.13387,-0.21954 0.56183,-0.28581 0.95098,-0.14735 0.5204,0.18529 0.5918,0.12384 0.26994,-0.23215 -0.3308,-0.36592 -0.83347,-0.33715 -2.05927,0.11784 -1.44487,0.5363 -1.50085,0.60513 -0.51337,0.63133 0.60957,0.0161 1.21783,-0.15018 1.35172,-0.36977 z m 56.06643,-0.33128 c 0.12267,-0.40174 0.39489,-1.05659 0.60486,-1.45523 0.5083,-0.96494 0.48258,-1.15351 -0.15727,-1.15351 -0.90461,0 -1.87227,0.98165 -2.1601,2.19135 -0.23337,0.98083 -0.14492,1.14784 0.60817,1.14784 0.4847,0 0.98167,-0.3287 1.10434,-0.73045 z m -52.55455,-0.49711 c 0,-0.44558 -0.18321,-0.92493 -0.40713,-1.06517 -0.24168,-0.15145 -0.29714,0.0355 -0.13651,0.45986 0.22279,0.58839 0.0945,0.66974 -0.72547,0.45983 -0.95153,-0.24361 -0.96034,-0.22793 -0.19668,0.35032 1.07775,0.81603 1.46575,0.76182 1.46575,-0.20484 z m 44.8049,-0.91415 c -0.53115,-0.33268 -1.56008,-0.0126 -1.56008,0.48617 0,0.52378 1.40343,0.70602 1.72864,0.22448 0.15794,-0.23386 0.082,-0.55365 -0.16856,-0.71065 z m -8.09722,-1.09314 c 0.51228,-0.66201 0.49773,-0.67678 -0.15551,-0.1576 -0.39641,0.31508 -0.72075,0.64378 -0.72075,0.73045 0,0.34354 0.33821,0.12242 0.87626,-0.57286 z m 46.89898,0.5464 c 0,-0.10128 -0.18535,-0.30015 -0.41187,-0.44204 -0.22652,-0.14182 -0.41185,-0.059 -0.41185,0.18406 0,0.24312 0.18533,0.44203 0.41185,0.44203 0.22652,0 0.41187,-0.0828 0.41187,-0.18405 z m -1.64744,-0.65074 c -0.33977,-0.22255 -0.89578,-0.3943 -1.23556,-0.38168 -0.40735,0.0158 -0.3372,0.14514 0.20594,0.38168 1.13222,0.49307 1.78248,0.49307 1.02962,0 z m -31.94519,-1.20899 c 0.12857,-0.21079 -0.7862,-0.44763 -2.03278,-0.52629 -2.45659,-0.15508 -2.72185,-0.0786 -1.4203,0.40939 1.28644,0.4823 3.19093,0.54678 3.45308,0.1169 z m 2.70341,0.0142 c 0,-0.16938 -0.45137,-0.30797 -1.00304,-0.30797 -0.55168,0 -0.93645,0.10916 -0.85503,0.24269 0.22161,0.36343 1.85807,0.42091 1.85807,0.0653 z m 32.87104,-0.21406 c 0.033,-0.25827 0.1141,-0.93915 0.18043,-1.51308 0.0959,-0.83017 0.32402,-1.02032 1.11591,-0.93014 1.30016,0.14813 1.57828,0.46581 0.8284,0.94645 -0.50816,0.32569 -0.48962,0.38934 0.11488,0.39471 0.90629,0.008 0.93666,-1.16506 0.0629,-2.42936 -0.61137,-0.88459 -0.69461,-0.90097 -1.17751,-0.2317 -0.28578,0.39612 -0.96275,0.76683 -1.50436,0.82383 -4.24833,0.4471 -7.78036,1.31437 -7.78036,1.91043 0,0.49381 1.54543,0.4381 1.85334,-0.0667 0.13994,-0.22956 0.53256,-0.41741 0.87233,-0.41741 0.33978,0 0.50138,0.19091 0.35908,0.42421 -0.14227,0.23333 -0.47755,0.29712 -0.74504,0.14183 -0.2675,-0.15539 -0.3628,-0.14277 -0.21179,0.0279 0.15099,0.17073 0.42902,0.32844 0.61779,0.35048 0.18875,0.0221 1.08454,0.26332 1.99062,0.53621 2.07578,0.62516 3.34625,0.6372 3.42339,0.0325 z m 6.82534,-1.09567 c 0.40656,-0.55395 0.36459,-0.55555 -0.3642,-0.0142 -0.45304,0.33678 -0.8886,0.65299 -0.96791,0.70267 -0.0794,0.0497 8.3e-4,0.32837 0.17837,0.6193 0.25158,0.41256 0.36347,0.39569 0.5084,-0.0765 0.10227,-0.33306 0.39261,-0.88729 0.64534,-1.23164 z m -19.61844,0.57171 c 0.50968,-0.13835 0.92668,-0.42869 0.92668,-0.64504 0,-0.21633 -0.22538,-0.25219 -0.50082,-0.0797 -0.27546,0.17254 -1.15581,0.44377 -1.95633,0.60273 -1.09178,0.21682 -1.19819,0.29961 -0.42584,0.33135 0.56631,0.0232 1.44664,-0.071 1.95631,-0.20939 z m 1.41336,-5.04406 c 0.28928,-0.35447 0.13574,-0.90278 -0.51029,-1.82226 l -0.92407,-1.31522 0.8857,0.4804 c 0.48713,0.26421 0.88568,0.30894 0.88568,0.0994 0,-0.45625 -1.03424,-1.38275 -1.27345,-1.14079 -0.0925,0.0935 -0.1955,-0.29559 -0.22904,-0.86463 -0.056,-0.95101 -0.005,-0.98235 0.644,-0.38798 0.44249,0.40583 0.84989,0.49977 1.09409,0.25228 0.2442,-0.24749 0.61784,-0.23072 1.00343,0.0451 0.49344,0.35293 0.45226,0.3895 -0.20938,0.18582 -0.6781,-0.20874 -0.64288,-0.11011 0.19927,0.5578 0.56263,0.44623 1.11864,0.66186 1.23557,0.47914 0.11689,-0.18271 0.58325,-0.45589 1.03629,-0.60706 0.45304,-0.15114 1.41465,-0.82093 2.13689,-1.48834 1.22576,-1.13266 1.28557,-1.31487 0.89817,-2.73676 -0.32482,-1.19227 -0.56545,-1.46036 -1.10725,-1.23368 -0.38074,0.15931 -1.06291,0.37618 -1.51597,0.48195 l -0.82369,0.19232 0.82369,-0.6752 c 1.10585,-0.90647 2.57315,-1.24314 3.19723,-0.73363 0.61216,0.49977 2.36283,-0.0765 2.36283,-0.77778 0,-0.35406 -0.15917,-0.34808 -0.59975,0.0226 -0.32984,0.27745 -0.77182,0.39666 -0.98215,0.26492 -0.55941,-0.35041 -0.82974,-2.71974 -0.29941,-2.62445 0.2419,0.0435 0.41797,-0.33935 0.39127,-0.85069 -0.0266,-0.51133 0.11535,-0.82706 0.31562,-0.70162 0.20028,0.12542 0.25753,0.40295 0.12718,0.61666 -0.13029,0.2137 -0.0442,0.38856 0.19117,0.38856 0.23547,0 0.36267,-0.56969 0.28268,-1.26597 -0.10928,-0.95139 0.0718,-1.38828 0.72879,-1.75827 0.48083,-0.27078 1.02701,-0.44777 1.21373,-0.39331 0.18673,0.0544 0.20932,-0.11453 0.0503,-0.37538 -0.15912,-0.26093 -0.0665,-0.61396 0.20583,-0.78455 0.63991,-0.4008 -0.50388,-3.35618 -1.29526,-3.34674 -0.38519,0.005 -0.36214,0.12021 0.0819,0.41102 0.3881,0.25416 0.43176,0.40698 0.11753,0.411 -0.27518,0.003 -0.6987,-0.36928 -0.94116,-0.82841 -0.36337,-0.68808 -0.31323,-0.83479 0.28526,-0.83479 0.51762,0 0.28418,-0.3692 -0.81304,-1.28579 -0.90749,-0.7581 -1.42063,-1.48614 -1.25035,-1.77395 0.15884,-0.26849 -0.029,-0.22681 -0.41745,0.0926 -0.61966,0.50956 -0.67352,0.4943 -0.43927,-0.12447 0.16583,-0.43793 -0.0257,-0.94662 -0.50538,-1.3422 -0.42482,-0.35035 -0.50712,-0.497 -0.18286,-0.32591 0.32424,0.1711 0.0926,-0.34923 -0.51482,-1.15628 -0.60741,-0.80708 -1.10436,-1.6543 -1.10436,-1.88275 0,-1.33161 -3.9441,-1.32245 -5.26104,0.0126 -0.57813,0.58592 -0.54781,0.62383 0.31588,0.39492 0.66409,-0.176 0.86557,-0.10586 0.66077,0.22995 -0.16204,0.26572 -0.56171,0.48314 -0.88811,0.48314 -0.32641,0 -0.59065,0.32871 -0.58717,0.73045 0.005,0.62425 0.0643,0.63943 0.40554,0.10428 0.32121,-0.5037 0.40049,-0.43768 0.40556,0.3377 0.003,0.53741 -0.1759,0.84966 -0.40556,0.7058 -0.73038,-0.45748 -0.4399,0.78803 0.68182,2.92357 1.4861,2.8292 2.30605,6.04563 1.72277,6.7579 -0.24539,0.29966 -0.80633,0.54483 -1.24653,0.54483 -0.44019,0 -1.15884,0.19444 -1.59698,0.4321 -1.00223,0.54359 -1.1089,0.10002 -0.56778,-2.36103 0.49602,-2.25577 0.26997,-3.49901 -0.86789,-4.77325 -0.44136,-0.49427 -0.74525,-0.99411 -0.67531,-1.11079 0.0699,-0.11674 -0.36826,-0.47261 -0.97375,-0.79098 -1.28675,-0.67656 -1.55314,-0.71972 -1.23643,-0.20037 0.12702,0.20816 -0.10476,0.28955 -0.51483,0.18086 -0.51291,-0.13599 -0.90038,0.14655 -1.24138,0.905 -0.27264,0.60644 -0.39767,1.26341 -0.27784,1.45991 0.11986,0.1965 0.0296,0.47526 -0.20069,0.61945 -0.60364,0.3781 -0.51473,2.33614 0.19921,4.3869 0.33978,0.97602 0.61778,2.59619 0.61778,3.60039 0,1.64119 0.0984,1.82583 0.97348,1.82583 0.53541,0 1.49409,-0.51655 2.1304,-1.14786 0.63632,-0.63132 1.03333,-0.93274 0.88225,-0.66984 -0.4161,0.72409 0.82432,1.02071 1.38831,0.33198 0.27082,-0.3307 0.7477,-0.60129 1.05975,-0.60129 0.31204,0 0.56736,-0.16363 0.56736,-0.3636 0,-0.19997 0.64567,-0.81042 1.43483,-1.35654 1.00128,-0.69293 1.36622,-1.21368 1.20781,-1.72341 -0.12485,-0.40174 -0.0293,-0.73045 0.21259,-0.73045 0.24177,0 0.43962,-0.56349 0.43962,-1.2522 0,-0.68872 -0.19628,-1.2522 -0.43618,-1.2522 -0.23988,0 -0.30538,0.23478 -0.14554,0.52176 0.21506,0.38603 0.16237,0.40221 -0.20259,0.0622 -0.50527,-0.47073 -0.5737,-1.03045 -0.41607,-3.40354 0.0788,-1.18566 0.1513,-1.26537 0.56943,-0.62609 0.57504,0.87909 2.70205,6.9542 2.98522,8.52634 0.1856,1.03042 -0.0199,1.22121 -2.69788,2.5044 -3.14381,1.50642 -3.74778,2.40148 -2.70689,4.01149 1.01218,1.56557 0.14602,3.56518 -1.89652,4.3783 -0.89437,0.35605 -2.00052,0.54813 -2.45813,0.42687 -0.46792,-0.124 -0.832,-0.0166 -0.832,0.24558 0,0.25634 0.26455,0.46608 0.58789,0.46608 1.0264,0 2.29509,2.09121 2.29509,3.78307 0,0.88301 0.28631,1.87365 0.64721,2.23941 0.35596,0.36076 0.53036,0.65591 0.38756,0.65591 -0.1429,0 -0.10975,0.23481 0.0735,0.52177 0.21844,0.34205 0.38121,0.0904 0.4726,-0.73047 0.0767,-0.6887 0.32562,-1.48036 0.55321,-1.75923 z m -6.66451,-14.52504 c 0,-0.31376 0.98405,-2.0461 1.30177,-2.29163 0.14975,-0.11564 0.13854,-0.96092 -0.0247,-1.87831 -0.23492,-1.32014 -0.26177,-4.8337 -0.0462,-6.05069 0.0204,-0.11485 0.29221,0.38592 0.60416,1.11269 0.78606,1.83127 0.58857,6.81835 -0.32599,8.23297 -0.62008,0.95909 -1.509,1.47453 -1.509,0.87497 z m 16.68014,-3.54224 c -0.13994,-0.22957 -0.0582,-0.41739 0.18163,-0.41739 0.23989,0 0.43616,0.18782 0.43616,0.41739 0,0.22959 -0.0817,0.41741 -0.18163,0.41741 -0.0999,0 -0.29616,-0.18782 -0.43616,-0.41741 z m -2.31398,-0.38261 c -0.0268,-0.13393 -0.0223,-0.39832 0.0109,-0.58755 0.0325,-0.18924 -0.11815,-0.23315 -0.33463,-0.0975 -0.48734,0.30524 -1.00349,-0.48627 -1.18354,-1.81497 -0.15457,-1.14024 -1.66326,-4.03129 -2.98975,-5.72897 -0.57221,-0.73232 -0.55397,-0.73895 0.37245,-0.13535 0.53579,0.34913 1.55512,1.75565 2.26521,3.1256 0.71006,1.36997 1.40419,2.58475 1.54247,2.69953 0.13822,0.11485 0.54408,0.78784 0.90176,1.49569 0.55229,1.09297 0.56094,1.28698 0.0574,1.28698 -0.32606,0 -0.6148,-0.10948 -0.64162,-0.24348 z m -14.77802,-6.29578 c 0,-0.22957 0.19627,-0.4174 0.43615,-0.4174 0.2399,0 0.32164,0.18783 0.18164,0.4174 -0.13995,0.22957 -0.33628,0.41739 -0.43618,0.41739 -0.0999,0 -0.18161,-0.18782 -0.18161,-0.41739 z m 21.97728,26.5049 c -0.16345,-0.43165 0.0265,-0.62609 0.61133,-0.62609 2.11957,0 3.954,-2.02464 3.10133,-3.4229 -0.15571,-0.25533 -0.0965,-0.34645 0.13184,-0.20333 0.53198,0.3332 1.48685,-2.57214 1.28485,-3.90939 -0.13667,-0.90517 -0.25096,-0.80628 -1.00618,0.871 -0.76776,1.7051 -3.02552,4.16022 -3.82581,4.16022 -0.50481,0 -1.10931,1.79541 -0.94861,2.81745 0.0813,0.51653 0.31432,0.93915 0.51797,0.93915 0.20365,0 0.2636,-0.28174 0.13325,-0.62611 z m -6.32677,-1.87816 c 0,-0.22957 0.19627,-0.41742 0.43616,-0.41742 0.23988,0 0.33231,0.17032 0.20537,0.37848 -0.12688,0.20816 0.14009,0.28018 0.59345,0.16003 0.45336,-0.12021 0.8243,-0.40447 0.8243,-0.63183 0,-0.22736 0.27118,-0.30792 0.60262,-0.17901 0.35325,0.1374 0.94978,-0.2129 1.4415,-0.84643 0.9403,-1.21152 1.10532,-2.00476 0.32403,-1.55773 -0.32529,0.18613 -0.30633,0.08 0.0515,-0.28842 0.43817,-0.45107 0.60901,-0.46492 0.75506,-0.0612 0.10382,0.28697 0.54399,0.52176 0.97816,0.52176 0.43416,0 0.79223,-0.23479 0.7957,-0.52176 0.005,-0.35478 0.1485,-0.32138 0.4507,0.10428 0.36708,0.51718 0.40072,0.4902 0.19339,-0.15492 -0.1658,-0.51589 0.0806,-1.09261 0.7259,-1.69865 1.20552,-1.13227 1.25843,-4.10253 0.0774,-4.34094 -1.27205,-0.25675 -3.0307,-2.57084 -1.95379,-2.57084 0.51482,0 0.38428,-1.82573 -0.17162,-2.40005 -0.71107,-0.73464 -1.52474,-0.65132 -1.23041,0.12605 0.14072,0.37146 0.0716,0.539 -0.16186,0.39277 -0.22392,-0.14025 -0.40712,-0.0562 -0.40712,0.18702 0,0.24312 -0.19628,0.44204 -0.43618,0.44204 -0.23989,0 -0.31881,-0.23479 -0.17538,-0.52175 0.14337,-0.28696 -0.031,-0.15713 -0.38754,0.28847 -0.78157,0.97674 -0.8269,1.48325 -0.13356,1.49187 0.37609,0.005 0.36318,0.1038 -0.0479,0.36768 -0.42655,0.27387 -0.4545,0.5501 -0.1155,1.14147 0.33434,0.5832 0.4511,0.6221 0.46249,0.15413 0.009,-0.36874 0.33308,-0.13756 0.78849,0.56253 0.53392,0.82074 0.8417,1.01453 0.99442,0.62611 0.16259,-0.41357 0.22975,-0.38609 0.25366,0.10381 0.0179,0.36647 0.32303,1.2565 0.67811,1.97787 0.77545,1.57533 0.64351,3.61679 -0.23374,3.61679 -0.38325,0 -0.57218,-0.3169 -0.49765,-0.83479 0.099,-0.68765 0.0456,-0.72444 -0.30258,-0.20869 -0.40588,0.60113 -0.47582,0.54762 -0.58979,-0.45122 -0.0283,-0.24817 -0.44093,-0.67079 -0.91696,-0.93917 -0.53588,-0.3021 -0.83624,-0.85009 -0.78872,-1.43889 0.0425,-0.52615 -0.12281,-0.88312 -0.37009,-0.79908 -0.24576,0.0836 -0.40145,0.79323 -0.34596,1.57708 0.14416,2.0361 -0.22294,3.30348 -0.95674,3.30348 -0.34884,0 -0.51971,0.18782 -0.37971,0.41739 0.13994,0.22957 -0.0249,0.4174 -0.36633,0.4174 -0.34148,0 -1.08753,0.43831 -1.65789,0.97402 -0.79002,0.74201 -0.92261,1.09001 -0.55665,1.46092 0.58834,0.59626 1.55123,0.63937 1.55123,0.0694 z m 6.17783,-9.20744 c 0,-0.24312 0.18533,-0.32595 0.41184,-0.18408 0.22653,0.14183 0.41188,0.34081 0.41188,0.44204 0,0.10128 -0.18535,0.18407 -0.41188,0.18407 -0.22651,0 -0.41184,-0.19891 -0.41184,-0.44203 z m -28.41803,6.39697 c 0,-0.11485 -0.38127,-0.10759 -0.84726,0.0158 -0.70326,0.18639 -0.76285,0.12147 -0.35073,-0.38176 0.39795,-0.48597 0.34132,-0.72389 -0.28536,-1.19861 -0.76155,-0.57691 -0.76046,-0.58811 0.0419,-0.43082 3.49995,0.68613 3.52895,0.68222 3.25165,-0.43746 -0.14305,-0.57785 -0.0993,-1.01292 0.0975,-0.96679 0.40614,0.0953 2.44914,-0.66345 3.5926,-1.33414 0.60127,-0.35268 0.69577,-0.33044 0.44403,0.10459 -0.17592,0.30391 0.0827,0.19476 0.57466,-0.24258 0.49199,-0.43732 0.90119,-0.62516 0.90932,-0.41739 0.008,0.20775 0.47405,-0.18575 1.03533,-0.87447 0.85281,-1.04644 1.0862,-1.14931 1.42036,-0.62609 0.34181,0.53516 0.4008,0.52 0.40619,-0.10428 0.003,-0.40173 0.19165,-0.73043 0.41816,-0.73043 0.22653,0 0.41186,-0.31306 0.41186,-0.69567 0,-0.38262 0.11239,-0.58176 0.24978,-0.44254 0.13744,0.13914 0.6204,-0.0969 1.07342,-0.52456 0.88761,-0.83807 0.68167,-1.78924 -0.30437,-1.40577 -0.33124,0.12873 -0.50762,0.38937 -0.39197,0.57903 0.11567,0.18965 0.022,0.4628 -0.20828,0.607 -0.23023,0.14419 -0.42141,-0.0776 -0.42488,-0.49291 -0.005,-0.62098 -0.0735,-0.64742 -0.38469,-0.14892 -0.2081,0.33338 -0.29261,0.74679 -0.1878,0.91866 0.10476,0.17187 -0.46343,0.24827 -1.26275,0.16975 -0.79931,-0.0786 -1.45542,-0.0224 -1.45802,0.12479 -0.003,0.14719 -0.79028,0.61262 -1.75039,1.03432 -2.83785,1.24647 -5.40126,2.42099 -6.18259,2.83279 -0.45833,0.24154 -1.02334,0.22588 -1.51738,-0.0421 -1.00987,-0.54775 -1.78818,-0.5492 -1.45494,-0.003 0.14228,0.23331 0.38489,0.34592 0.53914,0.25024 0.15426,-0.0958 0.28304,0.79344 0.28623,1.97583 0.008,2.82648 0.33833,3.60509 1.4105,3.32094 0.46689,-0.12353 0.8489,-0.31872 0.8489,-0.4335 z m 3.19668,0.43667 c -0.39377,-0.10443 -1.1351,-0.10822 -1.64743,-0.008 -0.5123,0.0999 -0.19011,0.18532 0.71596,0.18996 0.90607,0.005 1.32524,-0.0771 0.93148,-0.18153 z m 3.39301,-0.54802 c 0,-0.22956 -0.19628,-0.41739 -0.43618,-0.41739 -0.23987,0 -0.32161,0.18783 -0.18161,0.41739 0.13994,0.22959 0.33628,0.41741 0.43618,0.41741 0.0999,0 0.18161,-0.18782 0.18161,-0.41741 z m -0.60175,-1.27015 c 0.62561,-0.70058 0.64266,-0.80655 0.0957,-0.59383 -0.36622,0.14246 -0.76701,0.52615 -0.89067,0.85276 -0.30771,0.81265 -0.10212,0.7457 0.79498,-0.25893 z m 5.544,-3.19462 c 0.52359,-0.53797 0.41679,-0.53237 -0.70029,0.0368 -0.72494,0.36931 -2.11495,0.6902 -3.08891,0.71308 -1.43897,0.0338 -1.57788,0.0981 -0.7412,0.34329 1.2472,0.36545 3.68287,-0.22223 4.5304,-1.09307 z m -67.71742,0.0181 c -0.12811,-0.33815 -0.0495,-0.49294 0.17786,-0.35054 0.22393,0.14025 0.42141,0.10302 0.43886,-0.0827 0.0174,-0.18573 0.0981,-1.18293 0.17909,-2.21599 0.13901,-1.77259 0.12749,-1.79665 -0.20466,-0.42744 -0.19362,0.79797 -0.71714,1.75047 -1.16337,2.11668 -0.60231,0.49428 -0.7104,0.84862 -0.41953,1.37537 0.46042,0.8338 1.32727,0.47071 0.99175,-0.4154 z m 83.77978,-0.30237 c 0,-0.0866 -0.32432,-0.41538 -0.72074,-0.73045 -0.65321,-0.5192 -0.66779,-0.50443 -0.1555,0.1576 0.53802,0.69528 0.87623,0.9164 0.87623,0.57286 z m -13.72173,-1.59026 c -0.13154,-0.33298 -0.22907,-0.23408 -0.24883,0.25217 -0.0179,0.44001 0.0794,0.68653 0.21631,0.54783 0.13684,-0.13867 0.15147,-0.4987 0.0325,-0.8 z m -18.69168,-1.48699 c -0.244,-0.67811 -0.20172,-0.67617 0.58984,0.0271 0.63759,0.56654 0.93095,0.62923 1.1631,0.24855 0.19827,-0.32511 0.1387,-0.40145 -0.16505,-0.21125 -0.26151,0.16381 -0.47548,0.0989 -0.47548,-0.14419 0,-0.24312 0.46334,-0.44204 1.02964,-0.44204 0.97106,0 1.3977,0.55662 0.72074,0.94031 -0.16988,0.0962 -0.0621,0.11201 0.23961,0.0349 0.30168,-0.0771 0.88667,-0.14025 1.29998,-0.14025 0.54728,0 0.69326,-0.22556 0.53727,-0.8301 -0.11784,-0.45657 -0.40709,-0.70928 -0.64285,-0.56162 -0.2374,0.14861 -0.3067,0.0685 -0.15535,-0.17973 0.15037,-0.24655 -0.044,-0.76992 -0.43198,-1.16307 -0.66586,-0.67482 -0.65456,-0.69849 0.20214,-0.42292 0.58374,0.18777 0.90747,0.11706 0.90747,-0.1983 0,-0.26959 0.27799,-0.38206 0.61777,-0.24992 0.34613,0.13457 0.60506,0.0166 0.58884,-0.26839 -0.0364,-0.63927 -0.72658,-2.29812 -0.76581,-1.84057 -0.0159,0.18572 -0.23407,0.2092 -0.48478,0.0522 -0.32898,-0.20604 -0.32233,-0.36912 0.024,-0.58597 0.29869,-0.18708 0.37244,-0.73365 0.19542,-1.44839 -0.20832,-0.84126 -0.37807,-0.99794 -0.63535,-0.58651 -0.1931,0.30878 -0.34877,0.37359 -0.34594,0.14403 0.003,-0.22956 0.55205,-0.96124 1.22051,-1.62596 0.66846,-0.66469 1.33029,-1.57544 1.47073,-2.02387 0.36728,-1.1728 -0.16485,-4.242 -0.89526,-5.16356 -0.59208,-0.74703 -0.60159,-0.74061 -0.18792,0.127 0.2891,0.60635 0.29674,1.00086 0.0227,1.17248 -0.22714,0.1423 -0.41299,0.0614 -0.41299,-0.17975 0,-0.6015 -2.74559,-4.20236 -3.0043,-3.94016 -0.11441,0.11595 -0.33022,0.011 -0.47953,-0.23432 -0.14928,-0.24484 -0.081,-0.44518 0.15177,-0.44518 0.23277,0 0.30168,-0.32869 0.15317,-0.73045 -0.24321,-0.65766 -0.19063,-0.67034 0.52774,-0.12715 0.75234,0.56884 0.75947,0.56056 0.12515,-0.14514 -0.54658,-0.60803 -0.83612,-0.65968 -1.54445,-0.27549 -0.47947,0.26005 -0.87176,0.67415 -0.87176,0.9202 0,0.24606 -0.27207,0.34156 -0.6046,0.21225 -0.33252,-0.12936 -0.71413,-0.0555 -0.84801,0.16403 -0.3095,0.50753 -1.84223,0.52488 -1.84223,0.0208 0,-0.20808 0.35225,-0.28496 0.78278,-0.17087 0.61247,0.16233 0.8454,-0.0814 1.07056,-1.12041 0.22409,-1.034 0.45944,-1.28238 1.06342,-1.1223 0.6387,0.16927 0.70571,0.0732 0.37959,-0.54444 -0.28441,-0.53858 -0.22436,-0.89442 0.21307,-1.26234 0.65002,-0.54673 0.85679,-1.44931 0.2441,-1.06554 -0.20077,0.12573 -0.46142,-0.14498 -0.57923,-0.60147 -0.16405,-0.63583 -0.009,-0.8301 0.65921,-0.8301 0.81826,0 0.82968,-0.0443 0.1809,-0.70185 -0.64879,-0.65752 -0.75714,-0.63116 -1.716,0.41741 -0.9346,1.02201 -1.53368,1.31115 -2.41314,1.16469 -0.17636,-0.0293 -1.05671,0.307 -1.95631,0.74749 -0.89961,0.44049 -1.63565,0.73939 -1.63565,0.66422 0,-0.51041 0.56381,-1.45716 0.86777,-1.45716 0.20228,0 0.70789,-0.3287 1.12357,-0.73046 0.41568,-0.40175 1.15702,-1.0067 1.64742,-1.34433 0.56819,-0.39121 0.89164,-1.05064 0.89164,-1.8178 0,-1.15283 -0.0699,-1.19714 -1.64741,-1.04468 -0.90608,0.0875 -1.64742,0.13472 -1.64742,0.10475 0,-0.3373 2.03484,-2.14894 2.21202,-1.96938 0.13153,0.1333 0.52168,0.005 0.86694,-0.28558 0.71408,-0.60061 0.85074,-2.09536 0.19157,-2.09536 -0.23989,0 -0.29908,0.22475 -0.13153,0.49947 0.16754,0.27472 -0.26715,0.0869 -0.96594,-0.41739 -0.6988,-0.50428 -1.66987,-0.91688 -2.15796,-0.91688 -0.48806,0 -0.77286,-0.18783 -0.63286,-0.41739 0.13995,-0.22957 -0.0344,-0.41742 -0.38755,-0.41742 -0.85579,0 -0.82449,0.16201 0.46105,2.38516 l 1.10315,1.90772 -1.515,1.40707 c -1.76883,1.64285 -1.83357,1.95588 -0.58831,2.84486 0.63649,0.45437 0.77568,0.75718 0.4445,0.96699 -0.26518,0.16801 -0.60389,0.797 -0.75267,1.39776 -0.21037,0.84951 -2.2e-4,1.40522 0.94553,2.50022 1.55066,1.79533 1.9937,4.24341 1.16742,6.45067 -0.33677,0.89961 -0.72696,3.23222 -0.86709,5.18355 -0.14009,1.95135 -0.3401,4.67489 -0.44434,6.05231 l -0.18957,2.5044 0.67178,-1.35654 c 0.36947,-0.74612 0.84491,-1.35656 1.0565,-1.35656 0.21159,0 0.25213,-0.21742 0.0901,-0.48315 -0.20074,-0.32919 -0.0191,-0.41012 0.57008,-0.25399 0.90393,0.23957 2.39247,-0.96202 1.86014,-1.50153 -0.15882,-0.16095 0.59014,-1.14614 1.66431,-2.1893 1.50619,-1.46271 1.89178,-2.09235 1.68522,-2.75192 -0.17875,-0.57079 -0.11613,-0.76025 0.18814,-0.56965 0.80188,0.50227 0.49141,1.83598 -0.76498,3.2862 -2.02524,2.33767 -2.27072,3.49474 -1.11647,5.26241 0.54144,0.82918 1.10721,1.9747 1.2573,2.54561 0.24954,0.94932 0.22817,0.97018 -0.25018,0.24416 -0.87109,-1.3221 -2.834,-3.12991 -3.70139,-3.4089 -0.9299,-0.29911 -1.66509,0.27535 -1.75399,1.3705 -0.0962,1.18408 -1.01342,2.62356 -1.67184,2.62356 -0.89374,0 -0.73151,0.70345 0.22042,0.95574 0.45304,0.12005 0.8237,0.0369 0.8237,-0.18466 0,-0.22162 0.17131,-0.29565 0.38069,-0.16451 0.20938,0.1311 0.46588,-0.0926 0.57002,-0.49711 0.14772,-0.57422 0.19979,-0.53497 0.23709,0.17896 0.0481,0.92165 0.87148,1.83218 0.87148,0.96378 0,-0.25666 0.22232,-0.32743 0.49403,-0.15729 0.27171,0.17019 0.9538,0.32984 1.51576,0.35477 0.56194,0.0249 1.09642,0.27243 1.18771,0.55 0.0914,0.27756 0.33007,0.50467 0.53061,0.50467 0.20052,0 0.24632,-0.32871 0.1018,-0.73045 z m 1.62723,-8.31646 c -1.17014,-0.82725 -1.18199,-1.26766 -0.0318,-1.18178 0.60037,0.0448 0.91658,0.36531 0.9608,0.97375 0.0363,0.49881 0.0506,0.89709 0.0318,0.88503 -0.0188,-0.0126 -0.45114,-0.3167 -0.96081,-0.677 z m 1.43291,-0.80548 c -0.16517,-0.16739 -0.30032,-0.59236 -0.30032,-0.94436 0,-0.46982 0.12189,-0.51653 0.45819,-0.17567 0.25201,0.25541 0.38716,0.68036 0.30032,0.94437 -0.0869,0.26401 -0.29301,0.34306 -0.45819,0.17566 z m 1.09498,-1.52177 c 0.13667,-1.23914 1.14086,-2.81746 1.79269,-2.81746 0.78299,0 0.62193,1.83868 -0.25033,2.85794 -0.99601,1.16385 -1.67317,1.14609 -1.54236,-0.0405 z m -7.7423,-5.45171 c -0.64987,-0.48159 -0.56089,-0.52623 0.7417,-0.37212 0.81408,0.0964 1.37803,0.34259 1.25322,0.54725 -0.32398,0.53128 -1.13813,0.45981 -1.99492,-0.17513 z m 2.64031,0.19565 c 0,-0.64914 1.13471,-1.40366 1.41637,-0.94181 0.13978,0.22921 -0.12172,0.6206 -0.58112,0.86976 -0.45939,0.24917 -0.83525,0.28159 -0.83525,0.0721 z m -4.77806,-7.68334 c -0.16295,-0.28696 -0.15176,-0.38982 0.0247,-0.22858 0.17652,0.16125 0.59015,0.0204 0.91914,-0.31305 0.32902,-0.33342 0.79864,-0.60623 1.04364,-0.60623 0.24501,0 0.0181,0.37567 -0.50429,0.8348 -1.12062,0.985 -1.1037,0.98143 -1.48322,0.31306 z m 15.4863,22.12615 c 0,-0.40392 -0.139,-0.73524 -0.30889,-0.73627 -0.16989,-0.001 -0.34385,-0.68446 -0.38656,-1.51874 -0.0721,-1.40659 -0.95197,-3.142 -0.95197,-1.87743 0,0.28903 -0.18534,0.40943 -0.41186,0.26754 -0.57168,-0.35808 -0.52172,1.95209 0.0848,3.92173 0.43265,1.40491 0.59196,1.55257 1.23557,1.14521 0.40639,-0.25721 0.73888,-0.79813 0.73888,-1.20204 z m -60.23514,-0.85528 c 0.0322,-0.43456 -0.15607,-0.68799 -0.43417,-0.58421 -0.27017,0.10081 -0.44238,0.40225 -0.3827,0.66983 0.0596,0.26757 -0.10336,0.90149 -0.36224,1.40872 -0.46803,0.91691 -0.46614,0.91747 0.32565,0.0977 0.43803,-0.45349 0.82208,-1.16992 0.85346,-1.59206 z m 81.91575,-4.34197 c -0.13262,-0.13441 -0.44318,0.29443 -0.69023,0.95291 -0.24703,0.6585 -0.59791,1.29499 -0.77972,1.41444 -0.18182,0.11942 -0.4588,0.68678 -0.61554,1.26071 -0.15672,0.57392 0.30264,0.0473 1.0208,-1.17012 0.71819,-1.21748 1.1973,-2.32355 1.06469,-2.45794 z m -61.57791,2.21756 c 0.76384,-0.31663 2.44864,-0.70506 3.74394,-0.86318 1.9269,-0.23522 2.54472,-0.51584 3.39781,-1.54333 1.21037,-1.45781 1.36857,-3.47423 0.36108,-4.60248 -0.77017,-0.86249 -4.63535,-1.07436 -6.49904,-0.35625 -1.88357,0.72578 -1.11661,0.0598 0.98764,-0.85765 2.33817,-1.0194 3.85741,-2.80291 4.52368,-5.31054 0.3856,-1.45126 0.34701,-1.96364 -0.23359,-3.1018 -0.55914,-1.09607 -0.57464,-1.26179 -0.0791,-0.84525 0.339,0.28496 0.73831,0.39454 0.88735,0.24348 0.14913,-0.15097 0.27101,0.0697 0.27101,0.49058 0,0.9445 0.52935,0.48601 0.60262,-0.52195 0.0293,-0.40164 0.13729,-0.74546 0.24006,-0.76406 0.10289,-0.0186 0.60397,-0.26 1.11363,-0.53643 1.20705,-0.6547 1.17334,-0.34379 -0.10289,0.9497 -0.5663,0.57393 -1.02964,1.31232 -1.02964,1.64086 0,0.32855 -0.27686,1.13537 -0.61524,1.79292 -0.33839,0.65756 -0.61639,2.14468 -0.61779,3.30469 -0.003,2.60983 1.77248,5.3915 3.71795,5.82455 1.71997,0.38286 1.52048,1.03702 -0.32267,1.05809 -1.31585,0.0158 -1.68511,0.24091 -2.49473,1.52585 -0.74749,1.18637 -0.83537,1.58202 -0.41185,1.85425 0.90119,0.57924 2.81189,0.40523 3.07124,-0.2797 0.15918,-0.4204 0.52413,-0.54772 1.06829,-0.37268 0.54891,0.17657 0.73186,0.11059 0.5447,-0.19626 -0.15504,-0.25416 -0.0855,-0.46212 0.15441,-0.46212 0.23989,0 0.43617,0.18783 0.43617,0.41739 0,0.22959 0.62598,0.41742 1.39107,0.41742 1.49107,0 2.58031,-0.89788 2.08153,-1.71582 -0.20694,-0.33932 -0.12967,-0.3903 0.24045,-0.1585 0.39606,0.24807 0.47344,0.15145 0.28249,-0.35292 -0.14461,-0.38201 -0.0666,-0.69458 0.17344,-0.69458 0.27574,0 0.38682,-0.97792 0.30167,-2.65589 -0.0922,-1.8163 0.0447,-2.87512 0.43304,-3.34929 0.31229,-0.38136 0.45525,-0.80746 0.31767,-0.94687 -0.1376,-0.13946 -0.0657,-0.60276 0.15974,-1.02966 0.29364,-0.55604 0.23206,-1.12462 -0.21716,-2.00503 -0.5799,-1.13649 -0.57081,-1.24698 0.12095,-1.46947 1.15924,-0.37289 2.92808,-2.44674 3.34575,-3.92272 0.22856,-0.80764 0.22851,-1.23999 -1.4e-4,-1.09677 -0.20758,0.12999 -0.49736,-0.52377 -0.64394,-1.45286 -0.14664,-0.92908 -0.42818,-1.68923 -0.62576,-1.68923 -0.19757,0 -0.35921,-0.18783 -0.35921,-0.41741 0,-0.22957 0.278,-0.4174 0.61778,-0.4174 0.80976,0 0.79519,-0.67648 -0.0213,-0.99406 -0.36652,-0.14261 -0.53183,-0.0726 -0.38755,0.16404 0.13838,0.22695 0.038,0.41263 -0.22311,0.41263 -0.26109,0 -0.57111,-0.37356 -0.68891,-0.83011 -0.11784,-0.45656 -0.39109,-0.71931 -0.6073,-0.58389 -0.21622,0.13536 -0.28736,0.55594 -0.15809,0.93446 0.18597,0.54461 0.11161,0.52709 -0.35638,-0.0841 -0.32527,-0.42473 -0.77625,-0.65646 -1.00219,-0.51494 -0.22595,0.14151 -0.52908,0.0634 -0.67365,-0.17371 -0.14461,-0.23706 -0.43537,-0.32296 -0.64624,-0.19088 -0.6754,0.42304 -0.41067,-0.0721 0.47078,-0.88057 0.54482,-0.49968 0.80585,-0.57981 0.72075,-0.22121 -0.0733,0.3092 0.0982,0.6483 0.38138,0.75351 0.28315,0.10523 0.51483,0.0286 0.51483,-0.1703 0,-0.43818 1.69157,-0.40493 2.41383,0.0475 0.77825,0.48745 2.67102,-0.47231 3.20092,-1.62312 0.38536,-0.83689 0.33814,-1.13101 -0.27127,-1.68995 -0.4058,-0.37218 -0.96078,-1.22221 -1.23329,-1.88898 -0.3341,-0.81745 -0.74533,-1.17365 -1.26258,-1.09365 -0.88511,0.13693 -1.57369,0.69669 -0.85698,0.69669 0.26427,0 0.4805,0.20794 0.4805,0.46207 0,0.26273 -0.30094,0.34502 -0.69766,0.19073 -0.58979,-0.22936 -0.57388,-0.13015 0.10304,0.64218 l 0.80062,0.91349 -0.98912,-0.52669 c -0.86547,-0.46085 -0.95704,-0.44196 -0.73253,0.15097 0.21836,0.57669 0.0227,0.63977 -1.31298,0.42331 -2.3407,-0.37932 -4.99654,1.07526 -4.99654,2.73658 0,0.67048 0.18029,1.33201 0.40066,1.47003 0.63416,0.39722 1.32155,3.51177 1.05079,4.76114 -0.25005,1.1538 -2.68702,3.06865 -2.68702,2.11133 0,-0.31444 -0.376,-0.39061 -1.06415,-0.21558 -0.74344,0.18911 -0.97662,0.12715 -0.77376,-0.20549 0.16933,-0.27766 0.78366,-0.37621 1.47357,-0.23636 0.94983,0.19252 1.31463,0.0366 1.84957,-0.79091 0.76555,-1.1841 0.5152,-3.55707 -0.46195,-4.37897 -0.3313,-0.27865 -0.5008,-0.67319 -0.37666,-0.87674 0.12406,-0.20355 0.0557,-0.3701 -0.15192,-0.3701 -0.4135,0 -2.677,-4.1884 -2.40984,-4.45917 0.0908,-0.092 0.55568,0.45109 1.03318,1.20681 0.47747,0.75574 0.87127,1.18444 0.87508,0.95271 0.0125,-0.77224 1.83141,-1.62611 4.53734,-2.13031 1.47239,-0.27433 2.35274,-0.5168 1.95632,-0.53882 -0.9817,-0.0544 -0.9122,-0.72671 0.10289,-0.99575 1.01417,-0.26879 1.09229,-1.12991 0.10289,-1.1349 -0.39642,-0.002 -1.72277,-0.12557 -2.94747,-0.27457 -1.73375,-0.21097 -2.15586,-0.15476 -1.90661,0.25397 0.2546,0.41751 0.13122,0.42248 -0.60301,0.0243 -0.73747,-0.40001 -0.85811,-0.39411 -0.59992,0.0293 0.2256,0.36996 0.12656,0.45349 -0.32807,0.27669 -0.36585,-0.1423 -0.74554,-0.005 -0.86641,0.31493 -0.36335,0.95961 -2.90084,1.93948 -4.35169,1.68045 -0.96227,-0.17181 -1.2468,-0.10096 -1.02909,0.25597 0.18164,0.29784 0.12437,0.38291 -0.1443,0.21461 -0.24484,-0.15334 -1.4977,0.12021 -2.78414,0.60806 -2.06632,0.78352 -2.43335,1.10315 -3.14867,2.74202 -0.44533,1.02029 -1.36364,2.68694 -2.04069,3.70364 -1.81097,2.71947 -1.94028,4.31451 -0.54687,6.74599 0.63119,1.10145 1.30896,2.11157 1.50612,2.2447 0.54678,0.36922 -0.002,1.43492 -1.63802,3.18289 -0.81548,0.87112 -1.35695,1.2454 -1.20325,0.83173 0.17788,-0.47876 0.12126,-0.65305 -0.15577,-0.47954 -0.23937,0.14987 -0.33201,0.54518 -0.20586,0.87835 0.12609,0.33317 -0.0786,1.08207 -0.45497,1.66423 -0.40979,0.63387 -0.69707,1.96364 -0.71611,3.31482 -0.0174,1.24098 -0.17076,2.25746 -0.34065,2.25885 -0.45118,0.003 -0.37732,1.59742 0.11737,2.53436 0.34683,0.65679 0.87513,0.80735 2.83269,0.80735 1.3235,0 3.03133,-0.25907 3.79518,-0.57569 z m -6.4335,-1.08912 c -0.1443,-0.23661 0.021,-0.30659 0.38754,-0.16406 0.71352,0.2775 0.84405,0.57667 0.25163,0.57667 -0.21317,0 -0.5008,-0.18568 -0.63917,-0.41261 z m 19.14835,-9.21222 c 0,-0.24312 0.18533,-0.32595 0.41185,-0.18408 0.22652,0.14183 0.41187,0.34081 0.41187,0.44204 0,0.10128 -0.18535,0.18407 -0.41187,0.18407 -0.22652,0 -0.41185,-0.19891 -0.41185,-0.44203 z m -1.2845,-3.22334 c -0.13574,-0.82945 -0.0752,-1.21885 0.15333,-0.98729 0.20749,0.21031 0.30831,0.82666 0.22404,1.36967 -0.12967,0.83549 -0.18771,0.77671 -0.37729,-0.38238 z m 2.94385,-1.74453 c -0.33321,-0.21357 -0.51828,-0.47709 -0.4112,-0.58558 0.10709,-0.10853 0.55411,0.0691 0.99346,0.39471 0.87867,0.65115 0.38723,0.81225 -0.58226,0.19087 z m -13.39724,-2.93811 c -0.30714,-0.50365 1.31461,-0.50365 2.47113,0 0.66387,0.28911 0.52872,0.36442 -0.69642,0.38807 -0.83609,0.0161 -1.63471,-0.1585 -1.77471,-0.38807 z m 2.4469,-3.16144 c -0.43971,-0.36139 -0.58362,-0.54805 -0.31983,-0.41481 0.26381,0.13331 0.55566,0.011 0.64858,-0.27132 0.0929,-0.28249 0.27672,-0.0958 0.40847,0.41479 0.28544,1.10619 0.28071,1.10794 -0.73722,0.27134 z m -2.65282,-0.59516 c 0,-0.52296 0.43709,-0.52296 1.23556,0 0.49956,0.32719 0.44046,0.40585 -0.30887,0.41101 -0.50968,0.003 -0.92669,-0.18144 -0.92669,-0.41101 z m 64.36711,20.4461 c -0.31862,-1.23479 -0.85567,-1.39692 -0.62795,-0.18956 0.10694,0.56698 0.34085,1.03087 0.51975,1.03087 0.1789,0 0.22758,-0.37859 0.10817,-0.84131 z m -26.54988,-3.43704 c 0.0419,-2.88155 0.19565,-4.06966 0.5265,-4.06966 0.20387,0 0.37068,-0.18192 0.37068,-0.4043 0,-0.22236 -0.26371,-0.30174 -0.58602,-0.17639 -0.63498,0.24694 -0.66001,-0.49105 -0.0503,-1.48167 0.23281,-0.37819 0.20652,-0.65678 -0.0708,-0.75045 -0.51051,-0.17248 -0.20054,-1.77858 0.34325,-1.77858 0.2001,0 0.36946,0.42262 0.37634,0.93915 0.0109,0.83412 0.0591,0.85807 0.42927,0.21423 0.28495,-0.49567 0.27496,-0.9934 -0.0316,-1.57388 -0.24657,-0.46693 -0.34613,-1.01653 -0.22123,-1.22134 0.12484,-0.20482 -0.28352,-0.75849 -0.90762,-1.23036 -1.17557,-0.88885 -0.65155,-1.21017 0.74144,-0.45464 0.92391,0.50114 2.03646,2.51094 2.03646,3.67885 0,0.44598 0.31869,0.93482 0.7082,1.0863 0.3895,0.15145 0.58365,0.14924 0.43146,-0.005 -0.15223,-0.15429 -0.008,-0.55326 0.32144,-0.88668 0.329,-0.33344 0.59533,-0.92151 0.59188,-1.30686 -0.005,-0.54305 -0.0847,-0.57542 -0.35455,-0.14388 -0.28293,0.45234 -0.393,0.43849 -0.587,-0.0738 -0.13138,-0.34681 0.026,-0.85329 0.34967,-1.1255 0.61299,-0.51559 1.00015,-0.002 1.22016,1.61846 0.37387,2.75367 1.59703,3.43875 2.02376,1.13351 0.46756,-2.52588 -2.88499,-9.36889 -3.83232,-7.82224 -0.25914,0.42312 -0.63222,0.29532 -1.63551,-0.56026 -0.88075,-0.75108 -1.21483,-0.88407 -1.03628,-0.41249 0.17421,0.46009 0.07,0.66263 -0.30723,0.59768 -0.31391,-0.0541 -1.09247,0.11974 -1.73015,0.38608 -1.4422,0.60246 -1.80657,0.60622 -2.16271,0.0223 -0.18492,-0.30326 -0.0109,-0.37509 0.50523,-0.20897 0.58884,0.18942 0.78703,0.0508 0.78703,-0.55073 0,-0.44215 -0.15442,-0.70713 -0.34328,-0.58888 -0.18882,0.11832 -0.83114,-0.2794 -1.4274,-0.88369 l -1.08413,-1.0987 1.13062,0.43564 c 1.46229,0.56345 1.76672,0.55029 1.17369,-0.0506 -0.36529,-0.37021 -0.31213,-0.61068 0.22261,-1.00696 0.64414,-0.47735 0.60466,-0.6125 -0.47526,-1.6268 -0.64776,-0.60841 -1.91095,-1.57527 -2.80707,-2.14859 -1.28939,-0.82492 -1.75176,-0.93942 -2.21614,-0.54884 -0.32275,0.27145 -0.58965,0.32968 -0.59312,0.12936 -0.0109,-0.64069 -0.80453,0.86195 -0.8111,1.53608 -0.003,0.35643 0.87923,1.57731 1.96154,2.7131 1.64806,1.72947 2.15746,2.67554 3.13463,5.82167 0.64175,2.06611 1.51761,4.69574 1.94639,5.84359 0.42877,1.14786 0.89196,2.93224 1.0293,3.96531 0.1373,1.03306 0.32034,1.95493 0.40669,2.04859 0.0864,0.0937 -0.0397,0.41036 -0.2799,0.70377 -0.30863,0.37689 -0.30335,0.78633 0.0181,1.39496 0.58233,1.10277 0.74739,1.086 0.76433,-0.0776 z m 6.66315,-8.8251 c 0,-0.91455 -0.23398,-1.50723 -0.6605,-1.67311 -0.39404,-0.15319 -0.56066,-0.52059 -0.41305,-0.91047 0.13604,-0.35948 -0.0221,-0.92683 -0.35162,-1.26077 -0.32952,-0.33394 -0.49442,-0.88364 -0.36647,-1.22156 0.35745,-0.94404 1.79052,2.16191 2.07606,4.49951 0.13325,1.09045 0.12375,1.98265 -0.0212,1.98265 -0.14476,0 -0.26328,-0.63731 -0.26328,-1.41625 z m -7.18047,-0.95868 c -0.16815,-0.44412 -0.0388,-0.47095 0.60006,-0.12447 0.97018,0.52622 1.02123,0.69063 0.21438,0.69063 -0.33003,0 -0.69654,-0.25478 -0.81444,-0.56619 z m 21.96736,4.28105 c -0.56477,-0.61419 -0.88903,0.0223 -0.55454,1.08858 0.29143,0.92905 0.31749,0.93487 0.60862,0.13583 0.16729,-0.45914 0.1429,-1.01011 -0.054,-1.22438 z m -97.23022,-2.52857 c 0.12546,-0.12715 -0.17282,-0.16921 -0.66289,-0.0934 -0.49008,0.0757 -1.01357,0.26199 -1.16332,0.41375 -0.14975,0.15176 0.1485,0.19379 0.6629,0.0934 0.51434,-0.10033 1.03783,-0.28658 1.16331,-0.41375 z m 72.47925,-0.8495 c -0.12686,-0.12858 -0.35708,0.10317 -0.51175,0.51479 -0.22352,0.59489 -0.17621,0.64283 0.23055,0.23367 0.28147,-0.28314 0.40802,-0.61994 0.2812,-0.74846 z m 12.31966,-4.476 c -0.0811,-1.18251 -1.00455,-2.21753 -2.48895,-2.7895 -0.63347,-0.24408 -1.04998,-0.61069 -0.92558,-0.81467 0.12437,-0.204 -0.0962,-0.62696 -0.49005,-0.93994 -0.6481,-0.51495 -0.66246,-0.4996 -0.15098,0.1614 0.31088,0.40175 0.43749,0.73045 0.28133,0.73045 -0.46871,0 3.25842,4.54348 3.76119,4.58502 0.0425,0.003 0.0484,-0.41623 0.0125,-0.93276 z m -25.83133,-3.23486 c 0,-0.22957 -0.19628,-0.4174 -0.43618,-0.4174 -0.23987,0 -0.3216,0.18783 -0.18161,0.4174 0.13995,0.22958 0.33628,0.41741 0.43618,0.41741 0.0999,0 0.18161,-0.18783 0.18161,-0.41741 z m 21.00461,-2.11294 c 0,-0.21529 -0.21706,-0.39146 -0.48237,-0.39146 -0.26531,0 -0.80292,-0.29398 -1.19467,-0.65329 -0.43285,-0.39698 -0.81149,-0.49066 -0.96509,-0.23875 -0.139,0.228 0.12329,0.53551 0.58288,0.68334 0.4596,0.14782 0.75314,0.40413 0.65228,0.56951 -0.10087,0.16539 0.17447,0.32802 0.61182,0.3614 0.43734,0.0334 0.79516,-0.11548 0.79515,-0.33075 z m -34.70737,-7.73942 c -0.13684,-0.13867 -0.49211,-0.1535 -0.7894,-0.033 -0.32856,0.1333 -0.23098,0.23214 0.24883,0.25218 0.43416,0.0181 0.67741,-0.0805 0.54057,-0.21924 z m -44.04785,59.62733 c -0.2286,-0.89328 0.0316,-1.77395 0.5241,-1.77395 0.20054,0 0.24559,0.31435 0.10009,0.69857 -0.20838,0.55035 -0.0964,0.6387 0.52776,0.41637 0.73634,-0.26227 0.74184,-0.24238 0.0778,0.28186 -0.39289,0.31022 -0.59367,0.68634 -0.44618,0.83583 0.14757,0.1494 0.0736,0.27177 -0.16428,0.27177 -0.23787,0 -0.5166,-0.3287 -0.6194,-0.73045 z m -7.12077,-3.45036 c -0.14227,-0.2333 -0.41021,-0.3293 -0.59542,-0.21329 -0.1852,0.11596 -0.5894,-0.11579 -0.89821,-0.51495 -0.496,-0.64119 -0.48502,-0.66542 0.0942,-0.20772 0.36062,0.28498 0.75123,0.42131 0.86799,0.30296 0.11674,-0.11832 0.44675,0.0712 0.73327,0.42102 0.28655,0.34991 0.41656,0.63619 0.28893,0.63619 -0.12764,0 -0.34847,-0.19088 -0.49074,-0.42421 z m 2.88714,-0.41059 c -0.13994,-0.22957 -0.0582,-0.4174 0.18163,-0.4174 0.23989,0 0.43616,0.18783 0.43616,0.4174 0,0.22957 -0.0817,0.41741 -0.18162,0.41741 -0.0999,0 -0.29616,-0.18784 -0.43617,-0.41741 z m -3.0889,-2.47976 c 0,-0.21602 0.18321,-0.50752 0.40713,-0.64779 0.23346,-0.14624 0.30251,0.0213 0.16186,0.39277 -0.2738,0.72312 -0.56899,0.85541 -0.56899,0.25502 z m -0.96335,-1.87837 c -0.12422,-0.3282 -0.005,-0.69098 0.26573,-0.80618 0.34,-0.14482 0.26933,-0.39269 -0.22907,-0.80344 -0.88301,-0.72772 -0.9102,-0.98892 -0.10289,-0.98892 0.33978,0 0.61777,0.26153 0.61777,0.58116 0,0.31965 0.18535,0.46509 0.41187,0.32322 0.22652,-0.14183 0.41185,-0.0702 0.41185,0.15943 0,0.22957 -0.18835,0.53538 -0.41858,0.67957 -0.23021,0.14419 -0.31985,0.42405 -0.1992,0.6219 0.12064,0.19784 0.0504,0.46552 -0.15606,0.59485 -0.20647,0.12936 -0.47709,-0.0334 -0.60136,-0.36159 z m -3.93501,-4.53422 c -0.93079,-5.14651 -0.99983,-7.16862 -0.29211,-8.55562 0.35542,-0.69655 0.60299,-2.0299 0.55017,-2.963 -0.0834,-1.47227 -0.20495,-1.66707 -0.91976,-1.47358 -0.71925,0.19469 -0.74341,0.15413 -0.19052,-0.32039 0.34825,-0.29886 1.14375,-1.43556 1.76775,-2.52602 1.05774,-1.84843 2.00499,-2.87167 1.15918,-1.2522 -0.20983,0.40175 -0.33545,2.36503 -0.27918,4.36285 0.0654,2.32095 -0.0507,3.60189 -0.32178,3.5479 -0.23326,-0.0465 -0.62382,0.5729 -0.86793,1.37641 -0.24409,0.80349 -0.61144,1.7247 -0.81633,2.04714 -0.25577,0.4025 -0.22526,0.494 0.0973,0.29193 0.32333,-0.20251 0.4237,0.10775 0.3218,0.99458 -0.0814,0.7089 0.17528,1.93169 0.57049,2.71731 0.49206,0.97813 0.57296,1.48717 0.25665,1.61481 -0.2609,0.10522 0.0758,0.67067 0.77366,1.2993 0.67956,0.6121 1.00389,0.99433 0.72075,0.84939 -0.28315,-0.14498 -0.51483,-0.0333 -0.51483,0.24807 0,0.28139 -0.12188,0.38802 -0.27099,0.23695 -0.14912,-0.15113 -0.48028,-0.0986 -0.73606,0.11658 -0.33175,0.27903 -0.62081,-0.46994 -1.0083,-2.61237 z m 1.11211,-10.1104 c -0.12686,-0.12857 -0.3571,0.10317 -0.51177,0.5148 -0.2235,0.59487 -0.17619,0.64281 0.23055,0.23365 0.28149,-0.28314 0.40803,-0.61994 0.28122,-0.74845 z m 17.26599,8.73303 c -0.2426,-0.24586 0.63986,-1.41748 1.06764,-1.41748 0.10522,0 0.30165,0.29149 0.43655,0.64778 0.15426,0.4073 0.0771,0.5424 -0.20792,0.36392 -0.24924,-0.15618 -0.58412,-0.0691 -0.74415,0.1933 -0.16004,0.26243 -0.40849,0.35804 -0.55212,0.21248 z m -1.67323,-0.86096 c -0.15099,-0.15302 -0.27457,-0.47234 -0.27457,-0.70958 0,-0.26153 0.19184,-0.23689 0.48736,0.0626 0.26805,0.27168 0.39162,0.59098 0.27458,0.7096 -0.11706,0.11863 -0.33636,0.0904 -0.48737,-0.0626 z m -7.82524,-0.41739 c -0.151,-0.15303 -0.27458,-0.47236 -0.27458,-0.70958 0,-0.26155 0.19183,-0.23691 0.48737,0.0626 0.26805,0.27166 0.39159,0.59097 0.27457,0.70958 -0.11706,0.11863 -0.33636,0.0904 -0.48736,-0.0626 z m -0.66645,-2.79088 c -0.51448,-1.57984 -1.66741,-2.89865 -1.66741,-1.90729 0,0.42933 -0.1099,0.44068 -0.49422,0.0511 -0.27182,-0.27548 -0.80513,-0.50088 -1.18514,-0.50088 -0.78397,0 -1.86894,-1.13447 -1.47083,-1.53793 0.40136,-0.40677 2.73834,-0.46187 2.73834,-0.0645 0,0.19267 0.28894,0.3503 0.64209,0.3503 0.35315,0 0.52754,-0.18782 0.38754,-0.41741 -0.13994,-0.22956 -0.0789,-0.41739 0.13589,-0.41739 0.21472,0 0.36467,-0.32418 0.33321,-0.72038 -0.0314,-0.39621 0.12811,-0.72779 0.35464,-0.73684 0.87321,-0.0349 1.35951,-0.67912 1.65351,-2.19042 0.16796,-0.86342 0.39673,-1.31382 0.5084,-1.00088 0.1714,0.48038 0.26544,0.48038 0.60386,0 0.2903,-0.41206 0.32294,-0.33875 0.11831,0.26583 -0.15535,0.45913 -0.56996,1.72152 -0.92126,2.8053 -0.3513,1.0838 -0.77821,1.88315 -0.94871,1.77635 -0.17051,-0.1068 -0.42209,0.10191 -0.55909,0.46368 -0.37172,0.98171 -0.28938,1.30048 0.15286,0.59159 0.33394,-0.53533 0.47757,-0.50567 1.01023,0.2087 0.34152,0.45802 0.62095,1.0206 0.62095,1.25017 0,0.22957 -0.2477,0.0866 -0.55047,-0.31768 -0.87555,-1.1692 -1.57489,-0.003 -1.06938,1.78343 0.53233,1.88114 0.20488,2.10198 -0.39325,0.26521 z m 6.5697,1.05171 c 0,-0.26783 -0.139,-0.45663 -0.30889,-0.41956 -0.16989,0.0371 -0.8649,-0.18005 -1.54446,-0.48248 -0.67956,-0.30246 -1.49761,-0.56757 -1.8179,-0.58916 -0.7424,-0.05 -0.95189,-0.70393 -0.472,-1.47333 0.29092,-0.46641 0.50326,-0.49034 0.95787,-0.10791 0.32127,0.27021 0.73559,0.35205 0.92072,0.18186 0.18515,-0.17019 0.23292,-0.0142 0.10616,0.34663 -0.13309,0.37892 0.0878,0.85744 0.52281,1.13279 0.57246,0.36232 0.79314,0.35541 0.91953,-0.0289 0.0963,-0.29314 0.38236,-0.0964 0.68052,0.46821 0.28282,0.53559 0.40656,1.08291 0.27493,1.21631 -0.13169,0.13331 -0.23929,0.0233 -0.23929,-0.24446 z m 5.05382,-3.46267 c -0.56112,-0.56867 -3.34754,-0.79768 -3.65101,-0.30007 -0.11877,0.19467 -0.42568,0.35398 -0.68212,0.35398 -0.25645,0 -0.10647,-0.27578 0.33319,-0.61283 1.20568,-0.9242 3.58281,-0.81371 4.20466,0.19542 0.5746,0.93247 0.49541,1.07306 -0.20472,0.3635 z m -3.99002,-3.22928 c -0.17741,-0.29092 -0.21134,-0.64168 -0.0753,-0.77945 0.36858,-0.37357 0.77048,0.17586 0.57139,0.78114 -0.13946,0.42415 -0.2365,0.42381 -0.49599,-0.002 z m -0.002,-2.93012 c 0.0668,-0.89206 0.50372,-2.34496 0.97107,-3.22869 0.95123,-1.79868 1.03831,-2.24522 0.43787,-2.24522 -0.22652,0 -0.41186,0.38676 -0.41186,0.85945 0,0.47269 -0.18583,0.74302 -0.41297,0.60076 -0.26955,-0.16883 -0.27459,-0.52071 -0.014,-1.01325 0.21915,-0.41503 0.26629,-0.88855 0.10476,-1.05229 -0.16156,-0.16375 -0.016,-0.51956 0.32339,-0.79071 0.33942,-0.27114 0.92684,-1.04913 1.30538,-1.72888 0.37853,-0.67975 1.19584,-1.37348 1.81621,-1.54164 l 1.12798,-0.30572 -1.32298,1.12959 c -1.13963,0.97307 -1.37748,1.52483 -1.7164,3.98171 -0.21642,1.56866 -0.2638,3.0713 -0.10523,3.33921 0.21956,0.37114 0.14679,0.37117 -0.30573,1.2e-4 -0.50488,-0.41399 -0.57248,-0.17943 -0.45116,1.56526 0.12562,1.80728 0.0467,2.0522 -0.66218,2.0522 -0.68137,0 -0.78628,-0.24894 -0.68356,-1.6219 z m -8.47559,0.39434 c 0,-0.21603 0.18322,-0.50752 0.40714,-0.64778 0.23346,-0.14624 0.30251,0.0213 0.16186,0.39277 -0.2738,0.72311 -0.569,0.85541 -0.569,0.25501 z m 11.84564,-1.57205 c 0.51231,-0.0999 1.25365,-0.0961 1.64743,0.008 0.39375,0.10443 -0.0254,0.18617 -0.93149,0.18153 -0.90608,-0.005 -1.22825,-0.0901 -0.71595,-0.18996 z m -8.03307,-2.1101 c 0.0381,-0.51365 0.21531,-0.9339 0.39362,-0.9339 0.42978,0 0.40039,0.48378 -0.0756,1.24695 -0.3044,0.48793 -0.37245,0.4209 -0.31791,-0.31305 z m -1.34143,-0.90925 c 0,-0.47269 -0.014,-0.99561 -0.0308,-1.16206 -0.017,-0.16644 0.12779,-0.3562 0.32167,-0.42172 0.49879,-0.1685 0.60626,1.88134 0.11472,2.18919 -0.22304,0.13977 -0.40554,-0.13268 -0.40554,-0.60541 z m 13.46873,-0.766 c -0.36411,-0.40774 -0.79163,-1.58167 -0.95007,-2.60874 -0.15842,-1.02708 -0.49159,-2.0054 -0.74036,-2.17405 -0.28149,-0.19087 -0.1893,-0.30908 0.24414,-0.31306 0.94291,-0.008 1.25692,0.61638 1.23192,2.45214 -0.0238,1.74991 0.1956,2.21338 1.36649,2.8863 0.63733,0.36626 0.67508,0.47625 0.16681,0.48608 -0.36131,0.006 -0.95482,-0.32093 -1.31893,-0.72867 z m -12.09863,0.0582 c -1.3687,-0.56608 1.03932,-4.50191 3.07048,-5.01857 0.70194,-0.17855 0.88217,-0.42875 0.66552,-0.92381 -0.16344,-0.37343 -0.37949,-1.38548 -0.48014,-2.24901 -0.16277,-1.39656 -0.003,-1.74249 1.44607,-3.13051 7.0111,-6.7158 6.81485,-6.56727 10.41084,-7.87943 5.16007,-1.88289 5.28161,-1.92189 4.21285,-1.35203 -0.50967,0.27175 -0.92666,0.65321 -0.92666,0.84771 0,0.19448 -0.32434,0.36681 -0.72076,0.38295 -0.61077,0.0249 -0.59506,0.0797 0.10289,0.35926 0.65881,0.26388 0.45266,0.39168 -1.02964,0.63829 -2.40728,0.4005 -4.94552,1.54243 -5.93277,2.66912 -0.43151,0.49247 -1.02464,0.8954 -1.31804,0.8954 -0.29343,0 -0.70759,0.31527 -0.92038,0.70061 -0.21278,0.38534 -1.10232,1.11549 -1.97677,1.62256 -0.87446,0.50708 -1.53899,1.1449 -1.47673,1.41742 0.0623,0.27249 -0.037,0.40136 -0.22064,0.28637 -0.51818,-0.32457 -0.56889,3.84761 -0.0585,4.81412 0.36495,0.6911 0.34497,0.79492 -0.1018,0.52904 -0.30575,-0.18196 -0.20286,0.0771 0.22866,0.57573 0.84153,0.97234 0.64387,1.15221 -0.55286,0.50314 -0.99524,-0.53982 -2.83567,0.34623 -3.00547,1.4469 -0.0708,0.45914 -0.3223,0.79925 -0.55883,0.75579 -0.25068,-0.0461 -0.35593,0.43269 -0.25237,1.14786 0.0978,0.67477 0.11035,1.21203 0.028,1.19391 -0.0823,-0.0181 -0.36716,-0.1229 -0.63293,-0.23282 z m 4.14451,-9.12574 c 0.20184,-0.91449 0.16363,-1.08334 -0.14166,-0.62609 -0.22992,0.34435 -0.42089,0.98609 -0.42435,1.42611 -0.008,1.06789 0.2273,0.73472 0.56605,-0.80002 z m 4.78152,-4.85576 c 6.5e-4,-0.6737 3.50189,-1.03568 3.88832,-0.40201 0.12656,0.20743 -0.69669,0.44221 -1.8293,0.52175 -1.1326,0.0795 -2.05918,0.0257 -2.05902,-0.11974 z m 14.00333,-2.00671 c 0,-0.24312 0.17952,-0.44203 0.39893,-0.44203 0.21942,0 0.29944,-0.26275 0.17785,-0.58388 -0.12158,-0.32113 -0.0252,-0.70655 0.21413,-0.85648 0.27456,-0.17197 0.33422,-0.006 0.16161,0.45002 -0.24378,0.64382 -0.15762,0.63481 0.79031,-0.0827 0.58515,-0.4429 0.89573,-0.8679 0.69017,-0.94441 -0.20556,-0.0765 -0.37373,-0.33432 -0.37373,-0.57287 0,-0.2665 0.2326,-0.23809 0.60326,0.0737 0.48441,0.40744 0.84181,0.33527 1.81397,-0.36629 0.66588,-0.48053 1.55275,-0.87144 1.97083,-0.86866 0.47387,0.003 0.10663,0.38374 -0.97527,1.01067 -0.95445,0.5531 -2.34447,1.46227 -3.08891,2.02039 -1.92096,1.44016 -2.38315,1.66563 -2.38315,1.16254 z m -1.75726,-5.50263 c 0.27939,-0.28525 0.61171,-0.4135 0.73853,-0.28499 0.12686,0.12858 -0.10181,0.3619 -0.50796,0.51865 -0.58699,0.22652 -0.63429,0.17858 -0.23057,-0.23366 z m 1.56892,-0.33676 c -0.13029,-0.2137 -0.0795,-0.48719 0.11301,-0.60773 0.19245,-0.12053 0.34992,0.0543 0.34992,0.38855 0,0.70381 -0.12982,0.7653 -0.4629,0.21918 z m 7.60173,-2.51654 c 0.79284,-0.44924 1.76583,-0.94042 2.16225,-1.09154 0.3964,-0.15113 0.72074,-0.43583 0.72074,-0.63273 0,-0.1969 0.60234,-0.67077 1.33853,-1.05306 0.7362,-0.38227 1.43119,-0.83494 1.54446,-1.00592 0.11333,-0.17097 0.57661,-0.41843 1.02964,-0.54989 0.68619,-0.19911 -0.7064,-0.13914 -4.73634,0.20368 -0.33977,0.0289 -0.85393,0.24156 -1.14255,0.47255 -0.28863,0.23098 -0.64385,0.29929 -0.7894,0.15176 -0.14554,-0.14751 -0.002,-0.27106 0.31885,-0.27458 0.48334,-0.005 0.48779,-0.0678 0.026,-0.36442 -0.34815,-0.22359 0.81176,-0.45896 3.08892,-0.62682 2.00554,-0.14782 5.08062,-0.48688 6.83353,-0.75348 3.21479,-0.48894 4.1669,-0.31745 3.27217,0.58935 -0.37526,0.38029 -0.48736,0.3678 -0.48736,-0.0543 0,-0.41682 -0.46904,-0.47822 -1.95631,-0.25608 -2.45795,0.3671 -4.37018,1.24966 -6.52915,3.01345 -0.92941,0.75929 -1.82685,1.38054 -1.99431,1.38054 -0.16746,0 -0.77571,0.37565 -1.35166,0.83479 -0.57595,0.45914 -1.43918,0.83451 -1.91831,0.83416 -0.69302,-5.1e-4 -0.57642,-0.16765 0.57036,-0.81745 z m -5.47895,0.1087 c -0.58953,-0.15492 -0.64281,-0.31705 -0.25847,-0.78639 0.68696,-0.83888 1.1663,-0.73214 1.09378,0.24358 -0.0341,0.45914 -0.069,0.81302 -0.0774,0.78639 -0.008,-0.0267 -0.34951,-0.13631 -0.75795,-0.24358 z"
       id="path9905" />
    <text
       xml:space="preserve"
       style="font-style:normal;font-weight:normal;font-size:10.5833px;line-height:1.25;font-family:sans-serif;letter-spacing:0px;word-spacing:0px;fill:#000000;fill-opacity:1;stroke:none;stroke-width:0.264583"
       x="21.239782"
       y="82.995789"
       id="text1169"><tspan
         sodipodi:role="line"
         id="tspan1167"
         style="stroke-width:0.264583"
         x="21.239782"
         y="82.995789"></tspan></text>
  </g>
</svg>
