<svg xmlns="http://www.w3.org/2000/svg" version="1.1" xmlns:xlink="http://www.w3.org/1999/xlink" xmlns:svgjs="http://svgjs.com/svgjs" width="1000" height="1000"><g transform="matrix(2,0,0,2,0.4999217987060547,0)"><svg xmlns="http://www.w3.org/2000/svg" version="1.1" xmlns:xlink="http://www.w3.org/1999/xlink" xmlns:svgjs="http://svgjs.com/svgjs" width="500" height="500"><svg width="500" height="500" viewBox="0 0 500 500" fill="none" xmlns="http://www.w3.org/2000/svg">
<path d="M330.822 356.111C346.956 368.333 360.308 384.444 369.765 402.778C357.526 395 342.505 390 326.928 390C286.315 390 253.491 421.667 250.709 461.111C247.928 421.111 215.104 390 174.491 390C158.357 390 143.893 394.444 131.653 402.778C141.111 384.444 154.462 368.333 170.596 356.111C137.216 373.333 111.625 404.444 102.167 441.667C99.3849 464.444 103.279 480 117.188 500H383.674C398.139 479.444 400.92 472.778 399.252 441.667C389.238 404.444 364.202 373.333 330.822 356.111ZM460.449 282.778C455.998 273.889 449.322 265 441.533 254.444C419.836 225 393.132 187.778 393.132 141.111C393.132 80 363.646 46.1111 339.167 28.3334C310.793 7.77781 277.413 0 255.16 0C254.603 0 254.603 0 254.048 0C231.794 0 197.857 6.66665 169.484 26.1111C152.794 37.7778 139.441 52.2222 129.984 69.4444C118.857 90 113.293 113.889 113.293 141.667C113.293 186.667 84.3641 223.333 61.5543 252.222C52.0965 263.333 44.3077 273.333 39.3007 282.778C15.3781 325.556 21.4979 358.333 27.0612 373.889C33.1809 390 43.195 402.222 54.8782 406.667L60.9979 409.444V373.333C60.9979 342.778 71.012 297.222 98.2725 297.222C127.202 297.222 145.005 307.222 157.801 313.889C161.696 315.556 165.033 317.778 168.371 318.889C171.71 320.556 175.047 321.111 177.829 321.111C183.392 321.111 188.399 318.333 192.85 312.222C194.519 309.444 212.322 286.667 213.991 251.111V247.778L211.209 246.667C182.836 235 163.364 208.333 161.139 177.778C205.645 153.889 245.146 116.667 276.301 70.5555C289.097 98.8889 309.681 121.111 334.716 132.778V171.667C334.716 205 313.575 235 282.977 246.667L279.639 247.778V251.111C280.751 286.667 299.111 309.444 300.779 311.667C305.231 317.778 310.238 320.556 315.8 320.556C321.921 320.556 327.484 317.222 335.273 313.333C348.069 306.111 365.871 296.667 394.801 296.667C422.062 296.667 432.075 342.222 432.075 372.778V408.333L438.196 406.111C448.765 402.222 464.343 389.444 472.132 367.778C478.808 350 481.59 321.111 460.449 282.778ZM285.202 189.444C278.526 187.222 272.406 182.778 267.399 176.667C265.174 173.889 261.836 172.222 258.498 172.222C254.603 172.222 250.709 174.444 248.484 178.333C246.259 174.444 242.921 172.222 238.47 172.222C234.575 172.222 231.794 174.444 229.568 177.222C226.787 180 224.005 182.778 221.223 185C217.886 187.222 214.547 188.333 210.652 189.444C215.66 207.778 230.681 221.111 247.928 221.111C265.174 221.111 280.195 207.778 285.202 189.444ZM239.026 193.889C241.808 192.222 245.146 191.111 248.484 191.111C251.822 191.111 255.16 192.222 257.385 193.889C256.829 198.889 252.935 202.222 248.484 202.222C244.033 202.222 240.695 198.889 239.026 193.889Z" fill="url(#paint0_linear_3_2)"></path>
<defs>
<linearGradient id="paint0_linear_3_2" x1="22" y1="250.473" x2="477" y2="250.473" gradientUnits="userSpaceOnUse">
<stop stop-color="#7C3AED"></stop>
<stop offset="1" stop-color="#FB923C"></stop>
</linearGradient>
</defs>
</svg></svg></g></svg>