<svg width="111" height="72" viewBox="0 0 111 72" fill="none" xmlns="http://www.w3.org/2000/svg">
<path d="M110.081 1.10402L59.7173 18.9673L0.779489 1.03906C0.324787 1.6239 0 2.40338 0 3.24783V61.7095C0 67.1007 4.35193 71.4531 9.74361 71.4531H101.117C106.509 71.4531 110.861 67.1007 110.861 61.7095V3.24783C110.861 2.40338 110.536 1.68885 110.081 1.10402V1.10402Z" fill="url(#paint0_linear_774_850)"/>
<path d="M107.613 0H3.24817C2.27359 0 1.42914 0.389745 0.779785 1.0391L51.1436 44.9503C53.6116 47.0941 57.2496 47.0941 59.7176 44.9503L110.081 1.10406C109.497 0.454701 108.588 0 107.613 0V0Z" fill="url(#paint1_linear_774_850)"/>
<defs>
<linearGradient id="paint0_linear_774_850" x1="55.4303" y1="71.4531" x2="55.4303" y2="1.03906" gradientUnits="userSpaceOnUse">
<stop stop-color="#5558FF"/>
<stop offset="1" stop-color="#00C0FF"/>
</linearGradient>
<linearGradient id="paint1_linear_774_850" x1="55.4306" y1="46.5582" x2="55.4306" y2="0" gradientUnits="userSpaceOnUse">
<stop stop-color="#ADDCFF"/>
<stop offset="1" stop-color="#EAF6FF" stop-opacity="0"/>
</linearGradient>
</defs>
</svg>
