<svg width="107" height="40" viewBox="0 0 107 40" fill="none" xmlns="http://www.w3.org/2000/svg">
<path d="M31.1791 34.9504C28.0629 37.2843 24.1929 38.6667 20 38.6667C9.69068 38.6667 1.33333 30.3093 1.33333 20C1.33333 15.8071 2.71574 11.9371 5.04962 8.8209L4.09775 7.86903C1.52702 11.2338 0 15.4386 0 20C0 31.0457 8.95431 40 20 40C24.5614 40 28.7662 38.473 32.131 35.9022L31.1791 34.9504Z" fill="black"/>
<path d="M20 1.33333C15.8071 1.33333 11.9371 2.71575 8.82085 5.04966L7.86898 4.09779C11.2338 1.52704 15.4386 0 20 0C31.0457 0 40 8.95431 40 20C40 24.5614 38.473 28.7662 35.9022 32.131L34.9503 31.1791C37.2843 28.0629 38.6667 24.1929 38.6667 20C38.6667 9.69068 30.3093 1.33333 20 1.33333Z" fill="black"/>
<path d="M20 5C16.8211 5 13.8731 5.98888 11.447 7.67579L14.3382 10.567C15.9922 9.57217 17.9293 9 20 9C26.0751 9 31 13.9249 31 20C31 22.0707 30.4278 24.0078 29.433 25.6618L32.3242 28.553C34.0111 26.1269 35 23.1789 35 20C35 11.7157 28.2843 5 20 5Z" fill="black"/>
<path d="M5 20C5 16.8211 5.98886 13.8732 7.67576 11.447L10.567 14.3383C9.57216 15.9922 9 17.9293 9 20C9 26.0751 13.9249 31 20 31C22.0707 31 24.0078 30.4278 25.6617 29.433L28.553 32.3242C26.1268 34.0111 23.1789 35 20 35C11.7157 35 5 28.2843 5 20Z" fill="black"/>
<path d="M20 25C22.7614 25 25 22.7614 25 20C25 17.2386 22.7614 15 20 15C17.2386 15 15 17.2386 15 20C15 22.7614 17.2386 25 20 25Z" fill="black"/>
<path d="M50.97 31H47.58V10.06H56.61C58.49 10.06 59.97 10.63 61.05 11.77C62.13 12.89 62.67 14.42 62.67 16.36C62.67 17.86 62.32 19.11 61.62 20.11C60.94 21.09 59.93 21.78 58.59 22.18L63.12 31H59.34L55.14 22.54H50.97V31ZM56.37 19.69C57.23 19.69 57.9 19.47 58.38 19.03C58.86 18.57 59.1 17.92 59.1 17.08V15.64C59.1 14.8 58.86 14.16 58.38 13.72C57.9 13.26 57.23 13.03 56.37 13.03H50.97V19.69H56.37ZM68.6482 12.61C67.9682 12.61 67.4682 12.45 67.1482 12.13C66.8482 11.81 66.6982 11.4 66.6982 10.9V10.39C66.6982 9.89 66.8482 9.48 67.1482 9.16C67.4682 8.84 67.9682 8.68 68.6482 8.68C69.3282 8.68 69.8182 8.84 70.1182 9.16C70.4182 9.48 70.5682 9.89 70.5682 10.39V10.9C70.5682 11.4 70.4182 11.81 70.1182 12.13C69.8182 12.45 69.3282 12.61 68.6482 12.61ZM66.9982 15.4H70.2682V31H66.9982V15.4ZM74.9377 8.8H78.2077V22.42H78.3577L80.5177 19.63L84.2677 15.4H88.0777L82.6177 21.43L88.7377 31H84.8377L80.3677 23.56L78.2077 25.9V31H74.9377V8.8ZM100.501 28.42H100.381C100.241 28.8 100.051 29.17 99.8109 29.53C99.5909 29.89 99.3009 30.21 98.9409 30.49C98.6009 30.75 98.1809 30.96 97.6809 31.12C97.2009 31.28 96.6409 31.36 96.0009 31.36C94.3809 31.36 93.1209 30.84 92.2209 29.8C91.3409 28.76 90.9009 27.27 90.9009 25.33V15.4H94.1709V24.91C94.1709 27.33 95.1709 28.54 97.1709 28.54C97.5909 28.54 98.0009 28.49 98.4009 28.39C98.8009 28.27 99.1509 28.1 99.4509 27.88C99.7709 27.66 100.021 27.38 100.201 27.04C100.401 26.7 100.501 26.3 100.501 25.84V15.4H103.771V31H100.501V28.42Z" fill="black"/>
</svg>
