<svg xmlns="http://www.w3.org/2000/svg" xmlns:xlink="http://www.w3.org/1999/xlink" width="50" zoomAndPan="magnify" viewBox="0 0 37.5 37.499999" height="50" preserveAspectRatio="xMidYMid meet" version="1.0"><path fill="#41a09d" d="M 10.375 26.332031 C 9.359375 26.332031 8.308594 26.195312 7.222656 25.925781 C 6.136719 25.65625 5.359375 25.335938 4.898438 24.964844 L 6.035156 22.191406 C 7.296875 23.109375 8.746094 23.566406 10.375 23.566406 C 11.996094 23.566406 12.808594 23.078125 12.808594 22.097656 C 12.808594 21.660156 12.640625 21.324219 12.296875 21.082031 C 11.960938 20.84375 11.359375 20.5625 10.5 20.238281 L 9.296875 19.785156 C 8.03125 19.261719 7.027344 18.636719 6.289062 17.910156 C 5.550781 17.179688 5.179688 16.21875 5.179688 15.023438 C 5.179688 13.652344 5.699219 12.578125 6.742188 11.808594 C 7.789062 11.039062 9.1875 10.652344 10.9375 10.652344 C 11.804688 10.652344 12.652344 10.753906 13.484375 10.949219 C 14.320312 11.144531 14.960938 11.394531 15.402344 11.695312 L 14.167969 14.5 C 13.894531 14.21875 13.453125 13.972656 12.855469 13.769531 C 12.253906 13.5625 11.585938 13.460938 10.847656 13.460938 C 9.347656 13.460938 8.601562 13.925781 8.601562 14.859375 C 8.601562 15.382812 8.800781 15.78125 9.199219 16.050781 C 9.601562 16.320312 10.253906 16.617188 11.160156 16.941406 C 11.242188 16.964844 11.570312 17.085938 12.140625 17.300781 C 13.492188 17.847656 14.492188 18.46875 15.148438 19.160156 C 15.804688 19.855469 16.132812 20.746094 16.132812 21.832031 C 16.132812 23.3125 15.585938 24.433594 14.496094 25.195312 C 13.410156 25.953125 12.035156 26.332031 10.375 26.332031 Z M 10.375 26.332031 " fill-opacity="1" fill-rule="nonzero"/><path fill="#41a09d" d="M 24.734375 26.332031 C 23.429688 26.332031 22.222656 26.011719 21.117188 25.371094 C 20.007812 24.730469 19.121094 23.820312 18.457031 22.636719 C 17.789062 21.453125 17.460938 20.066406 17.460938 18.476562 C 17.460938 16.914062 17.75 15.546875 18.324219 14.371094 C 18.90625 13.195312 19.738281 12.28125 20.8125 11.632812 C 21.890625 10.980469 23.15625 10.652344 24.609375 10.652344 C 25.453125 10.652344 26.246094 10.804688 26.980469 11.113281 C 27.71875 11.414062 28.34375 11.789062 28.851562 12.234375 C 29.359375 12.679688 29.695312 13.121094 29.863281 13.554688 L 29.925781 11.042969 L 33.183594 11.042969 L 33.183594 26.007812 L 29.960938 26.007812 L 29.894531 23.367188 C 29.535156 24.148438 28.878906 24.839844 27.933594 25.4375 C 26.980469 26.035156 25.914062 26.332031 24.734375 26.332031 Z M 25.304688 23.394531 C 26.507812 23.394531 27.519531 22.96875 28.34375 22.109375 C 29.167969 21.253906 29.578125 20.128906 29.578125 18.734375 L 29.578125 18.511719 C 29.578125 17.574219 29.390625 16.738281 29.007812 16.003906 C 28.628906 15.265625 28.109375 14.6875 27.453125 14.277344 C 26.800781 13.863281 26.082031 13.65625 25.304688 13.65625 C 23.957031 13.65625 22.910156 14.105469 22.171875 15.007812 C 21.433594 15.910156 21.0625 17.078125 21.0625 18.511719 C 21.0625 19.96875 21.425781 21.148438 22.152344 22.050781 C 22.882812 22.949219 23.933594 23.394531 25.304688 23.394531 Z M 25.304688 23.394531 " fill-opacity="1" fill-rule="nonzero"/></svg>