<svg width="256" height="256" viewBox="0 0 256 256" fill="none" xmlns="http://www.w3.org/2000/svg">
<g clip-path="url(#clip0_509_2)">
<path d="M230.409 128.428C230.409 184.907 184.561 230.692 128.005 230.692C71.4482 230.692 25.6006 184.907 25.6006 128.428C25.6006 71.9494 71.4482 26.1646 128.005 26.1646C184.561 26.1646 230.409 71.9494 230.409 128.428Z" fill="#38A1D6"/>
<path d="M128.005 256.258C57.3106 256.258 0 199.026 0 128.428C0 57.8308 57.3106 0.598633 128.005 0.598633C198.699 0.598633 256.01 57.8308 256.01 128.428C255.931 198.993 198.666 256.179 128.005 256.258ZM128.005 9.12062C62.0233 9.12062 8.53367 62.537 8.53367 128.428C8.53367 194.32 62.0233 247.736 128.005 247.736C193.987 247.736 247.476 194.32 247.476 128.428C247.401 62.5682 193.955 9.19552 128.005 9.12062Z" fill="#3D41A6"/>
<path d="M187.74 128.429C187.74 161.374 160.995 188.083 128.004 188.083C95.0133 188.083 68.2686 161.374 68.2686 128.429C68.2686 95.4829 95.0133 68.7747 128.004 68.7747C160.995 68.7747 187.74 95.4829 187.74 128.429Z" fill="#3D41A6"/>
</g>
<defs>
<clipPath id="clip0_509_2">
<rect width="256" height="256" fill="white"/>
</clipPath>
</defs>
</svg>
