<svg width="16" height="17" viewBox="0 0 16 17" fill="none" xmlns="http://www.w3.org/2000/svg">
<path d="M16 8.00319C16 12.4229 12.4193 16.0046 8.00087 16.0046C3.5824 16.0046 0 12.4229 0 8.00319C0 3.58343 3.5824 0 8.00087 0C12.4193 0 16 3.5817 16 8.00146V8.00319Z" fill="url(#paint0_linear_611_759)"/>
<path d="M11.56 7.18344H4.14259C4.03786 7.18344 3.95215 7.09849 3.95215 6.99465V5.72656C3.95215 5.62272 4.03786 5.53775 4.14259 5.53775H7.107C7.16095 5.53775 7.20538 5.49371 7.20538 5.44021V3.18879C7.20538 3.02516 7.40217 2.93864 7.52435 3.05035L11.6901 6.85463C11.817 6.97104 11.7345 7.18188 11.5615 7.18188L11.56 7.18344Z" fill="white"/>
<path d="M4.43972 8.81656H11.8571C11.9618 8.81656 12.0475 8.90152 12.0475 9.00535V10.2734C12.0475 10.3773 11.9618 10.4622 11.8571 10.4622H8.89267C8.83871 10.4622 8.79427 10.5063 8.79427 10.5598V12.8112C8.79427 12.9748 8.5975 13.0614 8.4753 12.9497L4.30958 9.14538C4.18264 9.02896 4.26515 8.81813 4.43814 8.81813L4.43972 8.81656Z" fill="white"/>
<defs>
<linearGradient id="paint0_linear_611_759" x1="11.4672" y1="-7.20253e-07" x2="3.10583" y2="14.9573" gradientUnits="userSpaceOnUse">
<stop offset="0.281171" stop-color="#42449C"/>
<stop offset="1" stop-color="#FABBFF"/>
</linearGradient>
</defs>
</svg>
