<svg xmlns="http://www.w3.org/2000/svg" xmlns:xlink="http://www.w3.org/1999/xlink" width="500" zoomAndPan="magnify" viewBox="0 0 375 374.999991" height="500" preserveAspectRatio="xMidYMid meet" version="1.0"><defs><g/></defs><rect x="-37.5" width="450" fill="#ffffff" y="-37.499999" height="449.999989" fill-opacity="1"/><rect x="-37.5" width="450" fill="#ffffff" y="-37.499999" height="449.999989" fill-opacity="1"/><rect x="-37.5" width="450" fill="#ffffff" y="-37.499999" height="449.999989" fill-opacity="1"/><g fill="#000000" fill-opacity="1"><g transform="translate(95.551383, 267.857994)"><g><path d="M 93.238281 -73.652344 C 82.792969 -44.921875 66.335938 -31.078125 51.191406 -31.078125 C 41.789062 -31.078125 36.042969 -36.824219 36.042969 -43.875 C 36.042969 -45.707031 36.5625 -47.792969 37.085938 -49.621094 L 62.679688 -122.488281 L 79.65625 -122.488281 C 92.976562 -122.488281 100.027344 -131.890625 100.027344 -140.511719 C 100.027344 -147.300781 95.589844 -153.308594 85.664062 -153.308594 L 73.910156 -153.308594 L 91.410156 -204.238281 C 91.933594 -206.066406 92.195312 -207.632812 92.195312 -209.199219 C 92.195312 -218.863281 85.402344 -226.699219 73.910156 -226.699219 C 65.292969 -226.699219 57.980469 -220.691406 54.847656 -211.550781 L 33.953125 -153.308594 L 22.984375 -153.308594 C 8.878906 -153.308594 2.871094 -144.429688 2.871094 -136.070312 C 2.871094 -128.757812 7.3125 -122.488281 14.363281 -122.488281 L 22.984375 -122.488281 L 1.042969 -59.546875 L 1.042969 -59.808594 C -1.042969 -53.539062 -2.089844 -47.792969 -2.089844 -42.308594 C -2.089844 -15.671875 21.675781 0 48.578125 0 C 82.007812 0 109.953125 -24.8125 124.839844 -67.644531 C 125.363281 -69.472656 125.886719 -71.300781 125.886719 -72.867188 C 125.886719 -80.703125 118.3125 -85.664062 110.214844 -85.664062 C 103.683594 -85.664062 96.371094 -82.007812 93.238281 -73.652344 Z M 93.238281 -73.652344 "/></g></g></g><g fill="#38b6ff" fill-opacity="1"><g transform="translate(153.66085, 335.44022)"><g><path d="M 153.070312 -85.308594 C 139.757812 -50.214844 107.996094 -36 82.28125 -36 C 60.199219 -36 46.285156 -46.585938 46.285156 -60.5 C 46.285156 -63.222656 46.585938 -65.945312 47.796875 -68.972656 L 50.214844 -74.71875 C 58.988281 -69.273438 69.878906 -65.644531 81.980469 -65.644531 C 109.507812 -65.644531 133.710938 -82.886719 141.875 -110.113281 C 143.390625 -115.859375 144.296875 -121.609375 144.296875 -126.75 C 144.296875 -155.488281 121.609375 -177.574219 87.425781 -177.574219 C 60.5 -177.574219 34.183594 -161.84375 23.597656 -131.589844 L 5.746094 -79.863281 C 3.328125 -72.601562 1.816406 -65.34375 1.816406 -58.382812 C 1.816406 -22.386719 35.695312 0 79.863281 0 C 121.910156 0 169.707031 -20.570312 189.671875 -78.351562 C 190.582031 -80.769531 190.882812 -82.886719 190.882812 -84.703125 C 190.882812 -94.082031 182.414062 -99.222656 173.339844 -99.222656 C 164.867188 -99.222656 155.792969 -94.683594 153.070312 -85.308594 Z M 86.519531 -141.875 C 94.988281 -141.875 100.433594 -134.917969 100.433594 -126.144531 C 100.433594 -123.726562 100.128906 -121.304688 99.222656 -118.886719 C 96.199219 -108.902344 87.121094 -105.273438 78.046875 -105.273438 C 72.300781 -105.273438 66.550781 -106.484375 62.316406 -108.902344 L 68.667969 -127.054688 C 71.996094 -136.433594 79.558594 -141.875 86.519531 -141.875 Z M 86.519531 -141.875 "/></g></g></g></svg>