<svg width="21" height="21" viewBox="0 0 21 21" fill="none" xmlns="http://www.w3.org/2000/svg">
<g clip-path="url(#clip0_273_380)">
<path d="M17.6701 17.7898C16.8323 18.6233 15.6754 19.1399 14.3992 19.1399H6.09037C3.53132 19.1399 1.4563 17.0649 1.4563 14.5058V4.11983C1.4563 3.23859 2.41133 2.68728 3.17319 3.1279L7.25595 5.48726C4.71209 5.50462 2.65443 7.57314 2.65443 10.1213V13.6419C2.65443 16.201 4.72945 18.276 7.28851 18.276H15.5995C16.3418 18.2782 17.0472 18.1024 17.6701 17.7898Z" fill="#DEDEDE"/>
<path d="M20.2314 3.25804V13.644C20.2314 15.4586 19.1895 17.03 17.6702 17.7897C18.5123 16.9497 19.0333 15.7885 19.0333 14.5057V10.9851C19.0333 8.42607 16.9582 6.35104 14.3992 6.35104H8.74713L7.25598 5.48934C7.26683 5.48934 7.27769 5.48934 7.28854 5.48934H12.9428L18.5167 2.26828C19.2764 1.82549 20.2314 2.37681 20.2314 3.25804Z" fill="#FFF2F2"/>
<path d="M19.0354 10.9853V14.5059C19.0354 15.7887 18.5145 16.9499 17.6723 17.7899C17.0494 18.1024 16.3439 18.2782 15.5994 18.2782H7.28849C4.72944 18.2782 2.65442 16.2032 2.65442 13.6442V10.1236C2.65442 7.57538 4.71208 5.50687 7.25594 5.4895L8.74709 6.3512H14.4013C16.9604 6.3512 19.0354 8.42622 19.0354 10.9853Z" fill="white"/>
<path fill-rule="evenodd" clip-rule="evenodd" d="M6.7915 9.72192C7.1455 9.72192 7.43248 10.0089 7.43248 10.3629V12.9068C7.43248 13.4226 7.85686 13.8459 8.37164 13.8459C8.88744 13.8459 9.3108 13.4215 9.3108 12.9068V10.3629C9.3108 10.0089 9.59778 9.72192 9.95178 9.72192C10.3058 9.72192 10.5928 10.0089 10.5928 10.3629V12.9068C10.5928 14.1284 9.5966 15.1279 8.37164 15.1279C7.15 15.1279 6.15051 14.1317 6.15051 12.9068V10.3629C6.15051 10.0089 6.43749 9.72192 6.7915 9.72192ZM11.0385 10.4237C11.0385 10.0697 11.3255 9.7827 11.6795 9.7827H13.748C14.7366 9.7827 15.5394 10.5892 15.5394 11.5741V12.0342C15.5394 13.0228 14.7329 13.8256 13.748 13.8256H12.3205V14.4804C12.3205 14.8344 12.0335 15.1214 11.6795 15.1214C11.3255 15.1214 11.0385 14.8344 11.0385 14.4804V13.1781C11.0385 12.8241 11.3255 12.5371 11.6795 12.5371C11.7107 12.5371 11.7413 12.5393 11.7712 12.5436H13.748C14.0264 12.5436 14.2574 12.3132 14.2574 12.0342V11.5741C14.2574 11.2957 14.027 11.0647 13.748 11.0647H11.6795C11.3255 11.0647 11.0385 10.7777 11.0385 10.4237Z" fill="#4E944F"/>
</g>
<defs>
<clipPath id="clip0_273_380">
<rect width="20" height="20" fill="white" transform="translate(0.843872 0.625977)"/>
</clipPath>
</defs>
</svg>
