<svg id="Layer_1" data-name="Layer 1" xmlns="http://www.w3.org/2000/svg" xmlns:xlink="http://www.w3.org/1999/xlink" viewBox="0 0 528.39 555.06"><defs><style>.cls-1{fill:url(#linear-gradient);}.cls-2{fill:url(#linear-gradient-2);}.cls-3,.cls-4{opacity:0.6;}.cls-3{fill:url(#linear-gradient-3);}.cls-4{fill:url(#linear-gradient-4);}.cls-5{opacity:0.4;fill:url(#linear-gradient-5);}</style><linearGradient id="linear-gradient" x1="380.62" y1="146.66" x2="98.11" y2="459.69" gradientUnits="userSpaceOnUse"><stop offset="0.18" stop-color="#04c9fe"/><stop offset="0.84" stop-color="#182ab4"/></linearGradient><linearGradient id="linear-gradient-2" x1="351.68" y1="120.55" x2="69.17" y2="433.58" xlink:href="#linear-gradient"/><linearGradient id="linear-gradient-3" x1="29.21" y1="271.01" x2="407.44" y2="293.83" gradientUnits="userSpaceOnUse"><stop offset="0" stop-color="#06baf7" stop-opacity="0"/><stop offset="0.31" stop-color="#0487d0" stop-opacity="0.27"/><stop offset="0.97" stop-color="#00066c" stop-opacity="0.97"/><stop offset="1" stop-color="#000068"/></linearGradient><linearGradient id="linear-gradient-4" x1="36.68" y1="432.75" x2="264.05" y2="68.14" xlink:href="#linear-gradient-3"/><linearGradient id="linear-gradient-5" x1="150.77" y1="408.82" x2="141.25" y2="187.01" xlink:href="#linear-gradient-3"/></defs><polygon class="cls-1" points="273.7 227.93 273.7 263.23 308.99 263.23 273.7 227.93"/><path class="cls-2" d="M300,364.61a3.58,3.58,0,0,0-2.54-1.05H197.57a3.6,3.6,0,1,0,0,7.19h99.88a3.6,3.6,0,0,0,2.54-6.14Zm0-25.32a3.52,3.52,0,0,0-2.54-1.07H197.57a3.6,3.6,0,0,0,0,7.2h99.88a3.59,3.59,0,0,0,2.54-6.13ZM300,314a3.58,3.58,0,0,0-2.54-1.05H197.57a3.59,3.59,0,1,0,0,7.18h99.88A3.59,3.59,0,0,0,300,314Zm0-25.33a3.58,3.58,0,0,0-2.54-1.05H197.57a3.6,3.6,0,0,0,0,7.19h99.88a3.6,3.6,0,0,0,2.54-6.14ZM410.8,235.47,170.39,103.37c-36.54-20.09-81.23,6.35-81.23,48v263a56.07,56.07,0,0,0,3,18.13,41.32,41.32,0,0,0,79.68-15.35V228.45a14.75,14.75,0,0,1,14.76-14.74h89.16l47.5,47.5v86.24a19.13,19.13,0,0,0,28.36,16.75l59.28-32.66C448.7,310.67,448.67,256.28,410.8,235.47Z"/><path class="cls-3" d="M89.16,151.41v263a56.07,56.07,0,0,0,3,18.13,41.32,41.32,0,0,0,79.68-15.35V228.45a14.75,14.75,0,0,1,14.76-14.74h89.16l47.5,47.5v-54a33.61,33.61,0,0,0-17.42-29.45l-88.57-48.66L160.69,99.18C126.4,88,89.16,113.35,89.16,151.41Z"/><path class="cls-4" d="M130.47,458.55a41.33,41.33,0,0,0,41.33-41.32V228.45a14.75,14.75,0,0,1,14.76-14.74h89.16L175.31,113.3c-17.68-17.68-42.32-18.56-60.73-8.14a54.27,54.27,0,0,0-25.42,46.25v263a56.07,56.07,0,0,0,3,18.13A41.31,41.31,0,0,0,130.47,458.55Z"/><path class="cls-5" d="M126,213.71a36.79,36.79,0,0,0-36.79,36.78v164a56.07,56.07,0,0,0,3,18.13,41.32,41.32,0,0,0,79.68-15.35V228.45a14.75,14.75,0,0,1,14.76-14.74H126Z"/></svg>