<svg width="73" height="72" viewBox="0 0 73 72" fill="none" xmlns="http://www.w3.org/2000/svg">
<path d="M28.1587 26.488C30.0905 31.2788 34.9184 36.66 45.7152 34.4419C52.9562 32.9544 53.0947 39.242 50.5748 44.8365C46.3524 54.2108 28.7779 60.7538 17.1958 47.5534C7.58357 36.5982 15.6861 16.5692 29.3749 14.8535C28.1473 18.6376 26.7054 22.8838 28.1587 26.488Z" fill="url(#paint0_radial_48_9)"/>
<g filter="url(#filter0_f_48_9)">
<path d="M40.4994 32.1369L40.8148 32.1512C40.8679 32.1533 40.9214 32.1553 40.9752 32.1572L41.3017 32.1673C41.3568 32.1687 41.4122 32.1701 41.4679 32.1713L41.8066 32.1776L42.1537 32.1816C42.2123 32.1821 42.2713 32.1825 42.3306 32.1828L42.6913 32.1837C47.2066 32.1837 51.4113 37.0714 51.2434 41.936L51.2978 41.8252C47.4262 49.8014 38.5987 52.6308 27.666 47.2L27.334 47.0329C18.8303 42.6953 22.326 30.6342 26.0931 21.9997C28.7376 20.8816 37.0179 31.9613 40.4994 32.1369Z" fill="url(#paint1_linear_48_9)"/>
</g>
<path d="M33.647 11.4952C25.9016 14.1923 19.2863 34.2706 26.5987 40.6658C32.8218 46.1083 44.9345 39.2417 48.0888 39.2417C51.243 39.2417 50.9568 42.5775 50.9568 42.5775C50.9568 42.5775 57.1883 38.1003 56.2424 27.9661C55.2966 17.832 41.5201 8.75364 33.647 11.4952Z" fill="url(#paint2_linear_48_9)"/>
<defs>
<filter id="filter0_f_48_9" x="0.760618" y="0.60681" width="71.8508" height="70.707" filterUnits="userSpaceOnUse" color-interpolation-filters="sRGB">
<feFlood flood-opacity="0" result="BackgroundImageFix"/>
<feBlend mode="normal" in="SourceGraphic" in2="BackgroundImageFix" result="shape"/>
<feGaussianBlur stdDeviation="10.6568" result="effect1_foregroundBlur_48_9"/>
</filter>
<radialGradient id="paint0_radial_48_9" cx="0" cy="0" r="1" gradientUnits="userSpaceOnUse" gradientTransform="translate(48.0172 42.3285) rotate(-165.388) scale(45.325 45.8943)">
<stop stop-color="#16EFE5"/>
<stop offset="0.314395" stop-color="#21C4E9" stop-opacity="0.756933"/>
<stop offset="1" stop-color="#4540F6" stop-opacity="0.01"/>
</radialGradient>
<linearGradient id="paint1_linear_48_9" x1="33.2432" y1="54.3973" x2="41.8583" y2="38.8644" gradientUnits="userSpaceOnUse">
<stop stop-color="#4800D5" stop-opacity="0.14892"/>
<stop offset="1" stop-color="#1E00FF" stop-opacity="0.523777"/>
</linearGradient>
<linearGradient id="paint2_linear_48_9" x1="39.0374" y1="4.95911" x2="15.1846" y2="27.7509" gradientUnits="userSpaceOnUse">
<stop stop-color="#4071F6" stop-opacity="0.01"/>
<stop offset="0.663501" stop-color="#36C4EB" stop-opacity="0.773677"/>
<stop offset="1" stop-color="#78FFD3"/>
</linearGradient>
</defs>
</svg>
