<?xml version="1.0" encoding="UTF-8" standalone="no"?>
<svg width="92" height="92" viewBox="0 0 400 400" fill="none" xmlns="http://www.w3.org/2000/svg">
<path fill-rule="evenodd" clip-rule="evenodd" d="M385.355 14.6447L200 200L385.355 385.355C394.404 376.307 400 363.807 400 350V50C400 36.1929 394.404 23.6929 385.355 14.6447Z" fill="#60D5C4"/>
<path fill-rule="evenodd" clip-rule="evenodd" d="M385.355 14.6447L200 200L14.6447 14.6447C23.6929 5.59644 36.1929 0 50 0H350C363.807 0 376.307 5.59644 385.355 14.6447Z" fill="#71E9D8"/>
<path fill-rule="evenodd" clip-rule="evenodd" d="M14.6447 14.6447L200 200L14.6447 385.355C5.59644 376.307 0 363.807 0 350V50C0 36.1929 5.59644 23.6929 14.6447 14.6447Z" fill="#60D5C4"/>
<path fill-rule="evenodd" clip-rule="evenodd" d="M385.355 385.355L200 200L14.6447 385.355C23.6929 394.404 36.1929 400 50 400H350C363.807 400 376.307 394.404 385.355 385.355Z" fill="#71E9D8"/>
<rect x="55" y="55" width="290" height="290" rx="2" fill="#099A89"/>
<path d="M128.7 279.8C123.1 279.8 118.2 277.8 114 273.8C110 269.6 108 264.7 108 259.1C108 253.3 110 248.4 114 244.4C118.2 240.2 123.1 238.1 128.7 238.1C134.5 238.1 139.4 240.2 143.4 244.4C147.4 248.4 149.4 253.3 149.4 259.1C149.4 264.7 147.4 269.6 143.4 273.8C139.4 277.8 134.5 279.8 128.7 279.8ZM200.184 279.8C194.584 279.8 189.684 277.8 185.484 273.8C181.484 269.6 179.484 264.7 179.484 259.1C179.484 253.3 181.484 248.4 185.484 244.4C189.684 240.2 194.584 238.1 200.184 238.1C205.984 238.1 210.884 240.2 214.884 244.4C218.884 248.4 220.884 253.3 220.884 259.1C220.884 264.7 218.884 269.6 214.884 273.8C210.884 277.8 205.984 279.8 200.184 279.8ZM271.669 279.8C266.069 279.8 261.169 277.8 256.969 273.8C252.969 269.6 250.969 264.7 250.969 259.1C250.969 253.3 252.969 248.4 256.969 244.4C261.169 240.2 266.069 238.1 271.669 238.1C277.469 238.1 282.369 240.2 286.369 244.4C290.369 248.4 292.369 253.3 292.369 259.1C292.369 264.7 290.369 269.6 286.369 273.8C282.369 277.8 277.469 279.8 271.669 279.8Z" fill="white"/>
</svg>
