<svg width="256" height="256" viewBox="0 0 256 256" fill="none" xmlns="http://www.w3.org/2000/svg">
<g clip-path="url(#clip0_1650_1021)">
<rect width="256" height="256" rx="26.6251" fill="#FF5C39"/>
<path d="M127.855 68.425C160.226 68.425 187.509 94.3618 187.509 127.999C187.509 161.635 160.226 187.572 127.855 187.572C95.4833 187.572 68.4275 161.635 68.4275 127.999C68.4275 94.3618 95.4833 68.425 127.855 68.425ZM127.855 163.277C147.051 163.277 161.612 148.094 161.612 127.999C161.612 107.903 147.039 92.7204 127.855 92.7204C108.671 92.7204 94.3246 107.903 94.3246 127.999C94.3246 148.094 108.898 163.277 127.855 163.277Z" fill="#F7F8F6"/>
<path d="M127.855 196.35C160.226 196.35 187.509 222.287 187.509 255.924C187.509 289.561 160.226 315.497 127.855 315.497C95.4833 315.497 68.4275 289.561 68.4275 255.924C68.4275 222.287 95.4833 196.35 127.855 196.35ZM127.855 291.202C147.051 291.202 161.612 276.019 161.612 255.924C161.612 235.828 147.039 220.645 127.855 220.645C108.671 220.645 94.3246 235.828 94.3246 255.924C94.3246 276.019 108.898 291.202 127.855 291.202Z" fill="#F7F8F6"/>
</g>
<defs>
<clipPath id="clip0_1650_1021">
<rect width="256" height="256" rx="26.6251" fill="white"/>
</clipPath>
</defs>
</svg>
