<svg width="256" height="256" viewBox="0 0 256 256" fill="none" xmlns="http://www.w3.org/2000/svg">
<path d="M185.785 5.96924H70.2153C34.7335 5.96924 5.96973 34.733 5.96973 70.2148V185.785C5.96973 221.267 34.7335 250.03 70.2153 250.03H128.33C144.948 250.03 160.919 243.591 172.89 232.065L230.345 176.746C242.924 164.636 250.031 147.927 250.031 130.466V70.2148C250.031 34.733 221.267 5.96924 185.785 5.96924Z" fill="#0C0C0C"/>
<path d="M173.506 79.7279L104.69 148.544L82.4944 126.348C77.6289 121.483 69.7403 121.483 64.8748 126.348C60.0093 131.214 60.0093 139.102 64.8748 143.968L99.2651 178.358C102.262 181.356 107.12 181.356 110.117 178.358L108.694 176.935L110.117 178.358L191.125 97.3474C195.991 92.4819 195.991 84.5934 191.125 79.7279C186.26 74.8624 178.371 74.8624 173.506 79.7279Z" fill="white" stroke="white" stroke-width="4.02512"/>
<mask id="mask0" mask-type="alpha" maskUnits="userSpaceOnUse" x="5" y="5" width="246" height="246">
<path d="M185.785 5.96924H70.2153C34.7335 5.96924 5.96973 34.733 5.96973 70.2148V185.785C5.96973 221.267 34.7335 250.03 70.2153 250.03H128.33C144.948 250.03 160.919 243.591 172.89 232.065L230.345 176.746C242.924 164.636 250.031 147.927 250.031 130.466V70.2148C250.031 34.733 221.267 5.96924 185.785 5.96924Z" fill="#0C0C0C"/>
</mask>
<g mask="url(#mask0)">
<path d="M252.363 157.251H207.326C175.787 157.251 150.219 182.819 150.219 214.358V257.312L252.363 157.251Z" fill="#626262"/>
</g>
</svg>
