<svg width="1024" height="1024" viewBox="0 0 1024 1024" fill="none" xmlns="http://www.w3.org/2000/svg">
<path d="M32 367.446C32 252.547 32 195.097 53.6495 150.905C74.3781 108.593 108.593 74.3781 150.905 53.6495C195.097 32 252.547 32 367.446 32H656.554C771.453 32 828.903 32 873.095 53.6495C915.407 74.3781 949.622 108.593 970.35 150.905C992 195.097 992 252.547 992 367.446V656.554C992 771.453 992 828.903 970.35 873.095C949.622 915.407 915.407 949.622 873.095 970.35C828.903 992 771.453 992 656.554 992H367.446C252.547 992 195.097 992 150.905 970.35C108.593 949.622 74.3781 915.407 53.6495 873.095C32 828.903 32 771.453 32 656.554V367.446Z" fill="#220660"/>
<path d="M108.46 486.032C124.001 484.737 135.656 480.528 143.427 473.405C151.521 466.282 155.568 456.731 155.568 444.752C155.568 431.153 154.111 411.565 151.197 385.988C147.96 355.554 146.341 333.375 146.341 319.453C146.341 294.2 153.787 274.612 168.681 260.69C183.898 246.444 203.971 239.321 228.902 239.321H262.411V296.628H242.014C221.941 296.628 211.904 306.179 211.904 325.281C211.904 334.347 213.199 352.478 215.789 379.674C216.113 382.912 216.922 392.139 218.217 407.356C219.512 422.25 220.16 435.524 220.16 447.18C220.16 464.34 215.951 478.585 207.533 489.917C199.115 501.249 186.326 508.534 169.166 511.772V512.743C186.326 516.304 199.115 523.751 207.533 535.083C215.951 546.091 220.16 560.337 220.16 577.82C220.16 588.828 219.512 601.941 218.217 617.158C216.922 632.051 216.113 641.441 215.789 645.326C213.199 672.522 211.904 690.491 211.904 699.233C211.904 709.27 214.332 716.555 219.188 721.087C224.045 725.62 231.654 727.887 242.014 727.887H262.411V785.679H228.902C203.971 785.679 183.898 778.556 168.681 764.31C153.787 750.388 146.341 730.8 146.341 705.547C146.341 691.301 147.96 668.961 151.197 638.527C154.111 612.949 155.568 593.523 155.568 580.248C155.568 568.269 151.521 558.718 143.427 551.595C135.656 544.472 124.001 540.263 108.46 538.968V486.032Z" fill="#5E17EB"/>
<path d="M565.834 814L426.716 639.756V814H323.118V211H426.716V578.475L564.354 404.97H699.032L518.475 610.223L700.512 814H565.834Z" fill="white"/>
<path d="M915.17 538.968C899.629 540.263 887.812 544.472 879.718 551.595C871.947 558.718 868.062 568.269 868.062 580.248C868.062 593.523 869.519 612.949 872.433 638.527C875.67 668.961 877.289 691.301 877.289 705.547C877.289 730.8 869.681 750.388 854.464 764.31C839.57 778.556 819.659 785.679 794.728 785.679H761.219V727.887H781.616C791.976 727.887 799.585 725.62 804.442 721.087C809.298 716.555 811.726 709.27 811.726 699.233C811.726 690.491 810.431 672.522 807.841 645.326C807.517 641.441 806.708 632.051 805.413 617.158C804.118 601.941 803.47 588.828 803.47 577.82C803.47 560.337 807.679 546.091 816.097 535.083C824.515 523.751 837.304 516.304 854.464 512.743V511.772C837.304 508.534 824.515 501.249 816.097 489.917C807.679 478.585 803.47 464.34 803.47 447.18C803.47 435.524 804.118 422.25 805.413 407.356C806.708 392.139 807.517 382.912 807.841 379.674C810.431 352.478 811.726 334.347 811.726 325.281C811.726 306.179 801.689 296.628 781.616 296.628H761.219V239.321H794.728C819.659 239.321 839.57 246.444 854.464 260.69C869.681 274.612 877.289 294.2 877.289 319.453C877.289 333.375 875.67 355.554 872.433 385.988C869.519 411.565 868.062 431.153 868.062 444.752C868.062 456.731 871.947 466.282 879.718 473.405C887.812 480.528 899.629 484.737 915.17 486.032V538.968Z" fill="#5E17EB"/>
</svg>
