<?xml version="1.0" encoding="utf-8"?>
<!-- Generator: Adobe Illustrator 26.0.2, SVG Export Plug-In . SVG Version: 6.00 Build 0)  -->
<svg version="1.1" id="Layer_1" xmlns="http://www.w3.org/2000/svg" xmlns:xlink="http://www.w3.org/1999/xlink" x="0px" y="0px"
	 viewBox="0 0 229 229" style="enable-background:new 0 0 229 229;" xml:space="preserve">
<style type="text/css">
	.st0{fill:#FFFFFF;}
	.st1{fill:url(#SVGID_1_);}
	.st2{fill:url(#SVGID_00000029026452566306227330000017910626320856866725_);}
	.st3{fill:url(#SVGID_00000063609776477253521810000007389489242968158395_);}
	.st4{opacity:0.41;fill:url(#SVGID_00000127028806995655483250000017392989638495408798_);}
</style>
<g>
	<path class="st0" d="M193.1,108.3c5.1-10.2,7.9-21.5,7.9-33.2c0-41-33.3-74.3-74.3-74.3H74.6h-8.8c-5,0-9.9,0.7-14.6,2.2
		C45,4.9,39.4,8,34.4,12.1c-2.4,2-4.7,4.2-6.7,6.7c-1,1.2-2,2.5-2.8,3.8c-5.5,8.2-8.4,17.7-8.4,27.6v86.4v10.1v0.1v19l0,38.6l0,24
		h24h34.1h61.6h5.2c9.6,0,18.9-1.9,27.7-5.6c3.2-1.3,6.3-2.9,9.2-4.7c3.9-2.4,7.6-5.1,10.9-8.2c1.7-1.5,3.3-3.1,4.8-4.8
		c1.5-1.7,3-3.4,4.3-5.3c1.4-1.8,2.7-3.7,3.8-5.7c1.2-2,2.3-4,3.3-6c4.7-9.7,7-20.1,7-30.8C212.5,138.8,205.6,121.6,193.1,108.3z
		 M162.3,39.6C162.3,39.6,162.3,39.5,162.3,39.6C162.3,39.5,162.3,39.6,162.3,39.6z"/>
	<g>
		<linearGradient id="SVGID_1_" gradientUnits="userSpaceOnUse" x1="78.921" y1="57.601" x2="174.8422" y2="93.3048">
			<stop  offset="2.808909e-03" style="stop-color:#63ABFC"/>
			<stop  offset="6.193171e-02" style="stop-color:#68ADFC"/>
			<stop  offset="0.3577" style="stop-color:#7AB4FC"/>
			<stop  offset="0.6651" style="stop-color:#85B9FC"/>
			<stop  offset="1" style="stop-color:#89BAFC"/>
		</linearGradient>
		<path class="st1" d="M177,75.1c0-27.8-22.5-50.3-50.3-50.3H74.6V110h61.6h5.2c6.3,0,12.3,1.2,17.8,3.5
			C170.2,104.1,177,90.3,177,75.1z"/>
		<g>
			
				<linearGradient id="SVGID_00000150091968913517720130000002663388439660098464_" gradientUnits="userSpaceOnUse" x1="40.499" y1="164.1602" x2="188.5012" y2="164.1602">
				<stop  offset="0" style="stop-color:#004EF7"/>
				<stop  offset="9.577161e-02" style="stop-color:#0857F5"/>
				<stop  offset="0.4488" style="stop-color:#2172EF"/>
				<stop  offset="0.7617" style="stop-color:#3182EB"/>
				<stop  offset="1" style="stop-color:#3688EA"/>
			</linearGradient>
			<path style="fill:url(#SVGID_00000150091968913517720130000002663388439660098464_);" d="M142.2,142.1l-97.5,22.6l-4.2,1v38.6
				h34.1h61.6h5.2c26,0,47.1-21.1,47.1-47.1v0c0-12.8-5.1-24.5-13.5-33C166.2,132.8,155,139.1,142.2,142.1z"/>
			<g>
				
					<linearGradient id="SVGID_00000141451465510716766360000007711129147151353007_" gradientUnits="userSpaceOnUse" x1="40.499" y1="85.7278" x2="159.1521" y2="85.7278">
					<stop  offset="0" style="stop-color:#004EF7"/>
					<stop  offset="9.577161e-02" style="stop-color:#0857F5"/>
					<stop  offset="0.4488" style="stop-color:#2172EF"/>
					<stop  offset="0.7617" style="stop-color:#3182EB"/>
					<stop  offset="1" style="stop-color:#3688EA"/>
				</linearGradient>
				<path style="fill:url(#SVGID_00000141451465510716766360000007711129147151353007_);" d="M74.6,110V24.8h-8.8
					c-2.6,0-5.1,0.4-7.5,1.1c-3.2,1-6.1,2.6-8.6,4.6c-1.2,1-2.4,2.2-3.4,3.4c-0.5,0.6-1,1.3-1.5,1.9c-2.7,4-4.3,8.9-4.3,14.1v86.4
					v10.2l97.5-22.6c8-1.9,15.2-5.6,21.1-10.6c-5.5-2.2-11.5-3.5-17.8-3.5H74.6z"/>
			</g>
		</g>
		
			<linearGradient id="SVGID_00000018235393673605137350000005035326856353265289_" gradientUnits="userSpaceOnUse" x1="124.2948" y1="212.7035" x2="105.4942" y2="144.9847">
			<stop  offset="0.1935" style="stop-color:#0066E6;stop-opacity:0"/>
			<stop  offset="0.3213" style="stop-color:#045ED5;stop-opacity:0.1425"/>
			<stop  offset="0.5731" style="stop-color:#0F48AA;stop-opacity:0.4236"/>
			<stop  offset="0.9221" style="stop-color:#202564;stop-opacity:0.813"/>
			<stop  offset="1" style="stop-color:#241D54;stop-opacity:0.9"/>
		</linearGradient>
		<path style="opacity:0.41;fill:url(#SVGID_00000018235393673605137350000005035326856353265289_);" d="M142.2,142.1l-97.5,22.6
			l-4.2,1v38.6h34.1h61.6h5.2c26,0,47.1-21.1,47.1-47.1v0c0-12.8-5.1-24.5-13.5-33C166.2,132.8,155,139.1,142.2,142.1z"/>
	</g>
</g>
</svg>
