<svg width="30" height="30" viewBox="0 0 30 30" fill="none" xmlns="http://www.w3.org/2000/svg">
<path d="M24.4488 30H5.55118C2.48459 30 0 27.6638 0 24.7834V5.21664C0 2.33485 2.48601 0 5.55118 0H24.4488C27.5154 0 30 2.33619 30 5.21664V24.7834C30.0014 27.6638 27.5154 30 24.4488 30Z" fill="url(#paint0_linear_417_56)"/>
<path d="M14.1162 12.8403L13.3207 14.1522L13.3236 14.1535L13.9013 13.2014L14.1204 12.8416L14.1162 12.8403ZM17.0732 20.7595C17.0519 20.7234 17.0291 20.6873 17.0077 20.6512L16.8839 20.4466C16.8171 20.3356 16.6918 20.2674 16.5581 20.2674H8.79552C8.50522 20.2674 8.3245 19.9692 8.46964 19.7298L8.92074 18.9863L9.89835 17.3723L12.4598 13.1505L13.1642 11.9871L13.5342 11.3773L14.2385 10.2139L14.9999 8.95825L15.9661 7.36424C16.033 7.25325 16.033 7.11685 15.9661 7.00586L15.3257 5.94942C15.1806 5.71006 14.8191 5.71006 14.674 5.94942L13.9255 7.18505V7.18639L13.1642 8.44073V8.44207L12.4598 9.60414L12.0898 10.2139L11.384 11.3773L7.7496 17.3723L6.77057 18.9863L5.9936 20.2674L5.69477 20.7595L5.26359 21.4696C5.11844 21.709 5.29917 22.0072 5.58946 22.0072H17.1785C17.4688 22.0072 17.6495 21.709 17.5044 21.4696L17.0732 20.7595ZM24.4103 22.0072H23.1295C22.9958 22.0072 22.8706 21.939 22.8037 21.828L22.1562 20.7595L21.8574 20.2674L21.0804 18.9863L20.6137 18.2174C20.5809 18.1626 20.5325 18.1171 20.4756 18.0864L19.7712 17.6986V17.6972L19.4966 17.5461C19.1636 17.3629 18.7908 17.7186 18.9829 18.0355L19.4553 18.8152C19.4895 18.8727 19.5236 18.9288 19.5592 18.985L20.3362 20.2661L20.635 20.7582L21.0662 21.4683C21.2113 21.7076 21.0306 22.0059 20.7403 22.0059H19.4596C19.3258 22.0059 19.2006 21.9377 19.1337 21.8267L18.7737 21.2316C18.6784 21.0738 18.5816 20.916 18.4863 20.7582L18.1874 20.2661L17.4574 19.0639C17.4418 19.0371 17.4261 19.0117 17.4105 18.985L16.4314 17.3709L15.0568 15.1043L14.9771 14.9732L14.9373 15.0388L14.2727 16.1353L13.8501 16.832C13.7049 17.0714 13.8856 17.3696 14.1759 17.3696H14.8035C14.9373 17.3696 15.0625 17.4378 15.1294 17.5488L15.6744 18.4461C15.8195 18.6854 15.6388 18.9837 15.3485 18.9837H11.0439C10.755 18.9837 10.5729 18.6854 10.718 18.4461L11.3712 17.3696L13.1955 14.3621L13.3236 14.1522L13.9013 13.2L14.1204 12.8403L14.2713 12.5902L14.6512 11.9644C14.7964 11.725 15.1578 11.725 15.303 11.9644L16.0529 13.2L16.6406 14.1695C16.6733 14.2244 16.7217 14.2685 16.7786 14.3006L17.7577 14.8395C18.0907 15.0227 18.4635 14.667 18.2714 14.3501L16.8128 11.9457L15.8466 10.3517C15.7797 10.2407 15.7797 10.1043 15.8466 9.99328L16.4869 8.93685C16.6321 8.69748 16.9935 8.69748 17.1387 8.93685L17.8886 10.1725L19.3102 12.518L20.625 14.6871L22.1989 17.2813L22.253 17.3723L23.232 18.9863L23.3871 19.2404L24.009 20.2661L24.3078 20.7582L24.739 21.4683C24.8813 21.709 24.7006 22.0072 24.4103 22.0072Z" fill="white"/>
<defs>
<linearGradient id="paint0_linear_417_56" x1="24.6464" y1="-0.701284" x2="7.09601" y2="31.6464" gradientUnits="userSpaceOnUse">
<stop offset="0.00118972" stop-color="#00A4C1"/>
<stop offset="1" stop-color="#A4CD39"/>
</linearGradient>
</defs>
</svg>
