<svg width="256" height="256" viewBox="0 0 256 256" fill="none" xmlns="http://www.w3.org/2000/svg">
<g id="Master">
<rect width="256" height="256" rx="128" fill="white"/>
<rect x="1.5" y="1.5" width="253" height="253" rx="126.5" stroke="black" stroke-opacity="0.06" stroke-width="3"/>
<path id="Vector" fill-rule="evenodd" clip-rule="evenodd" d="M211.575 77.6967C211.2 76.72 210.549 75.5316 209.703 74.2456C208.01 71.6573 205.454 68.4829 202.622 65.4876V65.4713C199.594 62.4272 196.501 59.79 193.994 58.0482C192.74 57.1854 191.601 56.5017 190.657 56.1273C190.185 55.9319 189.713 55.8017 189.257 55.7691C188.817 55.7366 188.264 55.818 187.84 56.2412L129.14 113.413C128.488 114.047 127.43 114.047 126.779 113.413L68.0781 56.2412C67.6549 55.8342 67.1014 55.7528 66.6619 55.7691C66.2223 55.8017 65.734 55.9319 65.2619 56.1273C64.3177 56.5017 63.1619 57.1854 61.9248 58.0482C59.4178 59.79 56.3249 62.4434 53.297 65.4713V65.4876C50.4645 68.4829 47.9088 71.6573 46.2158 74.2456C45.3693 75.5316 44.7019 76.72 44.3438 77.6967C44.1647 78.1851 44.0345 78.6735 44.0019 79.113C43.9856 79.5525 44.067 80.1223 44.5065 80.5455L110.093 144.375C110.679 144.945 111.005 145.726 111.005 146.54L110.94 224.613C110.94 225.199 111.282 225.639 111.575 225.916C111.884 226.209 112.291 226.453 112.747 226.664C113.658 227.104 114.912 227.511 116.393 227.853C119.389 228.536 123.475 229.025 128 229.025C132.525 229.025 136.611 228.536 139.607 227.853C141.088 227.511 142.342 227.104 143.253 226.664C143.709 226.453 144.116 226.192 144.425 225.916C144.718 225.639 145.06 225.199 145.06 224.613L144.995 146.54C144.995 145.726 145.321 144.945 145.907 144.375L211.493 80.5455C211.933 80.1223 212.014 79.5525 211.998 79.113C211.982 78.6572 211.835 78.1688 211.656 77.6967H211.575Z" fill="url(#paint0_linear_12706_3960)"/>
</g>
<defs>
<linearGradient id="paint0_linear_12706_3960" x1="44" y1="145.668" x2="210.419" y2="131.283" gradientUnits="userSpaceOnUse">
<stop offset="0.3" stop-color="#FF6A16"/>
<stop offset="0.542948" stop-color="#FF3227"/>
<stop offset="0.89" stop-color="#FF66DD"/>
</linearGradient>
</defs>
</svg>
