<svg width="934" height="219" viewBox="0 0 934 219" fill="none" xmlns="http://www.w3.org/2000/svg">
<g clip-path="url(#clip0_135_12)">
<path d="M37.6884 240H-22.5722L45.3214 34.3104H121.652L189.545 240H129.285L84.29 90.9554H82.683L37.6884 240ZM26.4398 158.849H139.73V200.63H26.4398V158.849ZM273.682 34.3104V240H217.841V34.3104H273.682Z" fill="#7900F1"/>
<path d="M308.631 240V34.3104H364.473V195.005H447.632V240H308.631ZM479.493 240V85.7328H534.933V240H479.493ZM507.213 69.6633C499.714 69.6633 493.286 67.1859 487.93 62.2312C482.573 57.2764 479.895 51.3173 479.895 44.3538C479.895 37.3904 482.573 31.4313 487.93 26.4765C493.286 21.5217 499.714 19.0444 507.213 19.0444C514.779 19.0444 521.207 21.5217 526.497 26.4765C531.853 31.4313 534.531 37.3904 534.531 44.3538C534.531 51.3173 531.853 57.2764 526.497 62.2312C521.207 67.1859 514.779 69.6633 507.213 69.6633ZM570.861 240V34.3104H626.301V112.649H627.105C629.113 107.427 632.059 102.639 635.943 98.2871C639.826 93.868 644.647 90.3528 650.405 87.7415C656.164 85.0632 662.859 83.7241 670.492 83.7241C680.67 83.7241 690.345 86.4358 699.518 91.8593C708.758 97.2827 716.257 105.82 722.015 117.47C727.84 129.12 730.753 144.253 730.753 162.866C730.753 180.677 727.974 195.441 722.417 207.158C716.926 218.875 709.561 227.613 700.321 233.371C691.148 239.13 681.071 242.009 670.091 242.009C662.859 242.009 656.398 240.837 650.707 238.493C645.082 236.083 640.262 232.836 636.244 228.751C632.294 224.6 629.247 219.913 627.105 214.691H625.899V240H570.861ZM625.096 162.866C625.096 170.365 626.067 176.86 628.009 182.351C630.017 187.774 632.829 191.992 636.445 195.005C640.128 197.951 644.513 199.425 649.602 199.425C654.691 199.425 659.009 197.985 662.558 195.106C666.174 192.16 668.919 187.975 670.794 182.552C672.735 177.061 673.706 170.499 673.706 162.866C673.706 155.233 672.735 148.705 670.794 143.282C668.919 137.791 666.174 133.607 662.558 130.727C659.009 127.781 654.691 126.308 649.602 126.308C644.513 126.308 640.128 127.781 636.445 130.727C632.829 133.607 630.017 137.791 628.009 143.282C626.067 148.705 625.096 155.233 625.096 162.866ZM762.438 240V85.7328H816.271V115.06H817.878C820.69 104.213 825.142 96.2784 831.235 91.2567C837.395 86.235 844.593 83.7241 852.829 83.7241C855.239 83.7241 857.616 83.925 859.96 84.3267C862.37 84.6615 864.68 85.1637 866.89 85.8332V133.138C864.144 132.2 860.763 131.497 856.746 131.029C852.728 130.56 849.28 130.326 846.401 130.326C840.978 130.326 836.09 131.564 831.738 134.042C827.452 136.452 824.071 139.867 821.594 144.286C819.116 148.638 817.878 153.76 817.878 159.652V240H762.438ZM893.553 240V85.7328H948.993V240H893.553ZM921.273 69.6633C913.774 69.6633 907.346 67.1859 901.99 62.2312C896.633 57.2764 893.955 51.3173 893.955 44.3538C893.955 37.3904 896.633 31.4313 901.99 26.4765C907.346 21.5217 913.774 19.0444 921.273 19.0444C928.839 19.0444 935.267 21.5217 940.556 26.4765C945.913 31.4313 948.591 37.3904 948.591 44.3538C948.591 51.3173 945.913 57.2764 940.556 62.2312C935.267 67.1859 928.839 69.6633 921.273 69.6633Z" fill="#EBEBEB"/>
</g>
<defs>
<clipPath id="clip0_135_12">
<rect width="934" height="219" fill="white"/>
</clipPath>
</defs>
</svg>
